SplineFontDB: 3.0
FontName: WebAtlas-icons-outline
FullName: WebAtlas-icons-outline
FamilyName: WebAtlas-icons-outline
Weight: Regular
Copyright: MIT License 2018, Louis MORAES.
Version: 1.0.0
ItalicAngle: 0
UnderlinePosition: -170
UnderlineWidth: 50
Ascent: 800
Descent: 200
InvalidEm: 0
sfntRevision: 0x00010000
LayerCount: 2
Layer: 0 1 "Arri+AOgA-re" 1
Layer: 1 1 "Avant" 0
XUID: [1021 206 1625637039 27996]
StyleMap: 0x0040
FSType: 8
OS2Version: 3
OS2_WeightWidthSlopeOnly: 0
OS2_UseTypoMetrics: 0
CreationTime: 1375896762
ModificationTime: 1562163263
PfmFamily: 81
TTFWeight: 400
TTFWidth: 5
LineGap: 0
VLineGap: 0
Panose: 0 0 5 0 0 0 0 0 0 0
OS2TypoAscent: 700
OS2TypoAOffset: 0
OS2TypoDescent: -201
OS2TypoDOffset: 0
OS2TypoLinegap: 299
OS2WinAscent: 999
OS2WinAOffset: 0
OS2WinDescent: 201
OS2WinDOffset: 0
HheadAscent: 999
HheadAOffset: 0
HheadDescent: -201
HheadDOffset: 0
OS2SubXSize: 650
OS2SubYSize: 600
OS2SubXOff: 0
OS2SubYOff: 75
OS2SupXSize: 650
OS2SupYSize: 600
OS2SupXOff: 0
OS2SupYOff: 350
OS2StrikeYSize: 50
OS2StrikeYPos: 292
OS2CapHeight: 690
OS2XHeight: 487
OS2Vendor: 'UKWN'
OS2CodePages: 20000097.00000000
OS2UnicodeRanges: 00002eff.00000000.00000000.00000000
Lookup: 258 0 0 "'kern' Cr+AOkA-nage horizontal lookups0" { "'kern' Cr+AOkA-nage horizontal lookups0 per glyph data 0"  "'kern' Cr+AOkA-nage horizontal lookups0 classe de cr+AOkA-nage 1"  "'kern' Cr+AOkA-nage horizontal lookups0 classe de cr+AOkA-nage 2"  "'kern' Cr+AOkA-nage horizontal lookups0 classe de cr+AOkA-nage 3"  } ['kern' ('DFLT' <'dflt' > 'cyrl' <'dflt' > 'grek' <'dflt' > 'latn' <'dflt' > ) ]
MarkAttachClasses: 1
DEI: 91125
KernClass2: 45 58 "'kern' Cr+AOkA-nage horizontal lookups0 classe de cr+AOkA-nage 1"
 0 
 0 
 0 
 0 
 0 
 0 
 0 
 0 
 0 
 0 
 0 
 0 
 0 
 0 
 0 
 0 
 0 
 0 
 0 
 0 
 0 
 0 
 0 
 0 
 0 
 0 
 0 
 0 
 0 
 0 
 0 
 0 
 0 
 0 
 0 
 0 
 0 
 0 
 0 
 0 
 0 
 0 
 0 
 0 
 0 
 0 
 0 
 6 hyphen
 0 
 20 quotedbl quotesingle
 0 
 0 
 0 
 0 
 0 
 8 asterisk
 0 
 0 
 0 
 0 
 0 
 0 
 0 

StartChar: asterisk
Encoding: 42 42 3
Width: 604
VWidth: 0
GlyphClass: 2
Flags: W
LayerCount: 2
Fore
SplineSet
318.320618913 796.003690651 m 0,0,1
 352.477886538 797.598062046 352.477886538 797.598062046 352.988446674 760.196662901 c 0,2,3
 352.988446674 760.113151437 352.988446674 760.113151437 353.277373433 680.429427936 c 2,4,-1
 353.297174595 674.968423631 l 1,5,-1
 358.045144573 676.636473733 l 2,6,7
 423.003723645 697.591074149 423.003723645 697.591074149 433.608810806 701.028341398 c 0,8,9
 471.316854359 713.298502868 471.316854359 713.298502868 480.449262603 674.30607924 c 0,10,11
 487.989347828 642.131533758 487.989347828 642.131533758 456.135517701 631.770589675 c 0,12,13
 441.829516537 627.091823721 441.829516537 627.091823721 415.660383944 618.454708908 c 128,-1,14
 389.494398545 609.818644762 389.494398545 609.818644762 380.383065172 606.832286702 c 2,15,-1
 375.187139951 605.129252086 l 1,16,-1
 378.383556532 600.69293753 l 2,17,18
 417.326040832 546.644566302 417.326040832 546.644566302 425.030990207 536.042891643 c 0,19,20
 430.250672978 528.842688588 430.250672978 528.842688588 432.848811759 522.387162609 c 0,21,22
 444.074338585 494.495396169 444.074338585 494.495396169 403.45584615 478.723415523 c 0,23,24
 382.258577004 470.966892303 382.258577004 470.966892303 366.074467972 493.253018347 c 0,25,26
 357.69283251 505.282169571 357.69283251 505.282169571 342.937089035 527.314227279 c 128,-1,27
 328.182359052 549.356500036 328.182359052 549.356500036 322.694670469 557.569290668 c 2,28,-1
 319.747812265 561.979512843 l 1,29,-1
 316.800349346 557.569775419 l 2,30,31
 282.016604463 505.529364467 282.016604463 505.529364467 273.428096577 493.29908562 c 0,32,33
 251.841478894 465.26917365 251.841478894 465.26917365 223.195798801 486.090876984 c 128,-1,34
 194.539684978 506.92304816 194.539684978 506.92304816 214.55382966 536.090131505 c 0,35,36
 222.54146112 547.184064089 222.54146112 547.184064089 239.403388274 570.53765743 c 128,-1,37
 256.255239124 593.881806868 256.255239124 593.881806868 261.166210854 600.691531028 c 2,38,-1
 264.361320565 605.121981486 l 1,39,-1
 259.17302277 606.830543257 l 2,40,41
 195.081469163 627.936575082 195.081469163 627.936575082 183.430998199 631.761579103 c 0,42,43
 149.538879739 643.34736555 149.538879739 643.34736555 160.593692026 677.440955687 c 128,-1,44
 171.659407637 711.535608082 171.659407637 711.535608082 205.890445668 701.018398554 c 0,45,46
 217.447331576 697.251883107 217.447331576 697.251883107 243.169317339 689.033509351 c 128,-1,47
 268.875992616 680.820027414 268.875992616 680.820027414 281.439533462 676.640010625 c 2,48,-1
 286.199678885 674.951097079 l 1,49,-1
 286.217328504 680.43120324 l 2,50,51
 286.260122798 693.718587918 286.260122798 693.718587918 286.356421512 720.320071605 c 128,-1,52
 286.452717654 746.909037813 286.452717654 746.909037813 286.506130492 760.188242979 c 0,53,54
 286.968605284 794.514896713 286.968605284 794.514896713 318.320618913 796.003690651 c 0,0,1
EndSplineSet
Validated: 33
EndChar

StartChar: plus
Encoding: 43 43 4
Width: 684
VWidth: 37
GlyphClass: 2
Flags: W
LayerCount: 2
Fore
SplineSet
345.370117188 587.790039062 m 0,0,1
 386.506835938 587.790039062 386.506835938 587.790039062 386.506835938 545.858398438 c 2,2,-1
 386.506835938 390.946289062 l 1,3,-1
 386.506835938 386.946289062 l 1,4,-1
 390.375976562 386.946289062 l 1,5,-1
 542.178710938 386.946289062 l 2,6,7
 584.122070312 386.946289062 584.122070312 386.946289062 584.122070312 345.014648438 c 128,-1,8
 584.122070312 303.0703125 584.122070312 303.0703125 542.178710938 303.0703125 c 2,9,-1
 390.375976562 303.0703125 l 1,10,-1
 386.506835938 303.0703125 l 1,11,-1
 386.506835938 299.0703125 l 1,12,-1
 386.506835938 144.796875 l 2,13,14
 386.506835938 101.959960938 386.506835938 101.959960938 345.948242188 101.959960938 c 128,-1,15
 305.389648438 101.959960938 305.389648438 101.959960938 305.389648438 143.891601562 c 2,16,-1
 305.404296875 299.0703125 l 1,17,-1
 305.404296875 303.0703125 l 1,18,-1
 301.53515625 303.0703125 l 1,19,-1
 149.821289062 303.0703125 l 2,20,21
 107.877929688 303.0703125 107.877929688 303.0703125 107.877929688 345.014648438 c 128,-1,22
 107.877929688 386.946289062 107.877929688 386.946289062 149.821289062 386.946289062 c 2,23,-1
 301.53515625 386.946289062 l 1,24,-1
 305.404296875 386.946289062 l 1,25,-1
 305.404296875 390.946289062 l 1,26,-1
 305.404296875 545.154296875 l 2,27,28
 305.390625 587.217773438 305.390625 587.217773438 345.370117188 587.790039062 c 0,0,1
EndSplineSet
Validated: 33
EndChar

StartChar: hyphen
Encoding: 45 45 5
Width: 684
VWidth: 37
GlyphClass: 2
Flags: W
LayerCount: 2
Fore
SplineSet
148.563476562 390.049804688 m 2,0,-1
 540.747070312 390.049804688 l 2,1,2
 583.310546875 390.049804688 583.310546875 390.049804688 583.310546875 348.138671875 c 128,-1,3
 583.310546875 306.227539062 583.310546875 306.227539062 541.3984375 306.227539062 c 2,4,-1
 148.563476562 306.227539062 l 2,5,6
 106 306.227539062 106 306.227539062 106 348.138671875 c 128,-1,7
 106 390.049804688 106 390.049804688 148.563476562 390.049804688 c 2,0,-1
EndSplineSet
Validated: 1
EndChar

StartChar: less
Encoding: 60 60 6
Width: 537
GlyphClass: 2
Flags: W
LayerCount: 2
Fore
SplineSet
447.870117188 577.111328125 m 0,0,1
 464.206054688 576.625976562 464.206054688 576.625976562 475.767578125 564.715820312 c 128,-1,2
 487.329101562 552.8046875 487.329101562 552.8046875 487.329101562 536.461914062 c 0,3,4
 487.329101562 525.802734375 487.329101562 525.802734375 480.510742188 515.032226562 c 128,-1,5
 473.692382812 504.262695312 473.692382812 504.262695312 464.05859375 499.703125 c 2,6,-1
 157.967773438 349.500976562 l 1,7,-1
 464.05859375 199.298828125 l 2,8,9
 473.70703125 194.744140625 473.70703125 194.744140625 480.536132812 183.96875 c 128,-1,10
 487.365234375 173.193359375 487.365234375 173.193359375 487.365234375 162.5234375 c 0,11,12
 487.365234375 145.686523438 487.365234375 145.686523438 475.44921875 133.771484375 c 128,-1,13
 463.534179688 121.85546875 463.534179688 121.85546875 446.697265625 121.85546875 c 0,14,15
 436.93359375 121.85546875 436.93359375 121.85546875 428.232421875 126.2890625 c 2,16,-1
 47.74609375 312.995117188 l 2,17,18
 38.3291015625 317.618164062 38.3291015625 317.618164062 31.6650390625 328.314453125 c 128,-1,19
 25 339.010742188 25 339.010742188 25 349.500976562 c 128,-1,20
 25 359.991210938 25 359.991210938 31.6650390625 370.6875 c 128,-1,21
 38.3291015625 381.383789062 38.3291015625 381.383789062 47.74609375 386.006835938 c 2,22,-1
 428.232421875 572.712890625 l 2,23,24
 436.920898438 577.129882812 436.920898438 577.129882812 446.6640625 577.129882812 c 0,25,26
 447.237304688 577.129882812 447.237304688 577.129882812 447.870117188 577.111328125 c 0,0,1
EndSplineSet
Validated: 1
EndChar

StartChar: greater
Encoding: 62 62 7
Width: 537
GlyphClass: 2
Flags: W
LayerCount: 2
Fore
SplineSet
64.4951171875 577.111328125 m 0,0,1
 65.1279296875 577.129882812 65.1279296875 577.129882812 65.701171875 577.129882812 c 0,2,3
 75.4443359375 577.129882812 75.4443359375 577.129882812 84.1328125 572.712890625 c 2,4,-1
 464.619140625 386.006835938 l 2,5,6
 474.036132812 381.383789062 474.036132812 381.383789062 480.700195312 370.6875 c 128,-1,7
 487.365234375 359.991210938 487.365234375 359.991210938 487.365234375 349.500976562 c 128,-1,8
 487.365234375 339.010742188 487.365234375 339.010742188 480.700195312 328.314453125 c 128,-1,9
 474.036132812 317.618164062 474.036132812 317.618164062 464.619140625 312.995117188 c 2,10,-1
 84.1328125 126.2890625 l 2,11,12
 75.431640625 121.85546875 75.431640625 121.85546875 65.66796875 121.85546875 c 0,13,14
 48.8310546875 121.85546875 48.8310546875 121.85546875 36.916015625 133.771484375 c 128,-1,15
 25 145.686523438 25 145.686523438 25 162.5234375 c 0,16,17
 25 173.193359375 25 173.193359375 31.8291015625 183.96875 c 128,-1,18
 38.658203125 194.744140625 38.658203125 194.744140625 48.306640625 199.298828125 c 2,19,-1
 354.397460938 349.500976562 l 1,20,-1
 48.306640625 499.703125 l 2,21,22
 38.6728515625 504.262695312 38.6728515625 504.262695312 31.8544921875 515.032226562 c 128,-1,23
 25.0361328125 525.802734375 25.0361328125 525.802734375 25.0361328125 536.461914062 c 0,24,25
 25.0361328125 552.8046875 25.0361328125 552.8046875 36.59765625 564.715820312 c 128,-1,26
 48.1591796875 576.625976562 48.1591796875 576.625976562 64.4951171875 577.111328125 c 0,0,1
EndSplineSet
Validated: 1
EndChar

StartChar: Amacron
Encoding: 256 256 8
Width: 1000
VWidth: 1100
GlyphClass: 2
LayerCount: 2
Fore
SplineSet
1010.42675781 899.943359375 m 0,0,1
 1050.44238281 896.19140625 1050.44238281 896.19140625 1078.95507812 868.8671875 c 2,2,-1
 1227.96386719 719.857421875 l 2,3,4
 1243.50097656 703.458984375 1243.50097656 703.458984375 1250.27539062 688.78125 c 0,5,6
 1261.76855469 662.66015625 1261.76855469 662.66015625 1258.14453125 632.404296875 c 128,-1,7
 1254.52050781 602.1484375 1254.52050781 602.1484375 1236.72949219 579.61328125 c 0,8,9
 1235.13671875 577.224609375 1235.13671875 577.224609375 1227.96386719 570.051757812 c 2,10,-1
 588.8984375 -69.0146484375 l 2,11,12
 572.495117188 -84.5537109375 572.495117188 -84.5537109375 557.821289062 -91.326171875 c 0,13,14
 531.701171875 -102.819335938 531.701171875 -102.819335938 501.4453125 -99.1943359375 c 128,-1,15
 471.189453125 -95.5703125 471.189453125 -95.5703125 448.654296875 -77.779296875 c 0,16,17
 446.262695312 -76.185546875 446.262695312 -76.185546875 439.091796875 -69.0146484375 c 2,18,-1
 31.109375 338.967773438 l 2,19,20
 17.5634765625 353.310546875 17.5634765625 353.310546875 11.9853515625 364.466796875 c 0,21,22
 -2.4091796875 391.294921875 -2.4091796875 391.294921875 0.431640625 423.333007812 c 128,-1,23
 3.2724609375 455.37109375 3.2724609375 455.37109375 22.3447265625 479.211914062 c 0,24,25
 23.9384765625 481.602539062 23.9384765625 481.602539062 31.109375 488.7734375 c 2,26,-1
 180.119140625 637.783203125 l 2,27,28
 194.461914062 651.329101562 194.461914062 651.329101562 205.618164062 656.907226562 c 0,29,30
 232.446289062 671.301757812 232.446289062 671.301757812 264.484375 668.4609375 c 128,-1,31
 296.522460938 665.620117188 296.522460938 665.620117188 320.36328125 646.547851562 c 0,32,33
 322.75390625 644.955078125 322.75390625 644.955078125 329.924804688 637.783203125 c 2,34,-1
 513.995117188 454.509765625 l 1,35,-1
 929.149414062 868.8671875 l 2,36,37
 934.065429688 872.525390625 934.065429688 872.525390625 942.375 877.905273438 c 128,-1,38
 950.684570312 883.284179688 950.684570312 883.284179688 972.233398438 891.967773438 c 128,-1,39
 993.782226562 900.651367188 993.782226562 900.651367188 1010.42675781 899.943359375 c 0,0,1
513.995117188 303.907226562 m 1,40,-1
 255.021484375 562.879882812 l 1,41,-1
 106.012695312 413.87109375 l 1,42,-1
 513.995117188 5.888671875 l 1,43,-1
 1153.06152344 644.954101562 l 1,44,-1
 1004.05175781 793.963867188 l 1,45,46
 949.600585938 739.512695312 949.600585938 739.512695312 849.774414062 639.686523438 c 128,-1,47
 749.948242188 539.860351562 749.948242188 539.860351562 668.272460938 458.18359375 c 128,-1,48
 586.596679688 376.5078125 586.596679688 376.5078125 513.995117188 303.907226562 c 1,40,-1
EndSplineSet
EndChar

StartChar: amacron
Encoding: 257 257 9
Width: 1000
VWidth: 1100
GlyphClass: 2
LayerCount: 2
Fore
SplineSet
766.594726562 899.944335938 m 0,0,1
 803.8125 896.341796875 803.8125 896.341796875 832.345703125 869.048828125 c 2,2,-1
 968.6015625 732.791992188 l 2,3,4
 983.059570312 718.334960938 983.059570312 718.334960938 990.783203125 700.3125 c 0,5,6
 1002.11914062 674.227539062 1002.11914062 674.227539062 998.209960938 644.364257812 c 128,-1,7
 994.30078125 614.5 994.30078125 614.5 976.5234375 592.575195312 c 0,8,9
 973.359375 588.619140625 973.359375 588.619140625 968.6015625 583.861328125 c 2,10,-1
 785.606445312 400.073242188 l 1,11,-1
 968.6015625 216.286132812 l 2,12,13
 984.458984375 199.619140625 984.458984375 199.619140625 991.575195312 183.806640625 c 0,14,15
 1002.35351562 157.176757812 1002.35351562 157.176757812 998.30859375 127.461914062 c 128,-1,16
 994.263671875 97.748046875 994.263671875 97.748046875 976.5234375 75.27734375 c 0,17,18
 973.002929688 70.8759765625 973.002929688 70.8759765625 968.6015625 67.35546875 c 2,19,-1
 832.345703125 -68.9013671875 l 2,20,21
 818.879882812 -82.3671875 818.879882812 -82.3671875 799.866210938 -91.875 c 0,22,23
 773.018554688 -103.075195312 773.018554688 -103.075195312 743.521484375 -98.9052734375 c 128,-1,24
 714.025390625 -94.7353515625 714.025390625 -94.7353515625 691.336914062 -76.8232421875 c 0,25,26
 686.932617188 -73.2998046875 686.932617188 -73.2998046875 683.415039062 -68.9013671875 c 2,27,-1
 500.418945312 114.09375 l 1,28,-1
 316.631835938 -68.9013671875 l 2,29,30
 299.96484375 -84.7578125 299.96484375 -84.7578125 284.15234375 -91.08203125 c 0,31,32
 257.436523438 -102.38671875 257.436523438 -102.38671875 227.807617188 -98.5087890625 c 128,-1,33
 198.1796875 -94.630859375 198.1796875 -94.630859375 175.623046875 -76.8232421875 c 0,34,35
 171.21875 -73.2998046875 171.21875 -73.2998046875 167.701171875 -68.9013671875 c 2,36,-1
 31.4443359375 67.35546875 l 2,37,38
 16.63671875 83.087890625 16.63671875 83.087890625 11.6396484375 95.08203125 c 0,39,40
 -2.0390625 121.801757812 -2.0390625 121.801757812 1.2421875 153.208984375 c 128,-1,41
 4.5234375 184.615234375 4.5234375 184.615234375 23.5224609375 208.364257812 c 0,42,43
 27.04296875 212.765625 27.04296875 212.765625 31.4443359375 216.286132812 c 2,44,-1
 214.439453125 400.073242188 l 1,45,-1
 31.4443359375 583.861328125 l 2,46,47
 15.587890625 600.528320312 15.587890625 600.528320312 9.263671875 616.340820312 c 0,48,49
 -2.041015625 643.056640625 -2.041015625 643.056640625 1.8369140625 672.685546875 c 128,-1,50
 5.71484375 702.313476562 5.71484375 702.313476562 23.5224609375 724.870117188 c 0,51,52
 27.0458984375 729.274414062 27.0458984375 729.274414062 31.4443359375 732.791992188 c 2,53,-1
 167.701171875 869.048828125 l 2,54,55
 182.157226562 883.505859375 182.157226562 883.505859375 200.180664062 891.229492188 c 0,56,57
 226.896484375 902.534179688 226.896484375 902.534179688 256.524414062 898.65625 c 128,-1,58
 286.15234375 894.778320312 286.15234375 894.778320312 308.709960938 876.970703125 c 0,59,60
 313.111328125 873.450195312 313.111328125 873.450195312 316.631835938 869.048828125 c 2,61,-1
 500.418945312 686.053710938 l 1,62,-1
 683.415039062 869.048828125 l 2,63,64
 688.48046875 872.685546875 688.48046875 872.685546875 697.026367188 878.034179688 c 128,-1,65
 705.572265625 883.381835938 705.572265625 883.381835938 727.633789062 892.015625 c 128,-1,66
 749.694335938 900.6484375 749.694335938 900.6484375 766.594726562 899.944335938 c 0,0,1
500.418945312 536.330078125 m 1,67,-1
 242.166015625 794.583007812 l 1,68,-1
 105.91015625 658.327148438 l 1,69,-1
 364.163085938 400.073242188 l 1,70,-1
 105.91015625 141.8203125 l 1,71,-1
 242.166015625 5.564453125 l 1,72,-1
 500.418945312 263.817382812 l 1,73,-1
 757.879882812 5.564453125 l 1,74,-1
 894.13671875 141.8203125 l 1,75,-1
 636.67578125 400.073242188 l 1,76,-1
 894.13671875 658.327148438 l 1,77,-1
 757.879882812 794.583007812 l 1,78,79
 715.088867188 751.395507812 715.088867188 751.395507812 629.13671875 665.443359375 c 128,-1,80
 543.184570312 579.491210938 543.184570312 579.491210938 500.418945312 536.330078125 c 1,67,-1
EndSplineSet
EndChar

StartChar: Abreve
Encoding: 258 258 10
Width: 1000
VWidth: 1100
GlyphClass: 2
LayerCount: 2
Fore
SplineSet
993.859375 899.645507812 m 0,0,1
 1040.49902344 898.385742188 1040.49902344 898.385742188 1073.57519531 867.759765625 c 0,2,3
 1074.77050781 866.962890625 1074.77050781 866.962890625 1075.96679688 865.766601562 c 128,-1,4
 1077.16308594 864.5703125 1077.16308594 864.5703125 1078.35839844 863.7734375 c 0,5,6
 1169.17773438 771.359375 1169.17773438 771.359375 1215.46972656 725.067382812 c 0,7,8
 1250.82324219 689.104492188 1250.82324219 689.104492188 1251.14257812 636.881835938 c 128,-1,9
 1251.46191406 584.659179688 1251.46191406 584.659179688 1213.875 545.70703125 c 2,10,-1
 605.642578125 -63.3232421875 l 2,11,12
 585.670898438 -81.67578125 585.670898438 -81.67578125 564.189453125 -90.4267578125 c 0,13,14
 530.055664062 -105.318359375 530.055664062 -105.318359375 491.548828125 -97.302734375 c 128,-1,15
 453.041015625 -89.2861328125 453.041015625 -89.2861328125 425.484375 -61.7294921875 c 0,16,17
 368.513671875 -2.6220703125 368.513671875 -2.6220703125 304.5390625 61.5439453125 c 128,-1,18
 240.564453125 125.709960938 240.564453125 125.709960938 158.212890625 207.200195312 c 128,-1,19
 75.8603515625 288.69140625 75.8603515625 288.69140625 35.6728515625 328.87890625 c 0,20,21
 0 365.157226562 0 365.157226562 0 418.065429688 c 128,-1,22
 0 470.973632812 0 470.973632812 37.267578125 508.240234375 c 0,23,24
 52.7626953125 522.998046875 52.7626953125 522.998046875 102.751953125 575.940429688 c 128,-1,25
 152.741210938 628.8828125 152.741210938 628.8828125 183.944335938 654.120117188 c 0,26,27
 218.522460938 682.3046875 218.522460938 682.3046875 265.752929688 681.024414062 c 128,-1,28
 312.983398438 679.744140625 312.983398438 679.744140625 348.159179688 649.337890625 c 2,29,-1
 352.145507812 645.3515625 l 1,30,-1
 515.563476562 481.13671875 l 1,31,-1
 900.591796875 866.165039062 l 1,32,33
 944.513671875 899.645507812 944.513671875 899.645507812 984.29296875 899.645507812 c 0,34,35
 985.108398438 900.440429688 985.108398438 900.440429688 993.859375 899.645507812 c 0,0,1
989.076171875 793.623046875 m 2,36,-1
 985.887695312 793.623046875 l 2,37,38
 980.107421875 793.623046875 980.107421875 793.623046875 973.1328125 788.04296875 c 2,39,-1
 515.563476562 330.473632812 l 1,40,-1
 278.009765625 568.82421875 l 2,41,42
 262.06640625 583.173828125 262.06640625 583.173828125 248.514648438 569.62109375 c 0,43,44
 226.208007812 546.517578125 226.208007812 546.517578125 112.200195312 432.509765625 c 0,45,46
 97.0546875 417.36328125 97.0546875 417.36328125 112.200195312 402.217773438 c 0,47,48
 169.950195312 344.467773438 169.950195312 344.467773438 234.7265625 279.69140625 c 128,-1,49
 299.50390625 214.915039062 299.50390625 214.915039062 378.6875 135.73046875 c 128,-1,50
 457.872070312 56.5458984375 457.872070312 56.5458984375 501.213867188 13.2041015625 c 0,51,52
 507.192382812 7.2255859375 507.192382812 7.2255859375 516.360351562 7.2255859375 c 128,-1,53
 525.528320312 7.2255859375 525.528320312 7.2255859375 531.506835938 13.2041015625 c 0,54,55
 632.74609375 114.443359375 632.74609375 114.443359375 835.224609375 317.3203125 c 128,-1,56
 1037.703125 520.197265625 1037.703125 520.197265625 1138.94238281 621.436523438 c 0,57,58
 1154.08886719 636.583007812 1154.08886719 636.583007812 1138.94238281 651.728515625 c 2,59,-1
 1002.62792969 788.04296875 l 2,60,61
 998.165039062 793.623046875 998.165039062 793.623046875 989.076171875 793.623046875 c 2,36,-1
981.901367188 899.645507812 m 1,62,-1
 981.901367188 899.645507812 l 1,62,-1
984.29296875 899.645507812 m 1,63,-1
 984.29296875 899.645507812 l 1,63,-1
EndSplineSet
EndChar

StartChar: abreve
Encoding: 259 259 11
Width: 1000
VWidth: 1100
GlyphClass: 2
LayerCount: 2
Fore
SplineSet
736.205078125 899.987304688 m 0,0,1
 784.485351562 898.717773438 784.485351562 898.717773438 819.227539062 867.569335938 c 2,2,-1
 823.181640625 863.615234375 l 1,3,-1
 960.762695312 726.03515625 l 2,4,5
 962.9140625 723.575195312 962.9140625 723.575195312 965.0078125 721.053710938 c 128,-1,6
 967.1015625 718.53125 967.1015625 718.53125 968.376953125 717.046875 c 128,-1,7
 969.653320312 715.5625 969.653320312 715.5625 971.041015625 714.173828125 c 0,8,9
 997.486328125 680.172851562 997.486328125 680.172851562 996.046875 633.622070312 c 128,-1,10
 994.607421875 587.071289062 994.607421875 587.071289062 964.715820312 553.663085938 c 0,11,12
 963.92578125 552.4765625 963.92578125 552.4765625 962.739257812 551.291015625 c 128,-1,13
 961.552734375 550.10546875 961.552734375 550.10546875 960.762695312 548.918945312 c 2,14,-1
 812.90234375 401.849609375 l 1,15,-1
 962.34375 252.408203125 l 2,16,17
 991.615234375 223.078125 991.615234375 223.078125 999.505859375 185.19921875 c 0,18,19
 1004.81152344 155.135742188 1004.81152344 155.135742188 995.01171875 124.969726562 c 128,-1,20
 985.211914062 94.8046875 985.211914062 94.8046875 963.134765625 72.1298828125 c 2,21,-1
 827.134765625 -64.66015625 l 2,22,23
 825.557617188 -66.2373046875 825.557617188 -66.2373046875 813.693359375 -75.73046875 c 0,24,25
 777.673828125 -103.163085938 777.673828125 -103.163085938 729.583007812 -99.6484375 c 128,-1,26
 681.4921875 -96.1337890625 681.4921875 -96.1337890625 648.4375 -63.0791015625 c 2,27,-1
 497.415039062 87.9443359375 l 1,28,29
 481.0703125 71.3359375 481.0703125 71.3359375 429.092773438 19.7724609375 c 128,-1,30
 377.115234375 -31.791015625 377.115234375 -31.791015625 349.5546875 -60.70703125 c 0,31,32
 329.748046875 -79.7001953125 329.748046875 -79.7001953125 309.229492188 -88.380859375 c 0,33,34
 276.453125 -103.06640625 276.453125 -103.06640625 239.6484375 -96.880859375 c 128,-1,35
 202.84375 -90.6953125 202.84375 -90.6953125 174.811523438 -66.2412109375 c 0,36,37
 146.458007812 -40.6767578125 146.458007812 -40.6767578125 95.1083984375 12.857421875 c 128,-1,38
 43.759765625 66.3916015625 43.759765625 66.3916015625 34.0673828125 76.0830078125 c 0,39,40
 -1.31640625 112.067382812 -1.31640625 112.067382812 -1.31640625 164.545898438 c 128,-1,41
 -1.31640625 217.025390625 -1.31640625 217.025390625 35.6494140625 253.990234375 c 2,42,-1
 183.508789062 401.849609375 l 1,43,44
 87.0439453125 498.314453125 87.0439453125 498.314453125 38.8115234375 547.337890625 c 0,45,46
 3.427734375 583.321289062 3.427734375 583.321289062 3.427734375 635.80078125 c 128,-1,47
 3.427734375 688.279296875 3.427734375 688.279296875 40.3935546875 725.244140625 c 0,48,49
 67.365234375 750.8203125 67.365234375 750.8203125 116.551757812 801.100585938 c 128,-1,50
 165.73828125 851.379882812 165.73828125 851.379882812 174.811523438 860.453125 c 0,51,52
 211.555664062 895.9921875 211.555664062 895.9921875 264.061523438 896.626953125 c 128,-1,53
 316.56640625 897.26171875 316.56640625 897.26171875 355.08984375 860.453125 c 2,54,-1
 497.415039062 717.336914062 l 1,55,-1
 644.484375 863.615234375 l 2,56,57
 649.983398438 867.77734375 649.983398438 867.77734375 659.30078125 873.924804688 c 128,-1,58
 668.618164062 880.072265625 668.618164062 880.072265625 692.923828125 890.205078125 c 128,-1,59
 717.228515625 900.338867188 717.228515625 900.338867188 736.205078125 899.987304688 c 0,0,1
732.250976562 794.825195312 m 0,60,61
 725.134765625 794.825195312 725.134765625 794.825195312 718.809570312 788.5 c 2,62,-1
 497.415039062 567.895507812 l 1,63,64
 479.173828125 586.13671875 479.173828125 586.13671875 401.018554688 665.1484375 c 128,-1,65
 322.86328125 744.161132812 322.86328125 744.161132812 279.973632812 786.127929688 c 0,66,67
 274.043945312 792.057617188 274.043945312 792.057617188 264.951171875 792.057617188 c 128,-1,68
 255.857421875 792.057617188 255.857421875 792.057617188 249.927734375 786.127929688 c 0,69,70
 223.7109375 760.362304688 223.7109375 760.362304688 176.696289062 712.7265625 c 128,-1,71
 129.681640625 665.090820312 129.681640625 665.090820312 114.71875 650.127929688 c 0,72,73
 105.756835938 641.166015625 105.756835938 641.166015625 106.811523438 632.732421875 c 0,74,75
 108.028320312 625.43359375 108.028320312 625.43359375 114.71875 620.08203125 c 2,76,-1
 332.950195312 401.849609375 l 1,77,-1
 109.974609375 178.874023438 l 2,78,79
 103.905273438 172.8046875 103.905273438 172.8046875 103.748046875 164.147460938 c 128,-1,80
 103.58984375 155.490234375 103.58984375 155.490234375 109.974609375 148.827148438 c 0,81,82
 132.5234375 126.278320312 132.5234375 126.278320312 177.197265625 81.208984375 c 128,-1,83
 221.872070312 36.1396484375 221.872070312 36.1396484375 244.392578125 13.6181640625 c 0,84,85
 260.206054688 -0.61328125 260.206054688 -0.61328125 274.439453125 13.6181640625 c 2,86,-1
 497.415039062 236.594726562 l 1,87,88
 534.97265625 199.037109375 534.97265625 199.037109375 610.484375 123.919921875 c 128,-1,89
 685.99609375 48.8046875 685.99609375 48.8046875 723.553710938 11.24609375 c 0,90,91
 729.484375 5.31640625 729.484375 5.31640625 738.577148438 5.31640625 c 128,-1,92
 747.669921875 5.31640625 747.669921875 5.31640625 753.600585938 11.24609375 c 0,93,94
 843.794921875 101.442382812 843.794921875 101.442382812 888.80859375 147.24609375 c 0,95,96
 894.486328125 152.923828125 894.486328125 152.923828125 894.640625 161.379882812 c 128,-1,97
 894.793945312 169.834960938 894.793945312 169.834960938 888.018554688 177.291992188 c 2,98,-1
 663.4609375 401.849609375 l 1,99,-1
 884.85546875 622.454101562 l 2,100,101
 890.786132812 628.9765625 890.786132812 628.9765625 890.786132812 637.7734375 c 128,-1,102
 890.786132812 646.569335938 890.786132812 646.569335938 884.85546875 652.5 c 0,103,104
 763.609375 773.74609375 763.609375 773.74609375 748.065429688 788.5 c 0,105,106
 742.793945312 794.825195312 742.793945312 794.825195312 732.250976562 794.825195312 c 0,60,61
EndSplineSet
EndChar

StartChar: aogonek
Encoding: 261 261 12
Width: 1000
VWidth: 1100
GlyphClass: 2
LayerCount: 2
Fore
SplineSet
719.034179688 899.647460938 m 2,0,1
 733.325195312 898.853515625 733.325195312 898.853515625 745.223632812 896.47265625 c 0,2,3
 777.9296875 887.127929688 777.9296875 887.127929688 803.950195312 862.34765625 c 0,4,5
 830.53515625 836.158203125 830.53515625 836.158203125 883.310546875 783.384765625 c 128,-1,6
 936.083984375 730.609375 936.083984375 730.609375 962.669921875 704.420898438 c 0,7,8
 998.260742188 667.624023438 998.260742188 667.624023438 998.581054688 614.545898438 c 128,-1,9
 998.901367188 561.466796875 998.901367188 561.466796875 961.876953125 523.479492188 c 2,10,-1
 837.28125 398.883789062 l 1,11,12
 851.016601562 385.149414062 851.016601562 385.149414062 876.272460938 359.540039062 c 128,-1,13
 901.529296875 333.930664062 901.529296875 333.930664062 922.356445312 313.103515625 c 128,-1,14
 943.18359375 292.275390625 943.18359375 292.275390625 961.876953125 274.288085938 c 0,15,16
 980.94140625 254.408203125 980.94140625 254.408203125 990.446289062 233.814453125 c 0,17,18
 1005.70703125 199.663085938 1005.70703125 199.663085938 998.084960938 161.3984375 c 128,-1,19
 990.462890625 123.1328125 990.462890625 123.1328125 963.463867188 94.9345703125 c 0,20,21
 937.266601562 68.3408203125 937.266601562 68.3408203125 884.4921875 15.5654296875 c 128,-1,22
 831.717773438 -37.208984375 831.717773438 -37.208984375 805.537109375 -63.7861328125 c 0,23,24
 768.739257812 -99.376953125 768.739257812 -99.376953125 715.661132812 -99.6962890625 c 128,-1,25
 662.583007812 -100.015625 662.583007812 -100.015625 624.595703125 -62.9921875 c 2,26,-1
 500 61.6025390625 l 1,27,28
 415.930664062 -22.466796875 415.930664062 -22.466796875 373.0234375 -64.580078125 c 0,29,30
 337.486328125 -99.5146484375 337.486328125 -99.5146484375 285.727539062 -99.994140625 c 128,-1,31
 233.96875 -100.473632812 233.96875 -100.473632812 196.049804688 -64.580078125 c 0,32,33
 169.47265625 -38.3994140625 169.47265625 -38.3994140625 116.698242188 14.3759765625 c 128,-1,34
 63.923828125 67.150390625 63.923828125 67.150390625 37.330078125 93.3466796875 c 0,35,36
 1.81640625 130.064453125 1.81640625 130.064453125 1.81640625 184.508789062 c 128,-1,37
 1.81640625 238.954101562 1.81640625 238.954101562 38.9169921875 274.288085938 c 2,38,-1
 162.71875 398.883789062 l 1,39,40
 148.9921875 412.610351562 148.9921875 412.610351562 123.729492188 438.225585938 c 128,-1,41
 98.466796875 463.841796875 98.466796875 463.841796875 77.6416015625 484.666992188 c 128,-1,42
 56.8173828125 505.491210938 56.8173828125 505.491210938 38.123046875 523.479492188 c 0,43,44
 19.05859375 543.359375 19.05859375 543.359375 9.5537109375 563.953125 c 0,45,46
 -5.70703125 598.104492188 -5.70703125 598.104492188 1.9150390625 636.369140625 c 128,-1,47
 9.537109375 674.634765625 9.537109375 674.634765625 36.5361328125 702.833984375 c 0,48,49
 62.716796875 729.411132812 62.716796875 729.411132812 115.491210938 782.185546875 c 128,-1,50
 168.265625 834.9609375 168.265625 834.9609375 194.462890625 861.5546875 c 0,51,52
 230.912109375 896.807617188 230.912109375 896.807617188 284.239257812 896.96875 c 128,-1,53
 337.56640625 897.129882812 337.56640625 897.129882812 374.610351562 861.5546875 c 2,54,-1
 500 736.165039062 l 1,55,56
 513.7265625 749.891601562 513.7265625 749.891601562 539.341796875 775.154296875 c 128,-1,57
 564.958007812 800.41796875 564.958007812 800.41796875 585.783203125 821.2421875 c 128,-1,58
 606.607421875 842.067382812 606.607421875 842.067382812 624.595703125 860.760742188 c 0,59,60
 666.735351562 897.271484375 666.735351562 897.271484375 707.129882812 899.647460938 c 2,61,-1
 719.034179688 899.647460938 l 2,0,1
715.06640625 794.09765625 m 0,62,63
 707.923828125 794.09765625 707.923828125 794.09765625 699.98828125 786.162109375 c 2,64,-1
 500 586.173828125 l 1,65,66
 321.950195312 764.223632812 321.950195312 764.223632812 299.21875 786.162109375 c 0,67,68
 293.266601562 792.11328125 293.266601562 792.11328125 284.537109375 792.11328125 c 128,-1,69
 275.806640625 792.11328125 275.806640625 792.11328125 269.85546875 786.162109375 c 0,70,71
 199.034179688 717.456054688 199.034179688 717.456054688 111.928710938 629.028320312 c 0,72,73
 106.23046875 623.330078125 106.23046875 623.330078125 106.075195312 614.84375 c 128,-1,74
 105.920898438 606.356445312 105.920898438 606.356445312 112.721679688 598.872070312 c 2,75,-1
 312.709960938 398.883789062 l 1,76,77
 279.37890625 365.552734375 279.37890625 365.552734375 212.715820312 298.890625 c 128,-1,78
 146.052734375 232.227539062 146.052734375 232.227539062 112.721679688 198.896484375 c 0,79,80
 106.696289062 192.870117188 106.696289062 192.870117188 106.373046875 183.818359375 c 128,-1,81
 106.049804688 174.765625 106.049804688 174.765625 111.928710938 168.739257812 c 0,82,83
 190.297851562 89.1826171875 190.297851562 89.1826171875 269.85546875 10.8125 c 0,84,85
 275.553710938 5.1142578125 275.553710938 5.1142578125 284.041015625 4.9599609375 c 128,-1,86
 292.528320312 4.8056640625 292.528320312 4.8056640625 300.01171875 11.6064453125 c 2,87,-1
 500 211.59375 l 1,88,89
 544.44140625 167.15234375 544.44140625 167.15234375 568.884765625 142.708984375 c 128,-1,90
 593.327148438 118.266601562 593.327148438 118.266601562 631.103515625 80.4912109375 c 128,-1,91
 668.87890625 42.7158203125 668.87890625 42.7158203125 699.98828125 11.6064453125 c 0,92,93
 706.013671875 5.580078125 706.013671875 5.580078125 715.06640625 5.2568359375 c 128,-1,94
 724.119140625 4.93359375 724.119140625 4.93359375 730.14453125 10.8125 c 0,95,96
 809.653320312 89.1337890625 809.653320312 89.1337890625 888.071289062 168.739257812 c 0,97,98
 893.76953125 174.4375 893.76953125 174.4375 893.923828125 182.924804688 c 128,-1,99
 894.078125 191.412109375 894.078125 191.412109375 887.278320312 198.896484375 c 2,100,-1
 687.290039062 398.883789062 l 1,101,-1
 887.278320312 598.872070312 l 2,102,103
 893.303710938 604.897460938 893.303710938 604.897460938 893.626953125 613.950195312 c 128,-1,104
 893.950195312 623.002929688 893.950195312 623.002929688 888.071289062 629.028320312 c 0,105,106
 809.668945312 708.618164062 809.668945312 708.618164062 730.14453125 786.956054688 c 0,107,108
 723.002929688 794.09765625 723.002929688 794.09765625 715.06640625 794.09765625 c 0,62,63
EndSplineSet
EndChar

StartChar: Cacute
Encoding: 262 262 13
Width: 1000
VWidth: 1100
GlyphClass: 2
LayerCount: 2
Fore
SplineSet
902.744140625 899.6484375 m 2,0,1
 958.051757812 898.770507812 958.051757812 898.770507812 1009.19726562 870.470703125 c 128,-1,2
 1060.34375 842.169921875 1060.34375 842.169921875 1092.70996094 796.30078125 c 128,-1,3
 1125.07617188 750.430664062 1125.07617188 750.430664062 1136.27929688 691.838867188 c 128,-1,4
 1147.48144531 633.247070312 1147.48144531 633.247070312 1122.90234375 571.786132812 c 0,5,6
 1105.87792969 527.522460938 1105.87792969 527.522460938 1069.05078125 489.424804688 c 0,7,8
 991.264648438 412.694335938 991.264648438 412.694335938 904.342773438 325.772460938 c 128,-1,9
 817.419921875 238.849609375 817.419921875 238.849609375 711.344726562 132.24609375 c 128,-1,10
 605.268554688 25.642578125 605.268554688 25.642578125 547.1640625 -32.4619140625 c 0,11,12
 481.579101562 -96.8427734375 481.579101562 -96.8427734375 384.22265625 -99.875 c 128,-1,13
 286.866210938 -102.907226562 286.866210938 -102.907226562 215.342773438 -39.5888671875 c 0,14,15
 211.377929688 -35.626953125 211.377929688 -35.626953125 209.006835938 -34.0458984375 c 0,16,17
 117.028320312 57.93359375 117.028320312 57.93359375 -68.1708984375 244.715820312 c 1,18,-1
 -73.71484375 249.467773438 l 1,19,20
 -121.229492188 298.16015625 -121.229492188 298.16015625 -134.952148438 367.701171875 c 128,-1,21
 -148.674804688 437.2421875 -148.674804688 437.2421875 -122.8203125 505.8203125 c 128,-1,22
 -96.9658203125 574.3984375 -96.9658203125 574.3984375 -35.701171875 616.134765625 c 0,23,24
 31.9365234375 663.141601562 31.9365234375 663.141601562 121.102539062 654.642578125 c 128,-1,25
 210.267578125 646.142578125 210.267578125 646.142578125 270.778320312 584.45703125 c 2,26,-1
 376.897460938 477.545898438 l 1,27,28
 652.483398438 751.280273438 652.483398438 751.280273438 730.893554688 830.749023438 c 0,29,30
 748.352539062 847.404296875 748.352539062 847.404296875 766.53125 860.05078125 c 0,31,32
 820.381835938 895.952148438 820.381835938 895.952148438 886.905273438 899.6484375 c 2,33,-1
 902.744140625 899.6484375 l 2,0,1
895.616210938 794.3203125 m 0,34,35
 840.422851562 791.811523438 840.422851562 791.811523438 802.959960938 753.139648438 c 2,36,-1
 376.897460938 327.869140625 l 1,37,38
 346.786132812 358.377929688 346.786132812 358.377929688 286.202148438 418.9609375 c 128,-1,39
 225.619140625 479.543945312 225.619140625 479.543945312 195.543945312 510.014648438 c 0,40,41
 175.721679688 531.641601562 175.721679688 531.641601562 146.444335938 542.484375 c 0,42,43
 120.810546875 550.487304688 120.810546875 550.487304688 93.5302734375 549.954101562 c 128,-1,44
 66.25 549.420898438 66.25 549.420898438 40.919921875 536.098632812 c 128,-1,45
 15.58984375 522.776367188 15.58984375 522.776367188 -3.2890625 503.540039062 c 128,-1,46
 -22.16796875 484.3046875 -22.16796875 484.3046875 -31 454.90234375 c 128,-1,47
 -39.8330078125 425.500976562 -39.8330078125 425.500976562 -34.1171875 392.80859375 c 0,48,49
 -26.978515625 351.159179688 -26.978515625 351.159179688 5.4794921875 319.950195312 c 2,50,-1
 281.865234375 42.7724609375 l 2,51,52
 319.2578125 5.3798828125 319.2578125 5.3798828125 374.719726562 4.263671875 c 128,-1,53
 430.181640625 3.1484375 430.181640625 3.1484375 471.138671875 41.1884765625 c 0,54,55
 570.028320312 138.7421875 570.028320312 138.7421875 749.49609375 319.026367188 c 128,-1,56
 928.96484375 499.311523438 928.96484375 499.311523438 994.608398438 564.658203125 c 0,57,58
 1023.86523438 594.310546875 1023.86523438 594.310546875 1030.77832031 638.07421875 c 128,-1,59
 1037.69140625 681.838867188 1037.69140625 681.838867188 1017.30566406 723.280273438 c 128,-1,60
 996.920898438 764.721679688 996.920898438 764.721679688 952.635742188 784.025390625 c 0,61,62
 926.326171875 794.3203125 926.326171875 794.3203125 895.616210938 794.3203125 c 0,34,35
EndSplineSet
EndChar

StartChar: cacute
Encoding: 263 263 14
Width: 1000
VWidth: 1100
GlyphClass: 2
LayerCount: 2
Fore
SplineSet
242.977539062 899.901367188 m 2,0,1
 341.862304688 898.649414062 341.862304688 898.649414062 411.038085938 828.216796875 c 2,2,-1
 501.041992188 738.212890625 l 1,3,4
 561.61328125 798.784179688 561.61328125 798.784179688 591.842773438 829.809570312 c 0,5,6
 635.739257812 870.461914062 635.739257812 870.461914062 681.05078125 886.361328125 c 0,7,8
 710.483398438 897.262695312 710.483398438 897.262695312 748.752929688 899.901367188 c 0,9,10
 761.35546875 900.532226562 761.35546875 900.532226562 781.961914062 898.572265625 c 128,-1,11
 802.568359375 896.612304688 802.568359375 896.612304688 837.142578125 886.362304688 c 128,-1,12
 871.715820312 876.11328125 871.715820312 876.11328125 896.901367188 858.483398438 c 0,13,14
 952.796875 819.633789062 952.796875 819.633789062 980.036132812 753.979492188 c 128,-1,15
 1007.27539062 688.325195312 1007.27539062 688.325195312 995.1015625 615.71484375 c 128,-1,16
 982.928710938 543.10546875 982.928710938 543.10546875 929.557617188 490.501953125 c 2,17,-1
 839.553710938 399.701171875 l 1,18,19
 849.61328125 389.641601562 849.61328125 389.641601562 868.153320312 370.923828125 c 128,-1,20
 886.694335938 352.20703125 886.694335938 352.20703125 902.01953125 336.881835938 c 128,-1,21
 917.344726562 321.556640625 917.344726562 321.556640625 931.150390625 308.104492188 c 0,22,23
 970.209960938 265.806640625 970.209960938 265.806640625 986.108398438 223.67578125 c 0,24,25
 1001.63085938 186.176757812 1001.63085938 186.176757812 999.423828125 145.97265625 c 128,-1,26
 997.217773438 105.76953125 997.217773438 105.76953125 985.63671875 67.2080078125 c 128,-1,27
 974.055664062 28.646484375 974.055664062 28.646484375 947.77734375 -4.521484375 c 128,-1,28
 921.499023438 -37.6884765625 921.499023438 -37.6884765625 888.876953125 -61.1162109375 c 128,-1,29
 856.255859375 -84.5439453125 856.255859375 -84.5439453125 811.967773438 -94.4814453125 c 128,-1,30
 767.678710938 -104.41796875 767.678710938 -104.41796875 720.079101562 -96.5166015625 c 0,31,32
 645.25 -84.25 645.25 -84.25 591.045898438 -28.814453125 c 2,33,-1
 501.041992188 61.1904296875 l 1,34,35
 454.639648438 15.9765625 454.639648438 15.9765625 409.4453125 -30.4072265625 c 0,36,37
 368.7421875 -67.8740234375 368.7421875 -67.8740234375 327.405273438 -83.7724609375 c 0,38,39
 290.665039062 -98.138671875 290.665039062 -98.138671875 249.706054688 -99.0126953125 c 128,-1,40
 208.748046875 -99.88671875 208.748046875 -99.88671875 170.189453125 -87.2080078125 c 128,-1,41
 131.629882812 -74.5283203125 131.629882812 -74.5283203125 98.2578125 -51.630859375 c 128,-1,42
 64.884765625 -28.7333984375 64.884765625 -28.7333984375 40.5322265625 6.6259765625 c 128,-1,43
 16.1796875 41.984375 16.1796875 41.984375 6.4169921875 84.2880859375 c 0,44,45
 -7.3212890625 143.423828125 -7.3212890625 143.423828125 10.3984375 204.356445312 c 128,-1,46
 28.119140625 265.2890625 28.119140625 265.2890625 71.73046875 308.900390625 c 2,47,-1
 162.53125 399.701171875 l 1,48,49
 157.64453125 404.587890625 157.64453125 404.587890625 134.7734375 427.161132812 c 128,-1,50
 111.903320312 449.734375 111.903320312 449.734375 105.139648438 456.76953125 c 128,-1,51
 98.3759765625 463.805664062 98.3759765625 463.805664062 79.3330078125 484.658203125 c 128,-1,52
 60.2890625 505.51171875 60.2890625 505.51171875 53.2548828125 516.208007812 c 128,-1,53
 46.2216796875 526.905273438 46.2216796875 526.905273438 33.263671875 546.934570312 c 128,-1,54
 20.3056640625 566.963867188 20.3056640625 566.963867188 15.259765625 582.217773438 c 128,-1,55
 10.2138671875 597.471679688 10.2138671875 597.471679688 5.6005859375 617.57421875 c 128,-1,56
 0.9873046875 637.67578125 0.9873046875 637.67578125 0.841796875 657.766601562 c 0,57,58
 -0.369140625 748.616210938 -0.369140625 748.616210938 65.9541015625 821.604492188 c 128,-1,59
 132.278320312 894.59375 132.278320312 894.59375 225.454101562 899.901367188 c 1,60,-1
 242.977539062 899.901367188 l 2,0,1
757.513671875 793.966796875 m 2,61,62
 704.051757812 791.48046875 704.051757812 791.48046875 665.916992188 753.345703125 c 2,63,-1
 501.041992188 588.470703125 l 1,64,65
 473.545898438 615.966796875 473.545898438 615.966796875 418.189453125 670.92578125 c 128,-1,66
 362.833007812 725.883789062 362.833007812 725.883789062 335.37109375 753.345703125 c 0,67,68
 311.569335938 777.147460938 311.569335938 777.147460938 285.98828125 786.001953125 c 0,69,70
 256.682617188 798.1640625 256.682617188 798.1640625 224.720703125 791.951171875 c 128,-1,71
 192.7578125 785.737304688 192.7578125 785.737304688 166.21484375 769.673828125 c 128,-1,72
 139.672851562 753.610351562 139.672851562 753.610351562 122.79296875 723.501953125 c 128,-1,73
 105.9140625 693.393554688 105.9140625 693.393554688 106.776367188 657.766601562 c 0,74,75
 108.0078125 603.53125 108.0078125 603.53125 147.397460938 565.373046875 c 2,76,-1
 312.272460938 399.701171875 l 1,77,78
 284.79296875 372.22265625 284.79296875 372.22265625 229.834960938 316.865234375 c 128,-1,79
 174.876953125 261.509765625 174.876953125 261.509765625 147.397460938 234.030273438 c 0,80,81
 123.103515625 209.736328125 123.103515625 209.736328125 114.741210938 184.647460938 c 0,82,83
 102.592773438 155.663085938 102.592773438 155.663085938 108.54296875 124.063476562 c 128,-1,84
 114.494140625 92.4638671875 114.494140625 92.4638671875 130.272460938 66.16796875 c 128,-1,85
 146.051757812 39.8720703125 146.051757812 39.8720703125 175.896484375 22.908203125 c 128,-1,86
 205.7421875 5.9443359375 205.7421875 5.9443359375 241.383789062 6.2314453125 c 0,87,88
 296.791015625 6.2314453125 296.791015625 6.2314453125 335.37109375 46.056640625 c 2,89,-1
 501.041992188 211.727539062 l 1,90,-1
 665.916992188 46.056640625 l 2,91,92
 676.26953125 35.7041015625 676.26953125 35.7041015625 685.829101562 29.330078125 c 0,93,94
 713.291015625 10.1357421875 713.291015625 10.1357421875 749.961914062 8.3134765625 c 128,-1,95
 786.6328125 6.4912109375 786.6328125 6.4912109375 818.904296875 20.0673828125 c 128,-1,96
 851.174804688 33.6435546875 851.174804688 33.6435546875 873.270507812 66.134765625 c 128,-1,97
 895.365234375 98.625 895.365234375 98.625 894.51171875 142.432617188 c 0,98,99
 893.278320312 195.438476562 893.278320312 195.438476562 854.686523438 234.030273438 c 2,100,-1
 689.015625 399.701171875 l 1,101,102
 707.608398438 418.293945312 707.608398438 418.293945312 741.498046875 452.360351562 c 128,-1,103
 775.38671875 486.426757812 775.38671875 486.426757812 803.266601562 514.306640625 c 128,-1,104
 831.146484375 542.186523438 831.146484375 542.186523438 856.279296875 566.965820312 c 0,105,106
 863.845703125 574.53125 863.845703125 574.53125 869.8203125 582.895507812 c 0,107,108
 889.72265625 610.407226562 889.72265625 610.407226562 891.522460938 647.147460938 c 128,-1,109
 893.321289062 683.888671875 893.321289062 683.888671875 879.555664062 716 c 128,-1,110
 865.790039062 748.112304688 865.790039062 748.112304688 834.721679688 770.75390625 c 128,-1,111
 803.653320312 793.395507812 803.653320312 793.395507812 763.08984375 793.966796875 c 2,112,-1
 757.513671875 793.966796875 l 2,61,62
EndSplineSet
EndChar

StartChar: Ccircumflex
Encoding: 264 264 15
Width: 1000
VWidth: 1100
GlyphClass: 2
LayerCount: 2
Fore
SplineSet
897.208007812 899.646484375 m 2,0,1
 938.819335938 897.234375 938.819335938 897.234375 969.671875 867.805664062 c 128,-1,2
 1000.52441406 838.376953125 1000.52441406 838.376953125 1005.23535156 794.796875 c 0,3,4
 1008.96289062 762.607421875 1008.96289062 762.607421875 1000.5078125 724.938476562 c 128,-1,5
 992.052734375 687.268554688 992.052734375 687.268554688 982.232421875 664.034179688 c 128,-1,6
 972.412109375 640.798828125 972.412109375 640.798828125 952.736328125 599.921875 c 0,7,8
 947.451171875 588.940429688 947.451171875 588.940429688 944.8671875 583.5078125 c 0,9,10
 796.08203125 267.170898438 796.08203125 267.170898438 616.813476562 56.080078125 c 0,11,12
 559 -11.7255859375 559 -11.7255859375 500.78125 -53.2275390625 c 128,-1,13
 442.563476562 -94.73046875 442.563476562 -94.73046875 373.751953125 -99.6064453125 c 0,14,15
 313.2578125 -103.6015625 313.2578125 -103.6015625 256.639648438 -69.783203125 c 128,-1,16
 200.021484375 -35.9658203125 200.021484375 -35.9658203125 158.491210938 21.923828125 c 0,17,18
 76.7314453125 136.864257812 76.7314453125 136.864257812 21.8681640625 269.751953125 c 0,19,20
 6.0205078125 308.438476562 6.0205078125 308.438476562 -1.3623046875 339.359375 c 128,-1,21
 -8.74609375 370.28125 -8.74609375 370.28125 -4.4130859375 408.78515625 c 128,-1,22
 -0.0810546875 447.290039062 -0.0810546875 447.290039062 22.6630859375 477.86328125 c 0,23,24
 65.9970703125 534.049804688 65.9970703125 534.049804688 145.682617188 528.8984375 c 128,-1,25
 225.369140625 523.747070312 225.369140625 523.747070312 291.9375 461.977539062 c 0,26,27
 309.8828125 445.177734375 309.8828125 445.177734375 342.29296875 404.813476562 c 128,-1,28
 374.703125 364.450195312 374.703125 364.450195312 394.404296875 346.80078125 c 1,29,30
 419.861328125 364.317382812 419.861328125 364.317382812 439.680664062 385.72265625 c 0,31,32
 493.544921875 442.579101562 493.544921875 442.579101562 550.866210938 526.858398438 c 128,-1,33
 608.188476562 611.138671875 608.188476562 611.138671875 665.815429688 696.553710938 c 128,-1,34
 723.443359375 781.96875 723.443359375 781.96875 776.471679688 839.278320312 c 0,35,36
 829.870117188 895.64453125 829.870117188 895.64453125 882.91015625 899.646484375 c 1,37,-1
 897.208007812 899.646484375 l 2,0,1
891.6484375 794.002929688 m 0,38,39
 885.499023438 793.775390625 885.499023438 793.775390625 879.715820312 791.19140625 c 128,-1,40
 873.931640625 788.608398438 873.931640625 788.608398438 867.37890625 782.249023438 c 128,-1,41
 860.825195312 775.888671875 860.825195312 775.888671875 857.232421875 771.950195312 c 128,-1,42
 853.639648438 768.01171875 853.639648438 768.01171875 845.658203125 757.860351562 c 128,-1,43
 837.677734375 747.708984375 837.677734375 747.708984375 835.250976562 744.754882812 c 0,44,45
 790.364257812 689.927734375 790.364257812 689.927734375 731.493164062 599.793945312 c 128,-1,46
 672.622070312 509.661132812 672.622070312 509.661132812 615.19140625 430.333984375 c 128,-1,47
 557.760742188 351.005859375 557.760742188 351.005859375 496.077148438 292.787109375 c 0,48,49
 396.918945312 198.7578125 396.918945312 198.7578125 318.944335938 272.928710938 c 0,50,51
 301.66015625 289.403320312 301.66015625 289.403320312 275.317382812 323.377929688 c 128,-1,52
 248.974609375 357.3515625 248.974609375 357.3515625 223.830078125 381.874023438 c 128,-1,53
 198.685546875 406.396484375 198.685546875 406.396484375 168.0234375 419.083984375 c 0,54,55
 166.83203125 419.48046875 166.83203125 419.48046875 164.051757812 420.671875 c 128,-1,56
 161.271484375 421.86328125 161.271484375 421.86328125 160.080078125 422.260742188 c 0,57,58
 155.317382812 423.849609375 155.317382812 423.849609375 152.931640625 423.849609375 c 0,59,60
 152.13671875 424.247070312 152.13671875 424.247070312 150.547851562 424.64453125 c 128,-1,61
 148.958984375 425.041992188 148.958984375 425.041992188 148.165039062 425.438476562 c 0,62,63
 131.623046875 428.747070312 131.623046875 428.747070312 116.501953125 420.381835938 c 128,-1,64
 101.379882812 412.016601562 101.379882812 412.016601562 99.7119140625 393.666015625 c 0,65,66
 97.6767578125 390.583007812 97.6767578125 390.583007812 99.2783203125 381.490234375 c 128,-1,67
 100.87890625 372.396484375 100.87890625 372.396484375 100.24609375 369.270507812 c 128,-1,68
 99.6123046875 366.14453125 99.6123046875 366.14453125 102.442382812 357.013671875 c 128,-1,69
 105.2734375 347.8828125 105.2734375 347.8828125 105.698242188 344.72265625 c 128,-1,70
 106.122070312 341.563476562 106.122070312 341.563476562 109.83984375 332.403320312 c 128,-1,71
 113.556640625 323.244140625 113.556640625 323.244140625 114.696289062 320.060546875 c 128,-1,72
 115.834960938 316.876953125 115.834960938 316.876953125 120.095703125 307.698242188 c 128,-1,73
 124.356445312 298.51953125 124.356445312 298.51953125 125.8671875 295.322265625 c 128,-1,74
 127.377929688 292.125 127.377929688 292.125 131.838867188 282.936523438 c 128,-1,75
 136.298828125 273.748046875 136.298828125 273.748046875 137.838867188 270.545898438 c 0,76,77
 164.399414062 214.66015625 164.399414062 214.66015625 178.609375 186.59375 c 128,-1,78
 192.8203125 158.52734375 192.8203125 158.52734375 220.188476562 116.203125 c 128,-1,79
 247.557617188 73.8779296875 247.557617188 73.8779296875 275.256835938 46.5478515625 c 0,80,81
 306.416015625 16.0126953125 306.416015625 16.0126953125 347.04296875 10.505859375 c 128,-1,82
 387.669921875 4.9990234375 387.669921875 4.9990234375 432.53125 29.8671875 c 0,83,84
 465.56640625 49.5400390625 465.56640625 49.5400390625 498.587890625 82.4814453125 c 128,-1,85
 531.609375 115.422851562 531.609375 115.422851562 551.551757812 141.413085938 c 128,-1,86
 571.494140625 167.403320312 571.494140625 167.403320312 603.310546875 212.560546875 c 0,87,88
 780.259765625 461.1015625 780.259765625 461.1015625 870.99609375 678.032226562 c 0,89,90
 871.90625 680.228515625 871.90625 680.228515625 878.989257812 696.755859375 c 128,-1,91
 886.071289062 713.283203125 886.071289062 713.283203125 888.033203125 718.881835938 c 128,-1,92
 889.99609375 724.481445312 889.99609375 724.481445312 894.21484375 737.361328125 c 128,-1,93
 898.43359375 750.240234375 898.43359375 750.240234375 899.63671875 760.25 c 128,-1,94
 900.840820312 770.260742188 900.840820312 770.260742188 900.385742188 780.499023438 c 2,95,-1
 900.385742188 782.881835938 l 2,96,97
 898.795898438 794.002929688 898.795898438 794.002929688 891.6484375 794.002929688 c 0,38,39
EndSplineSet
EndChar

StartChar: ccircumflex
Encoding: 265 265 16
Width: 1000
VWidth: 1100
GlyphClass: 2
LayerCount: 2
Fore
SplineSet
186.244140625 900 m 2,0,1
 200.623046875 900 200.623046875 900 210.896484375 896.918945312 c 0,2,3
 236.05859375 891.885742188 236.05859375 891.885742188 263.82421875 878.20703125 c 128,-1,4
 291.58984375 864.528320312 291.58984375 864.528320312 308.9609375 852.715820312 c 128,-1,5
 326.333007812 840.90234375 326.333007812 840.90234375 355.7265625 819.110351562 c 0,6,7
 419.989257812 771.168945312 419.989257812 771.168945312 496.705078125 703.5546875 c 1,8,9
 503.779296875 709.986328125 503.779296875 709.986328125 517.983398438 723.185546875 c 0,10,11
 548.717773438 751.749023438 548.717773438 751.749023438 566.20703125 766.309570312 c 128,-1,12
 583.696289062 780.87109375 583.696289062 780.87109375 612.555664062 800.033203125 c 128,-1,13
 641.415039062 819.196289062 641.415039062 819.196289062 669.744140625 825.744140625 c 128,-1,14
 698.07421875 832.29296875 698.07421875 832.29296875 728.586914062 828.35546875 c 0,15,16
 774.08984375 822.01953125 774.08984375 822.01953125 806.317382812 785.495117188 c 128,-1,17
 838.544921875 748.969726562 838.544921875 748.969726562 842.602539062 699.703125 c 0,18,19
 844.799804688 668.942382812 844.799804688 668.942382812 839.275390625 638.383789062 c 128,-1,20
 833.750976562 607.82421875 833.750976562 607.82421875 817.041015625 570.463867188 c 128,-1,21
 800.331054688 533.102539062 800.331054688 533.102539062 790.1640625 513.703125 c 128,-1,22
 779.998046875 494.302734375 779.998046875 494.302734375 754.780273438 449.331054688 c 1,23,-1
 753.239257812 445.479492188 l 1,24,25
 901.5625 273.143554688 901.5625 273.143554688 950.455078125 131.166992188 c 0,26,27
 962.545898438 95.296875 962.545898438 95.296875 964.125 59.5107421875 c 128,-1,28
 965.704101562 23.7236328125 965.704101562 23.7236328125 953.219726562 -11.083984375 c 128,-1,29
 940.734375 -45.890625 940.734375 -45.890625 913.4765625 -68.359375 c 0,30,31
 892.999023438 -85.603515625 892.999023438 -85.603515625 873.24609375 -93.240234375 c 128,-1,32
 853.493164062 -100.875976562 853.493164062 -100.875976562 838.665039062 -99.9736328125 c 128,-1,33
 823.836914062 -99.0712890625 823.836914062 -99.0712890625 807.165039062 -97.6337890625 c 0,34,35
 779.709960938 -94.064453125 779.709960938 -94.064453125 753.370117188 -82.724609375 c 128,-1,36
 727.029296875 -71.384765625 727.029296875 -71.384765625 699.217773438 -50.0341796875 c 128,-1,37
 671.40625 -28.6845703125 671.40625 -28.6845703125 654.545898438 -13.65625 c 128,-1,38
 637.684570312 1.3720703125 637.684570312 1.3720703125 607.638671875 30.248046875 c 0,39,40
 586.106445312 50.4619140625 586.106445312 50.4619140625 547.284179688 88.2783203125 c 128,-1,41
 508.461914062 126.095703125 508.461914062 126.095703125 495.934570312 138.100585938 c 1,42,43
 479.725585938 123.43359375 479.725585938 123.43359375 463.579101562 108.055664062 c 0,44,45
 406.571289062 55.6708984375 406.571289062 55.6708984375 377.296875 29.4775390625 c 0,46,47
 343.602539062 -1.107421875 343.602539062 -1.107421875 324.586914062 -16.634765625 c 128,-1,48
 305.572265625 -32.1630859375 305.572265625 -32.1630859375 273.107421875 -49.2099609375 c 128,-1,49
 240.641601562 -66.2578125 240.641601562 -66.2578125 210.125976562 -69.1298828125 c 0,50,51
 157.514648438 -74.390625 157.514648438 -74.390625 112.814453125 -40.3515625 c 128,-1,52
 68.1142578125 -6.3125 68.1142578125 -6.3125 47.8212890625 52.0576171875 c 128,-1,53
 27.5283203125 110.428710938 27.5283203125 110.428710938 41.4140625 171.2265625 c 0,54,55
 50.296875 209.891601562 50.296875 209.891601562 68.318359375 246.353515625 c 128,-1,56
 86.3388671875 282.815429688 86.3388671875 282.815429688 116.653320312 320.634765625 c 128,-1,57
 146.966796875 358.453125 146.966796875 358.453125 168.155273438 381.529296875 c 128,-1,58
 189.344726562 404.604492188 189.344726562 404.604492188 229.4140625 445.303710938 c 0,59,60
 237.627929688 453.646484375 237.627929688 453.646484375 241.7109375 457.805664062 c 1,61,62
 197.731445312 515.678710938 197.731445312 515.678710938 163.1328125 564.1171875 c 0,63,64
 160.219726562 568.178710938 160.219726562 568.178710938 142.711914062 592.276367188 c 128,-1,65
 125.204101562 616.373046875 125.204101562 616.373046875 120.638671875 623.076171875 c 128,-1,66
 116.073242188 629.780273438 116.073242188 629.780273438 101.888671875 651.655273438 c 128,-1,67
 87.703125 673.529296875 87.703125 673.529296875 83.4443359375 683.647460938 c 128,-1,68
 79.185546875 693.765625 79.185546875 693.765625 70.814453125 713.489257812 c 128,-1,69
 62.443359375 733.213867188 62.443359375 733.213867188 60.9833984375 746.818359375 c 128,-1,70
 59.5224609375 760.422851562 59.5224609375 760.422851562 59.4580078125 778.068359375 c 128,-1,71
 59.392578125 795.71484375 59.392578125 795.71484375 63.7548828125 812.177734375 c 0,72,73
 74.1162109375 850.166992188 74.1162109375 850.166992188 107.953125 875.083007812 c 128,-1,74
 141.791015625 900 141.791015625 900 182.392578125 900 c 2,75,-1
 186.244140625 900 l 2,0,1
181.622070312 797.540039062 m 0,76,77
 148.5703125 796.805664062 148.5703125 796.805664062 181.34765625 726.715820312 c 0,78,79
 192.24609375 703.411132812 192.24609375 703.411132812 207.043945312 681.213867188 c 0,80,81
 248.53515625 617.318359375 248.53515625 617.318359375 333.385742188 508.650390625 c 2,82,-1
 378.837890625 450.1015625 l 1,83,84
 362.547851562 433.495117188 362.547851562 433.495117188 319.797851562 391.971679688 c 128,-1,85
 277.047851562 350.448242188 277.047851562 350.448242188 254.973632812 327.458984375 c 128,-1,86
 232.900390625 304.470703125 232.900390625 304.470703125 203.9765625 266.737304688 c 128,-1,87
 175.052734375 229.00390625 175.052734375 229.00390625 157.740234375 193.567382812 c 0,88,89
 118.46484375 113.561523438 118.46484375 113.561523438 154.659179688 58.751953125 c 0,90,91
 166.026367188 41.4013671875 166.026367188 41.4013671875 187.014648438 36.603515625 c 128,-1,92
 208.002929688 31.806640625 208.002929688 31.806640625 230.92578125 43.3447265625 c 0,93,94
 252.793945312 55.3359375 252.793945312 55.3359375 295.637695312 93.4189453125 c 0,95,96
 382.84375 172.592773438 382.84375 172.592773438 469.7421875 255.967773438 c 2,97,-1
 473.59375 259.819335938 l 2,98,99
 475.233398438 261.265625 475.233398438 261.265625 478.66015625 264.514648438 c 128,-1,100
 482.0859375 267.763671875 482.0859375 267.763671875 483.418945312 268.801757812 c 128,-1,101
 484.751953125 269.840820312 484.751953125 269.840820312 487.603515625 271.62109375 c 128,-1,102
 490.455078125 273.401367188 490.455078125 273.401367188 492.443359375 273.172851562 c 128,-1,103
 494.431640625 272.944335938 494.431640625 272.944335938 497.571289062 272.3125 c 128,-1,104
 500.7109375 271.681640625 500.7109375 271.681640625 504.216796875 269.2421875 c 128,-1,105
 507.72265625 266.803710938 507.72265625 266.803710938 512.112304688 262.901367188 c 0,106,107
 545.438476562 234.296875 545.438476562 234.296875 594.829101562 181.983398438 c 128,-1,108
 644.21875 129.669921875 644.21875 129.669921875 690.0390625 87.541015625 c 128,-1,109
 735.860351562 45.4130859375 735.860351562 45.4130859375 784.0546875 17.921875 c 0,110,111
 784.955078125 17.4716796875 784.955078125 17.4716796875 788.3984375 15.4462890625 c 128,-1,112
 791.842773438 13.419921875 791.842773438 13.419921875 794.069335938 12.529296875 c 0,113,114
 795.369140625 11.6630859375 795.369140625 11.6630859375 798.376953125 10.4599609375 c 128,-1,115
 801.385742188 9.2568359375 801.385742188 9.2568359375 802.54296875 8.677734375 c 0,116,117
 804.08203125 7.908203125 804.08203125 7.908203125 808.706054688 6.3662109375 c 0,118,119
 826.42578125 0.8671875 826.42578125 0.8671875 843.69921875 11.103515625 c 128,-1,120
 860.973632812 21.33984375 860.973632812 21.33984375 862.6328125 41.8037109375 c 0,121,122
 864.067382812 59.73828125 864.067382812 59.73828125 858.33203125 81.73828125 c 128,-1,123
 852.596679688 103.73828125 852.596679688 103.73828125 846.646484375 117.16796875 c 128,-1,124
 840.6953125 130.598632812 840.6953125 130.598632812 827.965820312 156.58984375 c 0,125,126
 770.55078125 269.473632812 770.55078125 269.473632812 654.631835938 401.568359375 c 1,127,-1
 633.060546875 430.842773438 l 2,128,129
 632.518554688 434.912109375 632.518554688 434.912109375 633.940429688 440.010742188 c 128,-1,130
 635.36328125 445.109375 635.36328125 445.109375 636.983398438 448.397460938 c 128,-1,131
 638.604492188 451.685546875 638.604492188 451.685546875 642.487304688 458.499023438 c 128,-1,132
 646.37109375 465.3125 646.37109375 465.3125 647.698242188 467.8203125 c 0,133,134
 656.123046875 483.774414062 656.123046875 483.774414062 675.612304688 517.475585938 c 128,-1,135
 695.100585938 551.177734375 695.100585938 551.177734375 705.728515625 571.204101562 c 128,-1,136
 716.356445312 591.23046875 716.356445312 591.23046875 727.034179688 621.427734375 c 128,-1,137
 737.711914062 651.625 737.711914062 651.625 740.142578125 678.90234375 c 0,138,139
 741.456054688 696.626953125 741.456054688 696.626953125 734.80078125 710.844726562 c 128,-1,140
 728.145507812 725.0625 728.145507812 725.0625 713.1796875 726.666015625 c 0,141,142
 705.090820312 726.666015625 705.090820312 726.666015625 697.001953125 724.354492188 c 0,143,144
 693.921875 724.354492188 693.921875 724.354492188 692.379882812 722.814453125 c 0,145,146
 691.224609375 722.4296875 691.224609375 722.4296875 689.298828125 721.658203125 c 128,-1,147
 687.373046875 720.888671875 687.373046875 720.888671875 686.216796875 720.502929688 c 128,-1,148
 685.061523438 720.118164062 685.061523438 720.118164062 682.750976562 718.961914062 c 128,-1,149
 680.439453125 717.806640625 680.439453125 717.806640625 679.283203125 717.421875 c 0,150,151
 651.396484375 702.961914062 651.396484375 702.961914062 624.508789062 680.78515625 c 128,-1,152
 597.622070312 658.608398438 597.622070312 658.608398438 564.83203125 626.689453125 c 128,-1,153
 532.041992188 594.770507812 532.041992188 594.770507812 515.193359375 580.294921875 c 0,154,155
 513.654296875 579.525390625 513.654296875 579.525390625 511.341796875 577.213867188 c 0,156,157
 499.530273438 567.369140625 499.530273438 567.369140625 495.1640625 570.280273438 c 0,158,159
 477.486328125 583.854492188 477.486328125 583.854492188 384.88671875 663.31640625 c 128,-1,160
 292.288085938 742.77734375 292.288085938 742.77734375 234.778320312 776.740234375 c 0,161,162
 199.578125 797.540039062 199.578125 797.540039062 181.622070312 797.540039062 c 0,76,77
EndSplineSet
EndChar

StartChar: Cdotaccent
Encoding: 266 266 17
Width: 1000
VWidth: 1100
GlyphClass: 2
LayerCount: 2
Fore
SplineSet
1127.40625 899.98046875 m 0,0,1
 1215.44335938 898.766601562 1215.44335938 898.766601562 1280.21582031 830.885742188 c 128,-1,2
 1344.98828125 763.005859375 1344.98828125 763.005859375 1338.51269531 672.94140625 c 0,3,4
 1332.27929688 594.388671875 1332.27929688 594.388671875 1277.17285156 536.717773438 c 0,5,6
 1169.62988281 427.831054688 1169.62988281 427.831054688 971.024414062 230.046875 c 128,-1,7
 772.41796875 32.2626953125 772.41796875 32.2626953125 700.4140625 -40.0400390625 c 0,8,9
 642.064453125 -97.1748046875 642.064453125 -97.1748046875 556.224609375 -99.88671875 c 128,-1,10
 470.383789062 -102.599609375 470.383789062 -102.599609375 404.865234375 -45.6171875 c 1,11,-1
 399.288085938 -40.0400390625 l 2,12,13
 370.750976562 -11.5029296875 370.750976562 -11.5029296875 247.99609375 112.114257812 c 128,-1,14
 125.2421875 235.732421875 125.2421875 235.732421875 58.33203125 301.712890625 c 0,15,16
 18.951171875 342.275390625 18.951171875 342.275390625 5.51953125 400.036132812 c 128,-1,17
 -7.912109375 457.797851562 -7.912109375 457.797851562 8.91015625 515.93359375 c 128,-1,18
 25.732421875 574.069335938 25.732421875 574.069335938 70.28125 613.194335938 c 0,19,20
 128.439453125 664.342773438 128.439453125 664.342773438 212.677734375 662.884765625 c 128,-1,21
 296.916992188 661.42578125 296.916992188 661.42578125 356.270507812 606.821289062 c 0,22,23
 357.06640625 606.025390625 357.06640625 606.025390625 359.05859375 604.432617188 c 128,-1,24
 361.049804688 602.838867188 361.049804688 602.838867188 361.846679688 602.041992188 c 2,25,-1
 549.8515625 413.241210938 l 1,26,-1
 972.860351562 836.25 l 2,27,28
 1037.83496094 901.224609375 1037.83496094 901.224609375 1127.40625 899.98046875 c 0,0,1
1121.83007812 794.029296875 m 0,29,30
 1076.11523438 791.338867188 1076.11523438 791.338867188 1048.54003906 761.3671875 c 2,31,-1
 549.8515625 263.474609375 l 1,32,33
 520.653320312 292.672851562 520.653320312 292.672851562 467.071289062 346.608398438 c 128,-1,34
 413.490234375 400.543945312 413.490234375 400.543945312 369.477539062 444.556640625 c 128,-1,35
 325.465820312 488.568359375 325.465820312 488.568359375 286.166992188 527.159179688 c 0,36,37
 283.77734375 529.548828125 283.77734375 529.548828125 277.404296875 534.328125 c 0,38,39
 255.141601562 551.318359375 255.141601562 551.318359375 225.4453125 554.360351562 c 128,-1,40
 195.75 557.40234375 195.75 557.40234375 169.501953125 547.8671875 c 128,-1,41
 143.254882812 538.333007812 143.254882812 538.333007812 124.099609375 514.653320312 c 128,-1,42
 104.9453125 490.97265625 104.9453125 490.97265625 102.942382812 458.6484375 c 0,43,44
 100.392578125 408.91015625 100.392578125 408.91015625 135.604492188 375.002929688 c 0,45,46
 163.84375 346.763671875 163.84375 346.763671875 286.177734375 223.56640625 c 128,-1,47
 408.51171875 100.370117188 408.51171875 100.370117188 474.967773438 34.8427734375 c 0,48,49
 504.530273438 6.4873046875 504.530273438 6.4873046875 548.955078125 6.1640625 c 128,-1,50
 593.379882812 5.8408203125 593.379882812 5.8408203125 624.734375 34.8427734375 c 0,51,52
 915.104492188 320.43359375 915.104492188 320.43359375 1200.69628906 610.8046875 c 0,53,54
 1222.47753906 633.794921875 1222.47753906 633.794921875 1229.47460938 665.671875 c 128,-1,55
 1236.47167969 697.548828125 1236.47167969 697.548828125 1225.39160156 727.112304688 c 0,56,57
 1212.94335938 757.34375 1212.94335938 757.34375 1184.25390625 775.686523438 c 128,-1,58
 1155.56445312 794.029296875 1155.56445312 794.029296875 1121.83007812 794.029296875 c 0,29,30
EndSplineSet
EndChar

StartChar: cdotaccent
Encoding: 267 267 18
Width: 1000
VWidth: 1100
GlyphClass: 2
LayerCount: 2
Fore
SplineSet
216.744140625 899.805664062 m 2,0,1
 303.044921875 898.5546875 303.044921875 898.5546875 365.383789062 836.215820312 c 2,2,-1
 501.305664062 700.293945312 l 1,3,-1
 637.227539062 837.010742188 l 2,4,5
 695.053710938 893.580078125 695.053710938 893.580078125 774.739257812 899.805664062 c 0,6,7
 829.025390625 902.999023438 829.025390625 902.999023438 877.27734375 880.728515625 c 0,8,9
 950.481445312 847.454101562 950.481445312 847.454101562 983.512695312 766.979492188 c 128,-1,10
 1016.54492188 686.504882812 1016.54492188 686.504882812 985.37890625 608.884765625 c 0,11,12
 967.017578125 564.29296875 967.017578125 564.29296875 938.481445312 535.756835938 c 2,13,-1
 802.559570312 399.834960938 l 1,14,-1
 938.481445312 263.913085938 l 1,15,16
 973.482421875 220.921875 973.482421875 220.921875 986.96875 186.015625 c 0,17,18
 1004.49023438 132.572265625 1004.49023438 132.572265625 996.860351562 79.6806640625 c 128,-1,19
 989.23046875 26.7890625 989.23046875 26.7890625 954.291015625 -19.236328125 c 128,-1,20
 919.3515625 -65.2607421875 919.3515625 -65.2607421875 867.73828125 -85.828125 c 0,21,22
 809.987304688 -108.555664062 809.987304688 -108.555664062 745.92578125 -95.3662109375 c 128,-1,23
 681.864257812 -82.1767578125 681.864257812 -82.1767578125 637.227539062 -38.1357421875 c 2,24,-1
 501.305664062 98.5810546875 l 1,25,-1
 364.588867188 -38.1357421875 l 2,26,27
 327.95703125 -69.1640625 327.95703125 -69.1640625 293.05078125 -83.443359375 c 0,28,29
 261.017578125 -96.5302734375 261.017578125 -96.5302734375 224.711914062 -97.3837890625 c 128,-1,30
 188.405273438 -98.2373046875 188.405273438 -98.2373046875 154.493164062 -88.3154296875 c 128,-1,31
 120.58203125 -78.392578125 120.58203125 -78.392578125 90.13671875 -57.44921875 c 128,-1,32
 59.6904296875 -36.5048828125 59.6904296875 -36.5048828125 38.2666015625 -8.416015625 c 128,-1,33
 16.8427734375 19.671875 16.8427734375 19.671875 6.697265625 57.732421875 c 128,-1,34
 -3.447265625 95.79296875 -3.447265625 95.79296875 2.1298828125 137.529296875 c 0,35,36
 11.9619140625 210.033203125 11.9619140625 210.033203125 63.3349609375 263.913085938 c 2,37,-1
 199.256835938 399.834960938 l 1,38,-1
 63.3349609375 535.756835938 l 2,39,40
 32.3056640625 571.59375 32.3056640625 571.59375 17.232421875 606.5 c 0,41,42
 0.318359375 647.168945312 0.318359375 647.168945312 0.9375 693.338867188 c 128,-1,43
 1.5576171875 739.508789062 1.5576171875 739.508789062 20.412109375 778.985351562 c 0,44,45
 46.0654296875 832.6796875 46.0654296875 832.6796875 98.5400390625 865.944335938 c 128,-1,46
 151.014648438 899.209960938 151.014648438 899.209960938 211.1796875 899.805664062 c 2,47,-1
 216.744140625 899.805664062 l 2,0,1
785.072265625 794.087890625 m 0,48,49
 742 791.553710938 742 791.553710938 711.9453125 761.499023438 c 2,50,-1
 501.305664062 550.859375 l 1,51,52
 477.810546875 574.354492188 477.810546875 574.354492188 403.265625 648.274414062 c 128,-1,53
 328.721679688 722.194335938 328.721679688 722.194335938 288.282226562 763.088867188 c 0,54,55
 285.599609375 765.770507812 285.599609375 765.770507812 283.4140625 767.55859375 c 128,-1,56
 281.227539062 769.34765625 281.227539062 769.34765625 280.333007812 770.2421875 c 0,57,58
 241.279296875 800.756835938 241.279296875 800.756835938 187.43359375 787.927734375 c 128,-1,59
 133.586914062 775.099609375 133.586914062 775.099609375 114.206054688 728.114257812 c 0,60,61
 102.090820312 698.48828125 102.090820312 698.48828125 109.23828125 666.015625 c 128,-1,62
 116.384765625 633.54296875 116.384765625 633.54296875 138.846679688 610.474609375 c 2,63,-1
 349.486328125 399.834960938 l 1,64,65
 325.875976562 376.224609375 325.875976562 376.224609375 282.688476562 333.212890625 c 128,-1,66
 239.5 290.202148438 239.5 290.202148438 204.3203125 255.022460938 c 128,-1,67
 169.139648438 219.841796875 169.139648438 219.841796875 138.051757812 188.400390625 c 0,68,69
 135.66796875 186.016601562 135.66796875 186.016601562 130.8984375 179.657226562 c 0,70,71
 100.98828125 141.225585938 100.98828125 141.225585938 112.41796875 88.4462890625 c 128,-1,72
 123.84765625 35.66796875 123.84765625 35.66796875 169.051757812 15.1201171875 c 0,73,74
 198.478515625 1.6181640625 198.478515625 1.6181640625 232.442382812 8.0654296875 c 128,-1,75
 266.40625 14.51171875 266.40625 14.51171875 289.87109375 37.3759765625 c 2,76,-1
 501.305664062 248.810546875 l 1,77,-1
 711.9453125 37.3759765625 l 2,78,79
 714.131835938 35.189453125 714.131835938 35.189453125 716.119140625 33.599609375 c 128,-1,80
 718.106445312 32.009765625 718.106445312 32.009765625 719.098632812 31.017578125 c 0,81,82
 744.62890625 10.986328125 744.62890625 10.986328125 779.27734375 8.787109375 c 128,-1,83
 813.926757812 6.587890625 813.926757812 6.587890625 844.654296875 23.572265625 c 128,-1,84
 875.381835938 40.5576171875 875.381835938 40.5576171875 888.405273438 72.3505859375 c 0,85,86
 899.928710938 102.568359375 899.928710938 102.568359375 892.677734375 134.349609375 c 128,-1,87
 885.426757812 166.130859375 885.426757812 166.130859375 862.969726562 189.1953125 c 2,88,-1
 652.330078125 399.834960938 l 1,89,90
 675.940429688 423.4453125 675.940429688 423.4453125 719.127929688 466.45703125 c 128,-1,91
 762.31640625 509.467773438 762.31640625 509.467773438 797.49609375 544.647460938 c 128,-1,92
 832.676757812 579.828125 832.676757812 579.828125 863.764648438 611.26953125 c 0,93,94
 866.943359375 614.448242188 866.943359375 614.448242188 871.712890625 620.807617188 c 0,95,96
 889.43359375 644.638671875 889.43359375 644.638671875 893.870117188 674.163085938 c 128,-1,97
 898.306640625 703.686523438 898.306640625 703.686523438 886.815429688 730.499023438 c 0,98,99
 873.77734375 759.538085938 873.77734375 759.538085938 845.918945312 776.8125 c 128,-1,100
 818.061523438 794.087890625 818.061523438 794.087890625 785.072265625 794.087890625 c 0,48,49
EndSplineSet
EndChar

StartChar: Tcaron
Encoding: 356 356 19
Width: 1000
VWidth: 200
GlyphClass: 2
LayerCount: 2
Fore
SplineSet
240.124023438 806.630859375 m 0,0,1
 300.577148438 805.37109375 300.577148438 805.37109375 342.479492188 762.197265625 c 0,2,3
 370.268554688 730.396484375 370.268554688 730.396484375 378.978515625 698.720703125 c 0,4,5
 382.259765625 697.783203125 382.259765625 697.783203125 384.783203125 696.731445312 c 128,-1,6
 387.306640625 695.680664062 387.306640625 695.680664062 387.70703125 695.546875 c 0,7,8
 390.870117188 694.642578125 390.870117188 694.642578125 403.576171875 689.19921875 c 0,9,10
 413.09765625 684.967773438 413.09765625 684.967773438 424.404296875 676.833984375 c 128,-1,11
 435.7109375 668.701171875 435.7109375 668.701171875 442.256835938 662.684570312 c 2,12,-1
 448.802734375 656.666992188 l 2,13,14
 449 656.37109375 449 656.37109375 451.380859375 653.395507812 c 128,-1,15
 453.760742188 650.418945312 453.760742188 650.418945312 457.530273438 644.765625 c 0,16,17
 484.513671875 603.434570312 484.513671875 603.434570312 487.681640625 567.006835938 c 1,18,-1
 499.583984375 567.006835938 l 1,19,-1
 513.866210938 567.80078125 l 1,20,21
 517.623046875 619.149414062 517.623046875 619.149414062 551.158203125 655.080078125 c 0,22,23
 564.1171875 668.0390625 564.1171875 668.0390625 569.408203125 671.743164062 c 0,24,25
 577.87109375 678.08984375 577.87109375 678.08984375 580.516601562 679.677734375 c 0,26,27
 595.659179688 688.33203125 595.659179688 688.33203125 597.97265625 689.19921875 c 2,28,-1
 621.775390625 699.513671875 l 1,29,30
 632.919921875 732.087890625 632.919921875 732.087890625 651.133789062 753.46875 c 0,31,32
 691.555664062 802.337890625 691.555664062 802.337890625 761.522460938 803.654296875 c 128,-1,33
 831.489257812 804.971679688 831.489257812 804.971679688 874.887695312 755.055664062 c 0,34,35
 953.4296875 662.3046875 953.4296875 662.3046875 983.99609375 537.938476562 c 128,-1,36
 1014.5625 413.573242188 1014.5625 413.573242188 988.741210938 283.71875 c 128,-1,37
 962.918945312 153.864257812 962.918945312 153.864257812 882.029296875 52.8486328125 c 0,38,39
 849.918945312 12.86328125 849.918945312 12.86328125 800.204101562 -1.0078125 c 128,-1,40
 750.489257812 -14.8779296875 750.489257812 -14.8779296875 703.501953125 5.2412109375 c 0,41,42
 677.764648438 16.2705078125 677.764648438 16.2705078125 658.274414062 36.9794921875 c 0,43,44
 630.486328125 68.7802734375 630.486328125 68.7802734375 621.775390625 100.455078125 c 1,45,46
 614.634765625 102.8359375 614.634765625 102.8359375 610.66796875 104.422851562 c 0,47,48
 580.342773438 115.338867188 580.342773438 115.338867188 555.918945312 138.541015625 c 0,49,50
 551.934570312 140.948242188 551.934570312 140.948242188 543.223632812 154.41015625 c 0,51,52
 516.240234375 195.741210938 516.240234375 195.741210938 513.072265625 232.168945312 c 1,53,-1
 486.888671875 231.375976562 l 1,54,55
 483.130859375 180.026367188 483.130859375 180.026367188 449.595703125 144.095703125 c 0,56,57
 436.633789062 131.133789062 436.633789062 131.133789062 431.346679688 127.432617188 c 0,58,59
 422.883789062 121.0859375 422.883789062 121.0859375 420.23828125 119.498046875 c 0,60,61
 402.215820312 107.482421875 402.215820312 107.482421875 379.772460938 101.249023438 c 1,62,63
 369.422851562 69.46875 369.422851562 69.46875 352.000976562 48.087890625 c 0,64,65
 311.5859375 -1.9794921875 311.5859375 -1.9794921875 241.4140625 -4.2802734375 c 128,-1,66
 171.241210938 -6.5810546875 171.241210938 -6.5810546875 126.66015625 43.3271484375 c 0,67,68
 46.4775390625 136.086914062 46.4775390625 136.086914062 15.8515625 261.323242188 c 128,-1,69
 -14.7744140625 386.559570312 -14.7744140625 386.559570312 11.59765625 516.165039062 c 128,-1,70
 37.9697265625 645.771484375 37.9697265625 645.771484375 118.725585938 746.328125 c 0,71,72
 141.173828125 774.237304688 141.173828125 774.237304688 173.108398438 790.434570312 c 128,-1,73
 205.04296875 806.630859375 205.04296875 806.630859375 240.124023438 806.630859375 c 0,0,1
762.217773438 700.307617188 m 0,74,75
 739.3828125 699.690429688 739.3828125 699.690429688 727.603515625 677.495117188 c 128,-1,76
 715.823242188 655.30078125 715.823242188 655.30078125 730.479492188 634.450195312 c 0,77,78
 808.194335938 535.484375 808.194335938 535.484375 812.701171875 408.216796875 c 128,-1,79
 817.20703125 280.948242188 817.20703125 280.948242188 740.793945312 176.626953125 c 0,80,81
 734.025390625 167.602539062 734.025390625 167.602539062 729.78125 157.431640625 c 128,-1,82
 725.536132812 147.259765625 725.536132812 147.259765625 724.395507812 136.424804688 c 128,-1,83
 723.255859375 125.58984375 723.255859375 125.58984375 729.112304688 116.09765625 c 128,-1,84
 734.96875 106.604492188 734.96875 106.604492188 747.935546875 101.249023438 c 0,85,86
 781.276367188 87.357421875 781.276367188 87.357421875 823.313476562 152.030273438 c 0,87,88
 900.9140625 268.9609375 900.9140625 268.9609375 894.426757812 418.630859375 c 128,-1,89
 887.940429688 568.30078125 887.940429688 568.30078125 799.509765625 680.470703125 c 0,90,91
 782.506835938 700.307617188 782.506835938 700.307617188 762.217773438 700.307617188 c 0,74,75
237.744140625 701.100585938 m 0,92,93
 225.58203125 700.732421875 225.58203125 700.732421875 213.500976562 691.219726562 c 128,-1,94
 201.419921875 681.706054688 201.419921875 681.706054688 195.3359375 673.424804688 c 128,-1,95
 189.252929688 665.143554688 189.252929688 665.143554688 177.44140625 647.145507812 c 0,96,97
 99.53515625 529.848632812 99.53515625 529.848632812 106.328125 380.248046875 c 128,-1,98
 113.12109375 230.646484375 113.12109375 230.646484375 201.245117188 118.705078125 c 0,99,100
 212.640625 104.166015625 212.640625 104.166015625 233.211914062 101.827148438 c 128,-1,101
 253.783203125 99.48828125 253.783203125 99.48828125 268.194335938 112.30859375 c 128,-1,102
 282.606445312 125.129882812 282.606445312 125.129882812 277.416015625 148.856445312 c 0,103,104
 276.071289062 156.252929688 276.071289062 156.252929688 263.927734375 171.866210938 c 0,105,106
 189.448242188 267.368164062 189.448242188 267.368164062 187.557617188 395.125 c 128,-1,107
 185.666992188 522.880859375 185.666992188 522.880859375 259.959960938 622.548828125 c 0,108,109
 277.544921875 643.336914062 277.544921875 643.336914062 277.217773438 665.59375 c 128,-1,110
 276.890625 687.850585938 276.890625 687.850585938 252.819335938 697.926757812 c 0,111,112
 246.47265625 701.100585938 246.47265625 701.100585938 237.744140625 701.100585938 c 0,92,93
659.068359375 597.158203125 m 0,113,114
 653.42578125 597.158203125 653.42578125 597.158203125 646.28515625 594.182617188 c 128,-1,115
 639.143554688 591.20703125 639.143554688 591.20703125 634.82421875 588.232421875 c 2,116,-1
 630.50390625 585.256835938 l 2,117,118
 619.911132812 574.075195312 619.911132812 574.075195312 619.59375 557.881835938 c 128,-1,119
 619.276367188 541.688476562 619.276367188 541.688476562 628.916992188 528.127929688 c 0,120,121
 669.55859375 471.8359375 669.55859375 471.8359375 669.0859375 398.497070312 c 128,-1,122
 668.612304688 325.157226562 668.612304688 325.157226562 626.536132812 267.081054688 c 0,123,124
 623.064453125 262.220703125 623.064453125 262.220703125 620.188476562 253.592773438 c 0,125,126
 613.697265625 231.51953125 613.697265625 231.51953125 631.296875 213.919921875 c 0,127,128
 636.01171875 211.349609375 636.01171875 211.349609375 643.606445312 208.40625 c 128,-1,129
 651.201171875 205.462890625 651.201171875 205.462890625 668.447265625 207.001953125 c 128,-1,130
 685.693359375 208.541992188 685.693359375 208.541992188 695.567382812 222.647460938 c 0,131,132
 750.771484375 299.375 750.771484375 299.375 750.61328125 400.083984375 c 128,-1,133
 750.455078125 500.791992188 750.455078125 500.791992188 693.186523438 580.49609375 c 0,134,135
 680.369140625 597.158203125 680.369140625 597.158203125 659.068359375 597.158203125 c 0,113,114
340.892578125 597.158203125 m 0,136,137
 307.849609375 597.158203125 307.849609375 597.158203125 276.623046875 528.127929688 c 0,138,139
 242.913085938 454.635742188 242.913085938 454.635742188 251.133789062 370.7265625 c 128,-1,140
 259.353515625 286.817382812 259.353515625 286.817382812 305.98046875 221.060546875 c 0,141,142
 316.344726562 205.8203125 316.344726562 205.8203125 335.93359375 203.208007812 c 128,-1,143
 355.522460938 200.595703125 355.522460938 200.595703125 369.45703125 213.919921875 c 0,144,145
 370.358398438 215.115234375 370.358398438 215.115234375 371.739257812 217.259765625 c 128,-1,146
 373.120117188 219.404296875 373.120117188 219.404296875 375.877929688 225.966796875 c 128,-1,147
 378.635742188 232.528320312 378.635742188 232.528320312 379.69921875 239.006835938 c 128,-1,148
 380.762695312 245.484375 380.762695312 245.484375 379.077148438 254.377929688 c 128,-1,149
 377.391601562 263.272460938 377.391601562 263.272460938 371.837890625 271.047851562 c 0,150,151
 331.196289062 327.33984375 331.196289062 327.33984375 331.668945312 400.678710938 c 128,-1,152
 332.142578125 474.017578125 332.142578125 474.017578125 374.217773438 532.094726562 c 0,153,154
 377.688476562 536.954101562 377.688476562 536.954101562 380.565429688 545.583984375 c 0,155,156
 387.05859375 567.655273438 387.05859375 567.655273438 369.45703125 585.256835938 c 0,157,158
 357.5234375 597.158203125 357.5234375 597.158203125 340.892578125 597.158203125 c 0,136,137
498.790039062 461.477539062 m 2,159,160
 475.943359375 461.08984375 475.943359375 461.08984375 458.588867188 442.228515625 c 128,-1,161
 441.234375 423.3671875 441.234375 423.3671875 440.07421875 400.05859375 c 128,-1,162
 438.915039062 376.749023438 438.915039062 376.749023438 455.943359375 355.948242188 c 0,163,164
 476.625 334.181640625 476.625 334.181640625 510.890625 340.177734375 c 128,-1,165
 545.15625 346.174804688 545.15625 346.174804688 557.505859375 374.991210938 c 0,166,167
 569.717773438 402.46875 569.717773438 402.46875 552.127929688 431.391601562 c 128,-1,168
 534.537109375 460.314453125 534.537109375 460.314453125 501.963867188 461.477539062 c 2,169,-1
 498.790039062 461.477539062 l 2,159,160
EndSplineSet
EndChar

StartChar: uni01D4
Encoding: 468 468 20
Width: 1000
VWidth: 1100
LayerCount: 2
Fore
SplineSet
559.791992188 900 m 1,0,1
 629.768554688 898.750976562 629.768554688 898.750976562 668.713867188 837.190429688 c 2,2,-1
 1097.24804688 94.611328125 l 2,3,4
 1113.37695312 66.0830078125 1113.37695312 66.0830078125 1110.95019531 33.23046875 c 128,-1,5
 1108.52246094 0.3779296875 1108.52246094 0.3779296875 1095.359375 -27.92578125 c 128,-1,6
 1082.19628906 -56.23046875 1082.19628906 -56.23046875 1054.87402344 -76.11328125 c 128,-1,7
 1027.55175781 -95.9970703125 1027.55175781 -95.9970703125 993.890625 -98.5859375 c 2,8,-1
 985.940429688 -98.5859375 l 2,9,10
 859.084960938 -100 859.084960938 -100 716.181640625 -100 c 128,-1,11
 573.278320312 -100 573.278320312 -100 398.631835938 -99.29296875 c 128,-1,12
 223.984375 -98.5859375 223.984375 -98.5859375 128.873046875 -98.5859375 c 0,13,14
 79.744140625 -98.5859375 79.744140625 -98.5859375 41.0966796875 -61.3994140625 c 128,-1,15
 2.44921875 -24.212890625 2.44921875 -24.212890625 0.0751953125 26.2373046875 c 0,16,17
 -1.107421875 61.66796875 -1.107421875 61.66796875 15.9755859375 94.611328125 c 2,18,-1
 443.713867188 835.600585938 l 2,19,20
 460.87890625 865.196289062 460.87890625 865.196289062 490.922851562 882.297851562 c 128,-1,21
 520.965820312 899.399414062 520.965820312 899.399414062 555.81640625 900 c 2,22,-1
 559.791992188 900 l 1,0,1
557.407226562 794.2578125 m 0,23,24
 552.106445312 794.2578125 552.106445312 794.2578125 546.541015625 791.276367188 c 128,-1,25
 540.975585938 788.294921875 540.975585938 788.294921875 538.060546875 785.313476562 c 2,26,-1
 535.145507812 782.33203125 l 1,27,-1
 108.997070312 43.728515625 l 2,28,29
 103.018554688 32.369140625 103.018554688 32.369140625 110.098632812 19.76171875 c 128,-1,30
 117.178710938 7.1552734375 117.178710938 7.1552734375 129.66796875 7.1552734375 c 0,31,32
 751.28125 1.947265625 751.28125 1.947265625 984.350585938 7.1552734375 c 0,33,34
 996.348632812 7.755859375 996.348632812 7.755859375 1003.35253906 19.712890625 c 128,-1,35
 1010.35644531 31.6708984375 1010.35644531 31.6708984375 1005.02148438 42.9326171875 c 2,36,-1
 578.078125 782.33203125 l 2,37,38
 570.126953125 794.2578125 570.126953125 794.2578125 557.407226562 794.2578125 c 0,23,24
603.51953125 115.283203125 m 1,39,40
 601.771484375 105.376953125 601.771484375 105.376953125 593.935546875 99.1083984375 c 128,-1,41
 586.098632812 92.8388671875 586.098632812 92.8388671875 575.693359375 92.2265625 c 0,42,43
 573.442382812 92.2265625 573.442382812 92.2265625 568.881835938 92.197265625 c 0,44,45
 555.420898438 92.109375 555.420898438 92.109375 548.376953125 92.5029296875 c 128,-1,46
 541.333984375 92.8955078125 541.333984375 92.8955078125 531.487304688 94.81640625 c 128,-1,47
 521.641601562 96.7373046875 521.641601562 96.7373046875 516.456054688 101.830078125 c 128,-1,48
 511.270507812 106.923828125 511.270507812 106.923828125 509.703125 115.283203125 c 2,49,-1
 509.703125 152.650390625 l 2,50,51
 509.703125 165.541992188 509.703125 165.541992188 517.512695312 175.103515625 c 128,-1,52
 525.321289062 184.666015625 525.321289062 184.666015625 537.530273438 185.247070312 c 2,53,-1
 575.693359375 185.247070312 l 2,54,55
 586.541015625 184.609375 586.541015625 184.609375 595.030273438 177.081054688 c 128,-1,56
 603.51953125 169.552734375 603.51953125 169.552734375 603.51953125 158.215820312 c 2,57,-1
 603.51953125 115.283203125 l 1,39,40
575.693359375 550.176757812 m 2,58,59
 586.38671875 549.547851562 586.38671875 549.547851562 594.666992188 542.063476562 c 128,-1,60
 602.948242188 534.578125 602.948242188 534.578125 603.51953125 523.14453125 c 0,61,62
 604.708007812 403.091796875 604.708007812 403.091796875 603.51953125 283.0390625 c 0,63,64
 602.919921875 272.243164062 602.919921875 272.243164062 594.939453125 264.421875 c 128,-1,65
 586.958007812 256.600585938 586.958007812 256.600585938 575.693359375 256.006835938 c 0,66,67
 571.6796875 256.006835938 571.6796875 256.006835938 559.516601562 255.375976562 c 128,-1,68
 547.353515625 254.745117188 547.353515625 254.745117188 539.926757812 255.313476562 c 128,-1,69
 532.499023438 255.880859375 532.499023438 255.880859375 526.399414062 258.392578125 c 0,70,71
 509.703125 265.348632812 509.703125 265.348632812 509.703125 283.0390625 c 0,72,73
 508.514648438 403.091796875 508.514648438 403.091796875 509.703125 523.14453125 c 0,74,75
 510.303710938 533.94140625 510.303710938 533.94140625 518.284179688 541.762695312 c 128,-1,76
 526.265625 549.583984375 526.265625 549.583984375 537.530273438 550.176757812 c 2,77,-1
 575.693359375 550.176757812 l 2,58,59
EndSplineSet
EndChar

StartChar: uni01D5
Encoding: 469 469 21
Width: 1000
VWidth: 1100
LayerCount: 2
Fore
SplineSet
533.38671875 900 m 2,0,1
 592.94921875 899.392578125 592.94921875 899.392578125 638.631835938 855.479492188 c 128,-1,2
 684.314453125 811.56640625 684.314453125 811.56640625 685.478515625 748.700195312 c 2,3,-1
 685.478515625 335.9921875 l 2,4,5
 685.478515625 273.887695312 685.478515625 273.887695312 641.118164062 228.259765625 c 1,6,7
 647.458984375 221.918945312 647.458984375 221.918945312 649.83203125 218.75390625 c 0,8,9
 685.478515625 176.962890625 685.478515625 176.962890625 685.478515625 121.3203125 c 0,10,11
 687.482421875 94.919921875 687.482421875 94.919921875 686.46875 61.1171875 c 128,-1,12
 685.454101562 27.314453125 685.454101562 27.314453125 676.764648438 3.2900390625 c 0,13,14
 660.5859375 -41.0517578125 660.5859375 -41.0517578125 620.8515625 -69.6796875 c 128,-1,15
 581.116210938 -98.3076171875 581.116210938 -98.3076171875 533.38671875 -98.896484375 c 0,16,17
 506.436523438 -100.969726562 506.436523438 -100.969726562 471.995117188 -99.787109375 c 128,-1,18
 437.553710938 -98.60546875 437.553710938 -98.60546875 412.98046875 -89.390625 c 0,19,20
 369.955078125 -73.2568359375 369.955078125 -73.2568359375 342.25390625 -33.6611328125 c 128,-1,21
 314.552734375 5.9345703125 314.552734375 5.9345703125 313.961914062 53.1953125 c 0,22,23
 313.443359375 94.7138671875 313.443359375 94.7138671875 314.846679688 118.6796875 c 128,-1,24
 316.249023438 142.64453125 316.249023438 142.64453125 326.543945312 174.921875 c 128,-1,25
 336.838867188 207.19921875 336.838867188 207.19921875 357.530273438 228.259765625 c 1,26,27
 352.739257812 234.569335938 352.739257812 234.569335938 345.616210938 245.284179688 c 128,-1,28
 338.493164062 255.999023438 338.493164062 255.999023438 326.403320312 284.11328125 c 128,-1,29
 314.313476562 312.227539062 314.313476562 312.227539062 313.961914062 334.407226562 c 0,30,31
 312.771484375 541.5546875 312.771484375 541.5546875 313.961914062 748.700195312 c 0,32,33
 314.564453125 808.9453125 314.564453125 808.9453125 358.833007812 854.1796875 c 128,-1,34
 403.100585938 899.4140625 403.100585938 899.4140625 465.26171875 900 c 2,35,-1
 533.38671875 900 l 2,0,1
466.846679688 168.056640625 m 2,36,37
 448.15234375 168.056640625 448.15234375 168.056640625 434.028320312 154.252929688 c 128,-1,38
 419.903320312 140.450195312 419.903320312 140.450195312 419.317382812 120.528320312 c 0,39,40
 419.317382812 116.133789062 419.317382812 116.133789062 419.013671875 99.349609375 c 128,-1,41
 418.7109375 82.564453125 418.7109375 82.564453125 419.024414062 76.1923828125 c 128,-1,42
 419.338867188 69.8193359375 419.338867188 69.8193359375 420.41796875 56.033203125 c 128,-1,43
 421.497070312 42.2470703125 421.497070312 42.2470703125 424.5859375 36.03515625 c 128,-1,44
 427.673828125 29.8232421875 427.673828125 29.8232421875 432.575195312 21.6953125 c 128,-1,45
 437.475585938 13.568359375 437.475585938 13.568359375 445.77734375 10.177734375 c 128,-1,46
 454.079101562 6.7880859375 454.079101562 6.7880859375 465.26171875 6.458984375 c 0,47,48
 492.196289062 3.4365234375 492.196289062 3.4365234375 523.1875 5.46875 c 128,-1,49
 554.1796875 7.5009765625 554.1796875 7.5009765625 567.44921875 22.3017578125 c 0,50,51
 573.12109375 28.654296875 573.12109375 28.654296875 576.443359375 36.888671875 c 128,-1,52
 579.764648438 45.1220703125 579.764648438 45.1220703125 580.698242188 56.669921875 c 128,-1,53
 581.631835938 68.21875 581.631835938 68.21875 581.702148438 76.115234375 c 128,-1,54
 581.7734375 84.01171875 581.7734375 84.01171875 581.015625 99.509765625 c 128,-1,55
 580.2578125 115.006835938 580.2578125 115.006835938 580.123046875 121.3203125 c 0,56,57
 579.53125 139.663085938 579.53125 139.663085938 565.309570312 153.561523438 c 128,-1,58
 551.088867188 167.459960938 551.088867188 167.459960938 532.594726562 168.056640625 c 2,59,-1
 466.846679688 168.056640625 l 2,36,37
466.846679688 794.64453125 m 2,60,61
 448.278320312 794.64453125 448.278320312 794.64453125 434.092773438 781.103515625 c 128,-1,62
 419.90625 767.563476562 419.90625 767.563476562 419.317382812 748.700195312 c 0,63,64
 415.743164062 541.354492188 415.743164062 541.354492188 419.317382812 335.200195312 c 0,65,66
 419.9140625 316.705078125 419.9140625 316.705078125 433.416992188 302.879882812 c 128,-1,67
 446.919921875 289.0546875 446.919921875 289.0546875 465.26171875 288.462890625 c 0,68,69
 468.74609375 288.400390625 468.74609375 288.400390625 484.153320312 287.923828125 c 128,-1,70
 499.559570312 287.447265625 499.559570312 287.447265625 504.825195312 287.595703125 c 128,-1,71
 510.091796875 287.744140625 510.091796875 287.744140625 522.840820312 288.311523438 c 128,-1,72
 535.590820312 288.87890625 535.590820312 288.87890625 541.491210938 290.990234375 c 128,-1,73
 547.390625 293.102539062 547.390625 293.102539062 555.8203125 296.459960938 c 128,-1,74
 564.25 299.817382812 564.25 299.817382812 569.122070312 305.63671875 c 128,-1,75
 573.993164062 311.45703125 573.993164062 311.45703125 576.955078125 319.356445312 c 0,76,77
 580.123046875 326.750976562 580.123046875 326.750976562 580.123046875 335.200195312 c 0,78,79
 583.692382812 540.959960938 583.692382812 540.959960938 580.123046875 747.908203125 c 0,80,81
 579.522460938 766.530273438 579.522460938 766.530273438 565.758789062 780.293945312 c 128,-1,82
 551.99609375 794.056640625 551.99609375 794.056640625 532.594726562 794.64453125 c 2,83,-1
 466.846679688 794.64453125 l 2,60,61
EndSplineSet
EndChar

StartChar: uni0222
Encoding: 546 546 22
Width: 1000
VWidth: 1100
LayerCount: 2
Fore
SplineSet
559.334960938 899.82421875 m 2,0,1
 597.17578125 898.641601562 597.17578125 898.641601562 628.8671875 875.264648438 c 128,-1,2
 660.55859375 851.888671875 660.55859375 851.888671875 672.46875 816.75390625 c 1,3,4
 677.083007812 818.702148438 677.083007812 818.702148438 684.8515625 821.438476562 c 128,-1,5
 692.62109375 824.174804688 692.62109375 824.174804688 712.563476562 827.62890625 c 128,-1,6
 732.506835938 831.08203125 732.506835938 831.08203125 747.625976562 828.62109375 c 0,7,8
 784.080078125 821.56640625 784.080078125 821.56640625 813.291015625 794.602539062 c 2,9,-1
 894.778320312 711.533203125 l 2,10,11
 901.8984375 704.413085938 901.8984375 704.413085938 904.271484375 700.45703125 c 0,12,13
 925.133789062 673.038085938 925.133789062 673.038085938 928.698242188 637.858398438 c 128,-1,14
 932.262695312 602.677734375 932.262695312 602.677734375 916.9296875 572.291992188 c 1,15,16
 935.944335938 565.151367188 935.944335938 565.151367188 949.3671875 554.887695312 c 0,17,18
 972.604492188 538.204101562 972.604492188 538.204101562 986.301757812 511.578125 c 128,-1,19
 1000 484.951171875 1000 484.951171875 1000 455.995117188 c 2,20,-1
 1000 342.071289062 l 2,21,22
 1000 304.009765625 1000 304.009765625 976.817382812 271.899414062 c 128,-1,23
 953.634765625 239.788085938 953.634765625 239.788085938 916.9296875 227.35546875 c 1,24,25
 919.0546875 222.474609375 919.0546875 222.474609375 921.530273438 214.697265625 c 128,-1,26
 924.005859375 206.920898438 924.005859375 206.920898438 928.416015625 184.107421875 c 128,-1,27
 932.826171875 161.293945312 932.826171875 161.293945312 927.21484375 146.66015625 c 0,28,29
 919.880859375 111.215820312 919.880859375 111.215820312 893.196289062 85.7421875 c 2,30,-1
 813.291015625 5.8369140625 l 2,31,32
 785.5234375 -21.3271484375 785.5234375 -21.3271484375 746.736328125 -28.28125 c 128,-1,33
 707.94921875 -35.234375 707.94921875 -35.234375 672.46875 -17.8974609375 c 1,34,35
 665.329101562 -36.1201171875 665.329101562 -36.1201171875 655.854492188 -49.54296875 c 0,36,37
 638.484375 -72.90234375 638.484375 -72.90234375 612.129882812 -86.5390625 c 128,-1,38
 585.776367188 -100.17578125 585.776367188 -100.17578125 556.961914062 -100.17578125 c 2,39,-1
 442.247070312 -100.17578125 l 2,40,41
 404.40625 -100.17578125 404.40625 -100.17578125 372.518554688 -77.1982421875 c 128,-1,42
 340.631835938 -54.2216796875 340.631835938 -54.2216796875 327.53125 -17.8974609375 c 1,43,44
 324.119140625 -19.1787109375 324.119140625 -19.1787109375 318.129882812 -20.9892578125 c 128,-1,45
 312.141601562 -22.7998046875 312.141601562 -22.7998046875 294.647460938 -25.3056640625 c 128,-1,46
 277.154296875 -27.810546875 277.154296875 -27.810546875 260.826171875 -26.8505859375 c 128,-1,47
 244.499023438 -25.890625 244.499023438 -25.890625 223.86328125 -18.064453125 c 128,-1,48
 203.227539062 -10.2392578125 203.227539062 -10.2392578125 187.5 5.0458984375 c 0,49,50
 178.815429688 13.4453125 178.815429688 13.4453125 158.5546875 31.873046875 c 128,-1,51
 138.293945312 50.2998046875 138.293945312 50.2998046875 127.678710938 61.041015625 c 128,-1,52
 117.063476562 71.7822265625 117.063476562 71.7822265625 103.112304688 88.1005859375 c 128,-1,53
 89.1611328125 104.418945312 89.1611328125 104.418945312 81.5400390625 120.497070312 c 128,-1,54
 73.919921875 136.576171875 73.919921875 136.576171875 71.203125 153.780273438 c 0,55,56
 65.220703125 190.8671875 65.220703125 190.8671875 83.0703125 226.564453125 c 1,57,58
 64.84765625 233.703125 64.84765625 233.703125 51.423828125 243.178710938 c 0,59,60
 27.6806640625 259.798828125 27.6806640625 259.798828125 13.8408203125 286.403320312 c 128,-1,61
 0 313.0078125 0 313.0078125 0 342.071289062 c 2,62,-1
 0 455.995117188 l 2,63,64
 0 494.200195312 0 494.200195312 22.853515625 526.7578125 c 128,-1,65
 45.7060546875 559.315429688 45.7060546875 559.315429688 82.2783203125 572.291992188 c 1,66,67
 73.5712890625 591.3125 73.5712890625 591.3125 71.203125 607.893554688 c 0,68,69
 61.2646484375 666.282226562 61.2646484375 666.282226562 105.221679688 711.533203125 c 0,70,71
 113.60546875 720.05859375 113.60546875 720.05859375 138.239257812 746.77734375 c 128,-1,72
 162.874023438 773.49609375 162.874023438 773.49609375 175.150390625 785.131835938 c 128,-1,73
 187.427734375 796.766601562 187.427734375 796.766601562 208.947265625 810.489257812 c 128,-1,74
 230.466796875 824.2109375 230.466796875 824.2109375 250.791015625 827.830078125 c 0,75,76
 290.4921875 835.274414062 290.4921875 835.274414062 327.53125 816.75390625 c 1,77,78
 344.200195312 857.141601562 344.200195312 857.141601562 371.8359375 876.880859375 c 0,79,80
 403.232421875 899.82421875 403.232421875 899.82421875 442.247070312 899.82421875 c 2,81,-1
 559.334960938 899.82421875 l 2,0,1
443.038085938 794.602539062 m 2,82,83
 436.44921875 794.602539062 436.44921875 794.602539062 431.436523438 789.428710938 c 128,-1,84
 426.423828125 784.25390625 426.423828125 784.25390625 426.423828125 777.197265625 c 2,85,-1
 426.423828125 705.995117188 l 2,86,87
 425.237304688 705.599609375 425.237304688 705.599609375 423.259765625 705.204101562 c 128,-1,88
 421.28125 704.80859375 421.28125 704.80859375 420.094726562 704.413085938 c 0,89,90
 377.43359375 693.185546875 377.43359375 693.185546875 334.65234375 668.020507812 c 1,91,92
 283.249023438 719.423828125 283.249023438 719.423828125 283.227539062 719.444335938 c 0,93,94
 271.4140625 729.782226562 271.4140625 729.782226562 260.28515625 718.653320312 c 0,95,96
 215.293945312 674.986328125 215.293945312 674.986328125 180.379882812 637.95703125 c 0,97,98
 169.583007812 625.810546875 169.583007812 625.810546875 181.170898438 614.22265625 c 2,99,-1
 231.012695312 564.380859375 l 1,100,101
 203.348632812 520.37109375 203.348632812 520.37109375 193.038085938 473.400390625 c 1,102,-1
 121.044921875 473.400390625 l 2,103,104
 114.649414062 473.400390625 114.649414062 473.400390625 109.935546875 468.036132812 c 128,-1,105
 105.221679688 462.671875 105.221679688 462.671875 105.221679688 455.995117188 c 2,106,-1
 105.221679688 342.071289062 l 2,107,108
 105.221679688 335.614257812 105.221679688 335.614257812 110.227539062 330.930664062 c 128,-1,109
 115.233398438 326.248046875 115.233398438 326.248046875 121.8359375 326.248046875 c 2,110,-1
 193.038085938 326.248046875 l 1,111,112
 203.188476562 280.004882812 203.188476562 280.004882812 231.012695312 234.4765625 c 1,113,114
 222.705078125 225.7734375 222.705078125 225.7734375 205.696289062 208.763671875 c 128,-1,115
 188.6875 191.75390625 188.6875 191.75390625 180.379882812 183.051757812 c 0,116,117
 170.041992188 171.23828125 170.041992188 171.23828125 181.170898438 160.109375 c 0,118,119
 233.375 106.322265625 233.375 106.322265625 261.076171875 80.2041015625 c 0,120,121
 273.22265625 69.4072265625 273.22265625 69.4072265625 284.810546875 80.9951171875 c 2,122,-1
 334.65234375 130.045898438 l 1,123,124
 377.110351562 104.098632812 377.110351562 104.098632812 426.423828125 92.0712890625 c 1,125,-1
 426.423828125 20.869140625 l 2,126,127
 426.423828125 14.935546875 426.423828125 14.935546875 431.369140625 9.990234375 c 128,-1,128
 436.313476562 5.0458984375 436.313476562 5.0458984375 442.247070312 5.0458984375 c 2,129,-1
 556.170898438 5.0458984375 l 2,130,131
 563.227539062 5.0458984375 563.227539062 5.0458984375 568.401367188 10.05859375 c 128,-1,132
 573.576171875 15.0712890625 573.576171875 15.0712890625 573.576171875 21.66015625 c 2,133,-1
 573.576171875 92.0712890625 l 2,134,135
 574.762695312 92.466796875 574.762695312 92.466796875 576.740234375 92.8623046875 c 128,-1,136
 578.71875 93.2578125 578.71875 93.2578125 579.905273438 93.6533203125 c 0,137,138
 622.56640625 104.879882812 622.56640625 104.879882812 665.34765625 130.045898438 c 1,139,140
 670.915039062 124.478515625 670.915039062 124.478515625 680.848632812 114.544921875 c 128,-1,141
 690.782226562 104.612304688 690.782226562 104.612304688 698.8984375 96.49609375 c 128,-1,142
 707.014648438 88.37890625 707.014648438 88.37890625 714.3984375 80.9951171875 c 0,143,144
 719.145507812 76.248046875 719.145507812 76.248046875 726.364257812 76.248046875 c 128,-1,145
 733.583984375 76.248046875 733.583984375 76.248046875 738.923828125 80.9951171875 c 0,146,147
 792.737304688 133.2265625 792.737304688 133.2265625 818.829101562 160.109375 c 0,148,149
 829.998046875 172.674804688 829.998046875 172.674804688 818.829101562 183.84375 c 2,150,-1
 768.196289062 234.4765625 l 1,151,152
 796.020507812 280.004882812 796.020507812 280.004882812 806.170898438 326.248046875 c 1,153,-1
 878.1640625 326.248046875 l 2,154,155
 884.766601562 326.248046875 884.766601562 326.248046875 889.772460938 330.930664062 c 128,-1,156
 894.778320312 335.614257812 894.778320312 335.614257812 894.778320312 342.071289062 c 0,157,158
 895.96484375 399.033203125 895.96484375 399.033203125 894.778320312 455.995117188 c 0,159,160
 894.778320312 462.658203125 894.778320312 462.658203125 889.5703125 468.029296875 c 128,-1,161
 884.361328125 473.400390625 884.361328125 473.400390625 877.373046875 473.400390625 c 2,162,-1
 806.170898438 473.400390625 l 1,163,164
 795.860351562 520.37109375 795.860351562 520.37109375 768.196289062 564.380859375 c 1,165,166
 776.513671875 572.698242188 776.513671875 572.698242188 793.522460938 589.3125 c 128,-1,167
 810.532226562 605.926757812 810.532226562 605.926757812 818.829101562 614.22265625 c 0,168,169
 829.729492188 626.485351562 829.729492188 626.485351562 818.829101562 638.748046875 c 0,170,171
 804.766601562 653.689453125 804.766601562 653.689453125 777.465820312 680.787109375 c 128,-1,172
 750.166015625 707.885742188 750.166015625 707.885742188 739.71484375 718.653320312 c 0,173,174
 727.056640625 729.905273438 727.056640625 729.905273438 714.3984375 718.653320312 c 2,175,-1
 664.556640625 668.020507812 l 1,176,177
 622.383789062 693.793945312 622.383789062 693.793945312 573.576171875 705.995117188 c 1,178,-1
 573.576171875 777.98828125 l 2,179,180
 573.576171875 784.577148438 573.576171875 784.577148438 568.401367188 789.58984375 c 128,-1,181
 563.227539062 794.602539062 563.227539062 794.602539062 556.170898438 794.602539062 c 2,182,-1
 443.038085938 794.602539062 l 2,82,83
501.58203125 583.368164062 m 0,183,184
 558.59375 582.97265625 558.59375 582.97265625 607.711914062 546.389648438 c 128,-1,185
 656.830078125 509.807617188 656.830078125 509.807617188 675.515625 453.680664062 c 128,-1,186
 694.201171875 397.552734375 694.201171875 397.552734375 670.885742188 330.204101562 c 0,187,188
 653.578125 287.374023438 653.578125 287.374023438 613.638671875 257.478515625 c 128,-1,189
 573.69921875 227.583007812 573.69921875 227.583007812 527.134765625 218.28515625 c 128,-1,190
 480.571289062 208.987304688 480.571289062 208.987304688 430.787109375 227.983398438 c 128,-1,191
 381.001953125 246.98046875 381.001953125 246.98046875 347.310546875 295.393554688 c 0,192,193
 317.829101562 337.846679688 317.829101562 337.846679688 316.040039062 391.897460938 c 128,-1,194
 314.250976562 445.948242188 314.250976562 445.948242188 342.1875 494.512695312 c 128,-1,195
 370.124023438 543.078125 370.124023438 543.078125 421.677734375 566.754882812 c 0,196,197
 456.010742188 583.368164062 456.010742188 583.368164062 501.58203125 583.368164062 c 0,183,184
499.208984375 478.146484375 m 2,198,199
 460.044921875 477.543945312 460.044921875 477.543945312 435.440429688 440.892578125 c 128,-1,200
 410.8359375 404.240234375 410.8359375 404.240234375 427.21484375 367.387695312 c 0,201,202
 442.46484375 332.619140625 442.46484375 332.619140625 484.177734375 323.776367188 c 128,-1,203
 525.890625 314.93359375 525.890625 314.93359375 555.379882812 343.653320312 c 0,204,205
 575.729492188 364.395507812 575.729492188 364.395507812 576.546875 396.098632812 c 128,-1,206
 577.36328125 427.802734375 577.36328125 427.802734375 556.891601562 452.599609375 c 128,-1,207
 536.419921875 477.397460938 536.419921875 477.397460938 501.58203125 478.146484375 c 2,208,-1
 499.208984375 478.146484375 l 2,198,199
EndSplineSet
EndChar

StartChar: uni0223
Encoding: 547 547 23
Width: 1000
VWidth: 1100
LayerCount: 2
Fore
SplineSet
713.493164062 899.404296875 m 0,0,1
 744.432617188 898.796875 744.432617188 898.796875 771.791015625 883.186523438 c 128,-1,2
 799.149414062 867.575195312 799.149414062 867.575195312 814.38671875 840.615234375 c 1,3,4
 821.958984375 842.118164062 821.958984375 842.118164062 834.419921875 843.153320312 c 128,-1,5
 846.879882812 844.189453125 846.879882812 844.189453125 876.975585938 837.017578125 c 128,-1,6
 907.071289062 829.846679688 907.071289062 829.846679688 927.197265625 810.426757812 c 0,7,8
 931.140625 806.6015625 931.140625 806.6015625 947.018554688 791.475585938 c 128,-1,9
 962.897460938 776.348632812 962.897460938 776.348632812 968.015625 771.168945312 c 128,-1,10
 973.1328125 765.98828125 973.1328125 765.98828125 986.01171875 751.930664062 c 128,-1,11
 998.889648438 737.872070312 998.889648438 737.872070312 1003.40527344 730.29296875 c 128,-1,12
 1007.91992188 722.712890625 1007.91992188 722.712890625 1015.58203125 709.071289062 c 128,-1,13
 1023.24511719 695.428710938 1023.24511719 695.428710938 1024.94140625 684.798828125 c 128,-1,14
 1026.63867188 674.16796875 1026.63867188 674.16796875 1026.86914062 660.291015625 c 128,-1,15
 1027.09960938 646.413085938 1027.09960938 646.413085938 1023.32421875 632.47265625 c 0,16,17
 1025.61621094 630.91796875 1025.61621094 630.91796875 1029.4296875 627.973632812 c 128,-1,18
 1033.24316406 625.030273438 1033.24316406 625.030273438 1043.05371094 615.063476562 c 128,-1,19
 1052.86328125 605.09765625 1052.86328125 605.09765625 1060.4453125 594.17578125 c 128,-1,20
 1068.02636719 583.25390625 1068.02636719 583.25390625 1074.45019531 566.203125 c 128,-1,21
 1080.87304688 549.15234375 1080.87304688 549.15234375 1081.31835938 531.579101562 c 0,22,23
 1082.765625 504.618164062 1082.765625 504.618164062 1081.60449219 475.856445312 c 128,-1,24
 1080.44238281 447.094726562 1080.44238281 447.094726562 1077.04882812 422.443359375 c 128,-1,25
 1073.65429688 397.791015625 1073.65429688 397.791015625 1061.32128906 375.732421875 c 128,-1,26
 1048.98730469 353.673828125 1048.98730469 353.673828125 1028.09082031 340.119140625 c 0,27,28
 1024.70996094 338.038085938 1024.70996094 338.038085938 1022.21582031 337.625 c 0,29,30
 1021.69824219 337.5390625 1021.69824219 337.5390625 1022.0078125 337.05078125 c 0,31,32
 1024.30664062 333.430664062 1024.30664062 333.430664062 1025.70800781 325.024414062 c 0,33,34
 1029.83300781 298.502929688 1029.83300781 298.502929688 1020.73144531 271.659179688 c 128,-1,35
 1011.62890625 244.815429688 1011.62890625 244.815429688 992.341796875 224.92578125 c 0,36,37
 988.879882812 221.353515625 988.879882812 221.353515625 981.926757812 214.112304688 c 0,38,39
 958.33984375 189.545898438 958.33984375 189.545898438 944.895507812 177.086914062 c 128,-1,40
 931.451171875 164.627929688 931.451171875 164.627929688 909.245117188 148.482421875 c 128,-1,41
 887.040039062 132.337890625 887.040039062 132.337890625 865.227539062 127.666015625 c 128,-1,42
 843.416015625 122.994140625 843.416015625 122.994140625 819.948242188 128.00390625 c 0,43,44
 816.068359375 128.780273438 816.068359375 128.780273438 813.90234375 130.124023438 c 0,45,46
 813.428710938 130.41796875 813.428710938 130.41796875 813.315429688 129.841796875 c 0,47,48
 812.526367188 125.8359375 812.526367188 125.8359375 808.03125 119.265625 c 0,49,50
 774.19140625 72.890625 774.19140625 72.890625 713.493164062 71.5986328125 c 0,51,52
 706.465820312 71.513671875 706.465820312 71.513671875 685.786132812 70.9873046875 c 128,-1,53
 665.107421875 70.4609375 665.107421875 70.4609375 656.421875 70.583984375 c 128,-1,54
 647.736328125 70.7080078125 647.736328125 70.7080078125 630.208007812 71.3818359375 c 128,-1,55
 612.680664062 72.0556640625 612.680664062 72.0556640625 602.692382812 74.5078125 c 128,-1,56
 592.703125 76.9599609375 592.703125 76.9599609375 579.299804688 80.947265625 c 128,-1,57
 565.895507812 84.93359375 565.895507812 84.93359375 555.577148438 91.828125 c 128,-1,58
 545.2578125 98.7216796875 545.2578125 98.7216796875 536.333007812 108.142578125 c 0,59,60
 529.271484375 114.96484375 529.271484375 114.96484375 529.18359375 111.3203125 c 0,61,62
 529.952148438 110.504882812 529.952148438 110.504882812 517.266601562 99.404296875 c 1,63,64
 514.83203125 50.0888671875 514.83203125 50.0888671875 488.666992188 19.166015625 c 0,65,66
 485.943359375 15.5341796875 485.943359375 15.5341796875 482.311523438 12.810546875 c 2,67,-1
 437.823242188 -30.8837890625 l 1,68,-1
 432.26171875 -35.650390625 l 2,69,70
 419.987304688 -45.294921875 419.987304688 -45.294921875 411.606445312 -49.9501953125 c 0,71,72
 387.051757812 -63.4560546875 387.051757812 -63.4560546875 357.584960938 -63.4560546875 c 0,73,74
 348.673828125 -63.484375 348.673828125 -63.484375 348.845703125 -64.25 c 0,75,76
 310.637695312 -97.62109375 310.637695312 -97.62109375 272.580078125 -100 c 2,77,-1
 264.635742188 -100 l 1,78,-1
 202.668945312 -99.205078125 l 2,79,80
 154.560546875 -99.205078125 154.560546875 -99.205078125 122.430664062 -65.8388671875 c 1,81,-1
 115.28125 -60.2783203125 l 1,82,83
 68.3466796875 -59.4287109375 68.3466796875 -59.4287109375 36.6318359375 -31.6787109375 c 2,84,-1
 31.0703125 -26.1171875 l 1,85,-1
 -14.212890625 19.9599609375 l 1,86,87
 -45.990234375 62.138671875 -45.990234375 62.138671875 -45.990234375 99.404296875 c 0,88,89
 -46.0390625 109.120117188 -46.0390625 109.120117188 -47.5791015625 108.9375 c 0,90,91
 -81.740234375 151.915039062 -81.740234375 151.915039062 -81.740234375 191.559570312 c 2,92,-1
 -80.9453125 254.319335938 l 2,93,94
 -80.9453125 268.887695312 -80.9453125 268.887695312 -77.767578125 280.536132812 c 0,95,96
 -70.37890625 312.552734375 -70.37890625 312.552734375 -47.5791015625 335.352539062 c 0,97,98
 -43.43359375 338.905273438 -43.43359375 338.905273438 -43.025390625 339.790039062 c 128,-1,99
 -42.6171875 340.673828125 -42.6171875 340.673828125 -42.017578125 347.26953125 c 0,100,101
 -40.78125 388.084960938 -40.78125 388.084960938 -15.0068359375 418.768554688 c 0,102,103
 -14.212890625 419.9609375 -14.212890625 419.9609375 -11.431640625 422.741210938 c 128,-1,104
 -8.6513671875 425.521484375 -8.6513671875 425.521484375 -7.0625 427.5078125 c 2,105,-1
 36.6318359375 469.612304688 l 1,106,-1
 42.1923828125 474.37890625 l 2,107,108
 57.15234375 487.038085938 57.15234375 487.038085938 60.744140625 489.033203125 c 128,-1,109
 64.3369140625 491.029296875 64.3369140625 491.029296875 81.1201171875 496.624023438 c 0,110,111
 101.663085938 503.471679688 101.663085938 503.471679688 124.814453125 502.184570312 c 1,112,113
 155.0546875 529.208007812 155.0546875 529.208007812 181.219726562 535.55078125 c 0,114,115
 192.868164062 538.728515625 192.868164062 538.728515625 210.61328125 538.728515625 c 2,116,-1
 253.513671875 537.934570312 l 1,117,118
 255.115234375 558.62109375 255.115234375 558.62109375 261.458007812 574.478515625 c 0,119,120
 277.051757812 613.462890625 277.051757812 613.462890625 311.506835938 632.47265625 c 1,121,122
 310.092773438 640.133789062 310.092773438 640.133789062 309.166992188 652.704101562 c 128,-1,123
 308.2421875 665.274414062 308.2421875 665.274414062 315.435546875 695.392578125 c 128,-1,124
 322.629882812 725.510742188 322.629882812 725.510742188 341.696289062 745.283203125 c 0,125,126
 344.208007812 747.872070312 344.208007812 747.872070312 358.517578125 762.833007812 c 128,-1,127
 372.827148438 777.793945312 372.827148438 777.793945312 376.680664062 781.4609375 c 128,-1,128
 380.533203125 785.127929688 380.533203125 785.127929688 393.614257812 797.676757812 c 128,-1,129
 406.6953125 810.2265625 406.6953125 810.2265625 412.706054688 813.873046875 c 128,-1,130
 418.715820312 817.518554688 418.715820312 817.518554688 430.987304688 826.166015625 c 128,-1,131
 443.2578125 834.8125 443.2578125 834.8125 451.84375 836.947265625 c 128,-1,132
 460.428710938 839.081054688 460.428710938 839.081054688 472.30859375 842.334960938 c 128,-1,133
 484.188476562 845.58984375 484.188476562 845.58984375 495.767578125 844.721679688 c 128,-1,134
 507.346679688 843.853515625 507.346679688 843.853515625 519.650390625 840.615234375 c 0,135,136
 521.237304688 842.939453125 521.237304688 842.939453125 524.235351562 846.806640625 c 128,-1,137
 527.232421875 850.673828125 527.232421875 850.673828125 537.3359375 860.62109375 c 128,-1,138
 547.439453125 870.568359375 547.439453125 870.568359375 558.465820312 878.25390625 c 128,-1,139
 569.4921875 885.940429688 569.4921875 885.940429688 586.62890625 892.450195312 c 128,-1,140
 603.765625 898.958984375 603.765625 898.958984375 621.338867188 899.404296875 c 0,141,142
 667.416015625 900.584960938 667.416015625 900.584960938 713.493164062 899.404296875 c 0,0,1
209.024414062 433.068359375 m 0,143,144
 201.080078125 433.068359375 201.080078125 433.068359375 201.080078125 423.53515625 c 2,145,-1
 200.286132812 385.40234375 l 1,146,-1
 193.930664062 383.813476562 l 2,147,148
 171.071289062 377.796875 171.071289062 377.796875 150.236328125 365.541015625 c 1,149,-1
 124.01953125 393.346679688 l 2,150,151
 116.517578125 399.349609375 116.517578125 399.349609375 110.514648438 393.346679688 c 2,152,-1
 66.8203125 351.241210938 l 2,153,154
 60.8173828125 343.73828125 60.8173828125 343.73828125 66.8203125 337.736328125 c 2,155,-1
 93.8310546875 310.724609375 l 2,156,157
 92.2421875 307.546875 92.2421875 307.546875 89.8583984375 305.1640625 c 0,158,159
 79.0400390625 286.772460938 79.0400390625 286.772460938 72.380859375 261.469726562 c 1,160,-1
 34.248046875 261.469726562 l 2,161,162
 26.91796875 261.993164062 26.91796875 261.993164062 25.81640625 260.340820312 c 128,-1,163
 24.71484375 258.689453125 24.71484375 258.689453125 24.71484375 253.525390625 c 0,164,165
 24.71484375 243.197265625 24.71484375 243.197265625 24.3173828125 222.54296875 c 128,-1,166
 23.919921875 201.88671875 23.919921875 201.88671875 23.919921875 191.559570312 c 0,167,168
 23.919921875 183.482421875 23.919921875 183.482421875 32.6591796875 182.025390625 c 2,169,-1
 70.7919921875 182.025390625 l 1,170,171
 76.1923828125 158.268554688 76.1923828125 158.268554688 90.6533203125 131.9765625 c 1,172,173
 87.298828125 128.622070312 87.298828125 128.622070312 79.5302734375 122.947265625 c 128,-1,174
 71.76171875 117.272460938 71.76171875 117.272460938 66.8212890625 112.140625 c 128,-1,175
 61.8798828125 107.008789062 61.8798828125 107.008789062 60.46484375 100.993164062 c 0,176,177
 59.3515625 96.544921875 59.3515625 96.544921875 62.84765625 93.048828125 c 0,178,179
 70.0068359375 85.4921875 70.0068359375 85.4921875 84.306640625 70.794921875 c 128,-1,180
 98.6064453125 56.09765625 98.6064453125 56.09765625 105.748046875 48.560546875 c 0,181,182
 112.103515625 42.205078125 112.103515625 42.205078125 118.458984375 48.560546875 c 2,183,-1
 146.263671875 75.5712890625 l 2,184,185
 149.44140625 73.982421875 149.44140625 73.982421875 151.825195312 71.5986328125 c 0,186,187
 170.21484375 60.78125 170.21484375 60.78125 195.51953125 54.12109375 c 1,188,-1
 194.724609375 15.98828125 l 2,189,190
 194.724609375 6.455078125 194.724609375 6.455078125 203.463867188 6.455078125 c 0,191,192
 213.791015625 6.455078125 213.791015625 6.455078125 234.049804688 6.0576171875 c 128,-1,193
 254.307617188 5.66015625 254.307617188 5.66015625 264.635742188 5.66015625 c 0,194,195
 268.350585938 5.66015625 268.350585938 5.66015625 271.259765625 8.408203125 c 128,-1,196
 274.168945312 11.1552734375 274.168945312 11.1552734375 274.168945312 15.193359375 c 2,197,-1
 274.962890625 52.5322265625 l 1,198,-1
 281.318359375 54.12109375 l 2,199,200
 306.874023438 62.19140625 306.874023438 62.19140625 324.21875 72.3935546875 c 1,201,-1
 350.434570312 45.3828125 l 2,202,203
 357.286132812 39.900390625 357.286132812 39.900390625 363.145507812 44.587890625 c 0,204,205
 371.774414062 52.30859375 371.774414062 52.30859375 387.19921875 67.5244140625 c 128,-1,206
 402.624023438 82.740234375 402.624023438 82.740234375 407.634765625 87.4873046875 c 0,207,208
 413.63671875 94.990234375 413.63671875 94.990234375 407.634765625 100.993164062 c 2,209,-1
 381.41796875 128.00390625 l 2,210,211
 383.006835938 131.181640625 383.006835938 131.181640625 384.595703125 133.565429688 c 0,212,213
 395.416015625 151.959960938 395.416015625 151.959960938 402.073242188 177.258789062 c 1,214,-1
 440.206054688 176.46484375 l 2,215,216
 449.739257812 176.46484375 449.739257812 176.46484375 449.739257812 185.203125 c 0,217,218
 449.739257812 192.356445312 449.739257812 192.356445312 450.36328125 214.202148438 c 128,-1,219
 450.98828125 236.048828125 450.98828125 236.048828125 450.534179688 248.758789062 c 0,220,221
 450.534179688 255.908203125 450.534179688 255.908203125 441.794921875 255.908203125 c 2,222,-1
 403.662109375 256.703125 l 1,223,-1
 402.073242188 263.05859375 l 2,224,225
 396.436523438 284.48046875 396.436523438 284.48046875 383.80078125 305.958007812 c 1,226,-1
 411.606445312 332.96875 l 2,227,228
 417.961914062 339.325195312 417.961914062 339.325195312 411.606445312 345.680664062 c 2,229,-1
 369.500976562 389.374023438 l 2,230,231
 361.998046875 395.376953125 361.998046875 395.376953125 355.99609375 389.374023438 c 2,232,-1
 328.985351562 363.158203125 l 2,233,234
 325.807617188 364.747070312 325.807617188 364.747070312 323.423828125 366.3359375 c 0,235,236
 305.032226562 377.154296875 305.032226562 377.154296875 279.729492188 383.813476562 c 1,237,-1
 279.729492188 422.741210938 l 2,238,239
 280.2578125 429.076171875 280.2578125 429.076171875 278.454101562 430.27734375 c 128,-1,240
 276.651367188 431.479492188 276.651367188 431.479492188 271.78515625 431.479492188 c 0,241,242
 261.45703125 431.479492188 261.45703125 431.479492188 240.404296875 432.2734375 c 128,-1,243
 219.3515625 433.068359375 219.3515625 433.068359375 209.024414062 433.068359375 c 0,143,144
237.624023438 318.668945312 m 2,244,245
 287.38671875 318.0546875 287.38671875 318.0546875 318.8125 272.530273438 c 128,-1,246
 350.23828125 227.005859375 350.23828125 227.005859375 328.190429688 178.84765625 c 0,247,248
 308.73828125 135.688476562 308.73828125 135.688476562 257.485351562 124.130859375 c 128,-1,249
 206.232421875 112.57421875 206.232421875 112.57421875 170.096679688 146.276367188 c 0,250,251
 143.052734375 171.752929688 143.052734375 171.752929688 141.192382812 212.615234375 c 128,-1,252
 139.333007812 253.4765625 139.333007812 253.4765625 165.10546875 285.697265625 c 128,-1,253
 190.877929688 317.916992188 190.877929688 317.916992188 235.241210938 318.668945312 c 2,254,-1
 237.624023438 318.668945312 l 2,244,245
623.721679688 793.744140625 m 2,255,256
 618.673828125 793.744140625 618.673828125 793.744140625 614.4453125 789.840820312 c 128,-1,257
 610.216796875 785.936523438 610.216796875 785.936523438 610.216796875 780.23828125 c 2,258,-1
 610.216796875 724.627929688 l 1,259,260
 574.125976562 716.732421875 574.125976562 716.732421875 538.716796875 695.233398438 c 1,261,262
 534.302734375 699.647460938 534.302734375 699.647460938 524.220703125 712.556640625 c 128,-1,263
 514.138671875 725.465820312 514.138671875 725.465820312 506.076171875 732.197265625 c 128,-1,264
 498.012695312 738.927734375 498.012695312 738.927734375 489.461914062 738.927734375 c 0,265,266
 486.28515625 738.927734375 486.28515625 738.927734375 479.928710938 734.161132812 c 0,267,268
 417.245117188 671.48046875 417.245117188 671.48046875 417.16796875 671.400390625 c 0,269,270
 408.428710938 662.661132812 408.428710938 662.661132812 417.961914062 653.127929688 c 2,271,-1
 456.889648438 614.200195312 l 1,272,273
 450.028320312 603.221679688 450.028320312 603.221679688 446.561523438 595.133789062 c 0,274,275
 441.396484375 584.802734375 441.396484375 584.802734375 437.823242188 575.2734375 c 0,276,277
 433.850585938 564.9453125 433.850585938 564.9453125 427.495117188 542.701171875 c 1,278,279
 421.040039062 542.701171875 421.040039062 542.701171875 405.169921875 544.720703125 c 128,-1,280
 389.30078125 546.740234375 389.30078125 546.740234375 378.850585938 545.978515625 c 128,-1,281
 368.400390625 545.215820312 368.400390625 545.215820312 362.3515625 539.5234375 c 0,282,283
 359.173828125 536.345703125 359.173828125 536.345703125 359.173828125 529.990234375 c 2,284,-1
 359.173828125 440.21875 l 2,285,286
 359.173828125 434.927734375 359.173828125 434.927734375 363.206054688 431.217773438 c 128,-1,287
 367.239257812 427.5078125 367.239257812 427.5078125 372.678710938 427.5078125 c 2,288,-1
 427.495117188 427.5078125 l 1,289,290
 432.3203125 410.138671875 432.3203125 410.138671875 433.850585938 406.057617188 c 0,291,292
 441.745117188 381.249023438 441.745117188 381.249023438 456.889648438 356.0078125 c 1,293,294
 423.546875 322.666992188 423.546875 322.666992188 417.16796875 315.491210938 c 0,295,296
 409.223632812 307.546875 409.223632812 307.546875 418.756835938 298.013671875 c 0,297,298
 430.4453125 287.190429688 430.4453125 287.190429688 451.372070312 265.661132812 c 128,-1,299
 472.297851562 244.130859375 472.297851562 244.130859375 481.517578125 235.252929688 c 0,300,301
 490.255859375 226.514648438 490.255859375 226.514648438 499.7890625 236.047851562 c 2,302,-1
 538.716796875 274.975585938 l 1,303,304
 574.129882812 253.473632812 574.129882812 253.473632812 610.216796875 245.581054688 c 1,305,306
 610.216796875 239.125976562 610.216796875 239.125976562 608.197265625 223.255859375 c 128,-1,307
 606.177734375 207.38671875 606.177734375 207.38671875 606.939453125 196.935546875 c 128,-1,308
 607.701171875 186.485351562 607.701171875 186.485351562 613.39453125 180.436523438 c 0,309,310
 616.572265625 177.258789062 616.572265625 177.258789062 622.927734375 177.258789062 c 2,311,-1
 711.904296875 177.258789062 l 2,312,313
 717.1953125 177.258789062 717.1953125 177.258789062 720.905273438 181.291015625 c 128,-1,314
 724.615234375 185.32421875 724.615234375 185.32421875 724.615234375 190.764648438 c 2,315,-1
 724.615234375 245.581054688 l 2,316,317
 725.409179688 245.977539062 725.409179688 245.977539062 727.395507812 246.375 c 128,-1,318
 729.381835938 246.772460938 729.381835938 246.772460938 730.176757812 247.169921875 c 0,319,320
 764.328125 255.413085938 764.328125 255.413085938 796.115234375 274.975585938 c 1,321,322
 800.749023438 270.341796875 800.749023438 270.341796875 810.46484375 257.596679688 c 128,-1,323
 820.1796875 244.852539062 820.1796875 244.852539062 828.107421875 238.06640625 c 128,-1,324
 836.03515625 231.28125 836.03515625 231.28125 844.576171875 231.28125 c 0,325,326
 847.754882812 231.28125 847.754882812 231.28125 854.109375 236.047851562 c 0,327,328
 860.96484375 242.903320312 860.96484375 242.903320312 873.80859375 255.5703125 c 128,-1,329
 886.651367188 268.237304688 886.651367188 268.237304688 897.170898438 278.755859375 c 128,-1,330
 907.689453125 289.275390625 907.689453125 289.275390625 916.870117188 298.80859375 c 0,331,332
 925.608398438 307.546875 925.608398438 307.546875 916.075195312 317.080078125 c 2,333,-1
 877.147460938 356.0078125 l 1,334,335
 879.787109375 360.23046875 879.787109375 360.23046875 888.26953125 375.07421875 c 0,336,337
 900.185546875 400.099609375 900.185546875 400.099609375 907.336914062 427.5078125 c 1,338,339
 913.791992188 427.5078125 913.791992188 427.5078125 929.661132812 425.48828125 c 128,-1,340
 945.53125 423.46875 945.53125 423.46875 955.981445312 424.23046875 c 128,-1,341
 966.431640625 424.993164062 966.431640625 424.993164062 972.48046875 430.685546875 c 0,342,343
 975.658203125 433.862304688 975.658203125 433.862304688 975.658203125 440.21875 c 2,344,-1
 975.658203125 529.990234375 l 2,345,346
 975.658203125 535.28125 975.658203125 535.28125 971.625 538.991210938 c 128,-1,347
 967.592773438 542.701171875 967.592773438 542.701171875 962.15234375 542.701171875 c 2,348,-1
 907.336914062 542.701171875 l 1,349,350
 902.51171875 560.0703125 902.51171875 560.0703125 900.981445312 564.151367188 c 0,351,352
 895.021484375 580.040039062 895.021484375 580.040039062 893.036132812 584.01171875 c 0,353,354
 886.51171875 598.1484375 886.51171875 598.1484375 877.147460938 614.200195312 c 1,355,356
 890.669921875 626.927734375 890.669921875 626.927734375 916.870117188 653.127929688 c 0,357,358
 925.767578125 662.025390625 925.767578125 662.025390625 916.870117188 672.194335938 c 0,359,360
 874.7109375 714.3515625 874.7109375 714.3515625 853.314453125 734.955078125 c 0,361,362
 844.576171875 743.693359375 844.576171875 743.693359375 835.04296875 734.161132812 c 2,363,-1
 796.115234375 695.233398438 l 2,364,365
 795.716796875 695.432617188 795.716796875 695.432617188 793.830078125 696.690429688 c 128,-1,366
 791.944335938 697.947265625 791.944335938 697.947265625 790.553710938 698.411132812 c 0,367,368
 759.859375 716.120117188 759.859375 716.120117188 724.615234375 724.627929688 c 1,369,370
 724.615234375 731.48046875 724.615234375 731.48046875 726.810546875 747.514648438 c 128,-1,371
 729.006835938 763.549804688 729.006835938 763.549804688 728.24609375 774.034179688 c 128,-1,372
 727.484375 784.51953125 727.484375 784.51953125 721.4375 790.56640625 c 0,373,374
 718.259765625 793.744140625 718.259765625 793.744140625 711.904296875 793.744140625 c 2,375,-1
 623.721679688 793.744140625 l 2,255,256
669.004882812 629.294921875 m 2,376,377
 714.18359375 628.501953125 714.18359375 628.501953125 752.626953125 599.341796875 c 128,-1,378
 791.0703125 570.180664062 791.0703125 570.180664062 805.177734375 526.3125 c 128,-1,379
 819.28515625 482.443359375 819.28515625 482.443359375 800.881835938 430.685546875 c 0,380,381
 779.029296875 377.875 779.029296875 377.875 722.2578125 353.63671875 c 128,-1,382
 665.487304688 329.399414062 665.487304688 329.399414062 611.010742188 352.830078125 c 0,383,384
 580.43359375 366.060546875 580.43359375 366.060546875 558.60546875 393.959960938 c 128,-1,385
 536.77734375 421.860351562 536.77734375 421.860351562 528.53515625 454.662109375 c 128,-1,386
 520.291992188 487.463867188 520.291992188 487.463867188 529.260742188 523.578125 c 128,-1,387
 538.23046875 559.692382812 538.23046875 559.692382812 565.727539062 587.189453125 c 0,388,389
 606.599609375 628.061523438 606.599609375 628.061523438 665.827148438 629.294921875 c 2,390,-1
 669.004882812 629.294921875 l 2,376,377
666.62109375 523.634765625 m 0,391,392
 650.810546875 523.249023438 650.810546875 523.249023438 640.3125 508.764648438 c 128,-1,393
 629.814453125 494.280273438 629.814453125 494.280273438 632.0234375 476.538085938 c 128,-1,394
 634.232421875 458.795898438 634.232421875 458.795898438 650.732421875 450.545898438 c 0,395,396
 671.16015625 440.641601562 671.16015625 440.641601562 691.779296875 458.392578125 c 128,-1,397
 712.3984375 476.142578125 712.3984375 476.142578125 703.166015625 499.801757812 c 0,398,399
 699.0234375 510.453125 699.0234375 510.453125 688.823242188 517.043945312 c 128,-1,400
 678.623046875 523.634765625 678.623046875 523.634765625 666.62109375 523.634765625 c 0,391,392
EndSplineSet
EndChar

StartChar: uni01AD
Encoding: 429 429 24
Width: 1000
VWidth: 1106
Flags: W
LayerCount: 2
Fore
SplineSet
682.993164062 580.395507812 m 0,0,1
 686.149414062 580.395507812 686.149414062 580.395507812 688.516601562 578.02734375 c 0,2,3
 711.401367188 555.931640625 711.401367188 555.931640625 755.594726562 510.161132812 c 0,4,5
 762.345703125 503.41015625 762.345703125 503.41015625 756.383789062 495.956054688 c 0,6,7
 712.19140625 450.711914062 712.19140625 450.711914062 661.890625 400.411132812 c 128,-1,8
 611.58984375 350.110351562 611.58984375 350.110351562 549.94921875 288.995117188 c 128,-1,9
 488.307617188 227.879882812 488.307617188 227.879882812 454.9296875 194.501953125 c 0,10,11
 447.431640625 187.005859375 447.431640625 187.005859375 439.935546875 194.501953125 c 2,12,-1
 247.383789062 387.053710938 l 2,13,14
 240.630859375 393.806640625 240.630859375 393.806640625 246.594726562 401.258789062 c 2,15,-1
 314.4609375 469.125 l 2,16,17
 321.958007812 476.622070312 321.958007812 476.622070312 329.455078125 469.125 c 2,18,-1
 447.038085938 351.54296875 l 1,19,-1
 673.5234375 578.02734375 l 2,20,21
 677.07421875 580.395507812 677.07421875 580.395507812 682.993164062 580.395507812 c 0,0,1
502.438476562 900 m 2,22,23
 614.549804688 899.215820312 614.549804688 899.215820312 718.818359375 847.23828125 c 128,-1,24
 823.086914062 795.260742188 823.086914062 795.260742188 896.595703125 702.076171875 c 128,-1,25
 970.103515625 608.891601562 970.103515625 608.891601562 990.920898438 495.166992188 c 0,26,27
 1011.32910156 385.672851562 1011.32910156 385.672851562 981.91015625 275.1328125 c 128,-1,28
 952.491210938 164.592773438 952.491210938 164.592773438 877.614257812 74.6767578125 c 128,-1,29
 802.737304688 -15.240234375 802.737304688 -15.240234375 696.569335938 -61.181640625 c 0,30,31
 564.232421875 -118.791992188 564.232421875 -118.791992188 413.36328125 -92.0576171875 c 128,-1,32
 262.495117188 -65.3232421875 262.495117188 -65.3232421875 154.424804688 37.4619140625 c 0,33,34
 71.2998046875 117.056640625 71.2998046875 117.056640625 31.140625 229.001953125 c 128,-1,35
 -9.0185546875 340.947265625 -9.0185546875 340.947265625 3.8740234375 461.45703125 c 128,-1,36
 16.765625 581.966796875 16.765625 581.966796875 84.1904296875 679.828125 c 0,37,38
 153.340820312 780.573242188 153.340820312 780.573242188 263.603515625 839.9921875 c 128,-1,39
 373.8671875 899.412109375 373.8671875 899.412109375 496.125 900 c 2,40,-1
 502.438476562 900 l 2,22,23
496.9140625 795.043945312 m 0,41,42
 408.659179688 794.258789062 408.659179688 794.258789062 326.526367188 753.715820312 c 128,-1,43
 244.392578125 713.171875 244.392578125 713.171875 186.186523438 640.399414062 c 128,-1,44
 127.98046875 567.627929688 127.98046875 567.627929688 111.021484375 478.595703125 c 0,45,46
 94.515625 391.7421875 94.515625 391.7421875 117.129882812 304.096679688 c 128,-1,47
 139.744140625 216.452148438 139.744140625 216.452148438 198.557617188 144.8828125 c 128,-1,48
 257.372070312 73.3134765625 257.372070312 73.3134765625 341.452148438 36.6728515625 c 0,49,50
 403.209960938 9.7451171875 403.209960938 9.7451171875 472.857421875 6.484375 c 128,-1,51
 542.505859375 3.2236328125 542.505859375 3.2236328125 607.666015625 21.9169921875 c 128,-1,52
 672.827148438 40.609375 672.827148438 40.609375 731.771484375 82.31640625 c 128,-1,53
 790.716796875 124.0234375 790.716796875 124.0234375 830.723632812 183.454101562 c 0,54,55
 886.227539062 265.926757812 886.227539062 265.926757812 892.99609375 368.416015625 c 128,-1,56
 899.765625 470.905273438 899.765625 470.905273438 855.2578125 567.467773438 c 128,-1,57
 810.750976562 664.030273438 810.750976562 664.030273438 723.400390625 725.598632812 c 0,58,59
 625.705078125 795.043945312 625.705078125 795.043945312 496.9140625 795.043945312 c 0,41,42
EndSplineSet
EndChar

StartChar: uni01AE
Encoding: 430 430 25
Width: 1000
VWidth: 1106
Flags: W
LayerCount: 2
Fore
SplineSet
623.068359375 609.59375 m 128,-1,1
 628.065429688 609.59375 628.065429688 609.59375 630.169921875 606.4375 c 0,2,3
 656.211914062 582.762695312 656.211914062 582.762695312 705.139648438 532.256835938 c 0,4,5
 711.8828125 525.513671875 711.8828125 525.513671875 704.350585938 516.474609375 c 2,6,-1
 585.978515625 398.102539062 l 1,7,8
 606.088867188 377.991210938 606.088867188 377.991210938 646.334960938 337.350585938 c 128,-1,9
 686.58203125 296.708984375 686.58203125 296.708984375 706.717773438 276.573242188 c 0,10,11
 715.002929688 268.288085938 715.002929688 268.288085938 706.717773438 260.000976562 c 2,12,-1
 634.116210938 187.399414062 l 2,13,14
 625.077148438 179.868164062 625.077148438 179.868164062 617.543945312 187.399414062 c 2,15,-1
 496.015625 308.928710938 l 1,16,-1
 376.064453125 188.978515625 l 2,17,18
 367.779296875 180.69140625 367.779296875 180.69140625 360.282226562 188.188476562 c 0,19,20
 360.219726562 188.249023438 360.219726562 188.249023438 286.891601562 261.580078125 c 0,21,22
 278.999023438 269.470703125 278.999023438 269.470703125 286.891601562 277.362304688 c 2,23,-1
 406.841796875 398.102539062 l 1,24,-1
 289.258789062 515.685546875 l 2,25,26
 281.756835938 523.1875 281.756835938 523.1875 287.134765625 529.139648438 c 0,27,28
 288.041015625 530.143554688 288.041015625 530.143554688 288.469726562 530.678710938 c 0,29,30
 325.350585938 568.750976562 325.350585938 568.750976562 363.438476562 605.6484375 c 0,31,32
 370.181640625 612.391601562 370.181640625 612.391601562 379.221679688 604.858398438 c 2,33,-1
 496.015625 487.275390625 l 1,34,35
 507.913085938 499.172851562 507.913085938 499.172851562 532.86328125 524.80078125 c 128,-1,36
 557.813476562 550.428710938 557.813476562 550.428710938 577.5390625 569.96484375 c 128,-1,37
 597.264648438 589.5 597.264648438 589.5 615.965820312 606.4375 c 0,38,0
 618.0703125 609.59375 618.0703125 609.59375 623.068359375 609.59375 c 128,-1,1
502.438476562 900 m 2,39,40
 614.549804688 899.215820312 614.549804688 899.215820312 718.818359375 847.23828125 c 128,-1,41
 823.086914062 795.260742188 823.086914062 795.260742188 896.595703125 702.076171875 c 128,-1,42
 970.103515625 608.891601562 970.103515625 608.891601562 990.920898438 495.166992188 c 0,43,44
 1011.32910156 385.672851562 1011.32910156 385.672851562 981.91015625 275.1328125 c 128,-1,45
 952.491210938 164.592773438 952.491210938 164.592773438 877.614257812 74.6767578125 c 128,-1,46
 802.737304688 -15.240234375 802.737304688 -15.240234375 696.569335938 -61.181640625 c 0,47,48
 564.232421875 -118.791992188 564.232421875 -118.791992188 413.36328125 -92.0576171875 c 128,-1,49
 262.495117188 -65.3232421875 262.495117188 -65.3232421875 154.424804688 37.4619140625 c 0,50,51
 71.2998046875 117.056640625 71.2998046875 117.056640625 31.140625 229.001953125 c 128,-1,52
 -9.0185546875 340.947265625 -9.0185546875 340.947265625 3.8740234375 461.45703125 c 128,-1,53
 16.765625 581.966796875 16.765625 581.966796875 84.1904296875 679.828125 c 0,54,55
 153.340820312 780.573242188 153.340820312 780.573242188 263.603515625 839.9921875 c 128,-1,56
 373.8671875 899.412109375 373.8671875 899.412109375 496.125 900 c 2,57,-1
 502.438476562 900 l 2,39,40
496.9140625 795.043945312 m 0,58,59
 408.659179688 794.258789062 408.659179688 794.258789062 326.526367188 753.715820312 c 128,-1,60
 244.392578125 713.171875 244.392578125 713.171875 186.186523438 640.399414062 c 128,-1,61
 127.98046875 567.627929688 127.98046875 567.627929688 111.021484375 478.595703125 c 0,62,63
 94.515625 391.7421875 94.515625 391.7421875 117.129882812 304.096679688 c 128,-1,64
 139.744140625 216.452148438 139.744140625 216.452148438 198.557617188 144.8828125 c 128,-1,65
 257.372070312 73.3134765625 257.372070312 73.3134765625 341.452148438 36.6728515625 c 0,66,67
 403.209960938 9.7451171875 403.209960938 9.7451171875 472.857421875 6.484375 c 128,-1,68
 542.505859375 3.2236328125 542.505859375 3.2236328125 607.666015625 21.9169921875 c 128,-1,69
 672.827148438 40.609375 672.827148438 40.609375 731.771484375 82.31640625 c 128,-1,70
 790.716796875 124.0234375 790.716796875 124.0234375 830.723632812 183.454101562 c 0,71,72
 886.227539062 265.926757812 886.227539062 265.926757812 892.99609375 368.416015625 c 128,-1,73
 899.765625 470.905273438 899.765625 470.905273438 855.2578125 567.467773438 c 128,-1,74
 810.750976562 664.030273438 810.750976562 664.030273438 723.400390625 725.598632812 c 0,75,76
 625.705078125 795.043945312 625.705078125 795.043945312 496.9140625 795.043945312 c 0,58,59
EndSplineSet
EndChar

StartChar: Uhorn
Encoding: 431 431 26
Width: 1000
VWidth: 1106
Flags: W
LayerCount: 2
Fore
SplineSet
659.370117188 593.51171875 m 0,0,1
 665.338867188 593.51171875 665.338867188 593.51171875 672.448242188 591.141601562 c 128,-1,2
 679.557617188 588.771484375 679.557617188 588.771484375 683.682617188 586.40234375 c 2,3,-1
 687.807617188 584.032226562 l 1,4,5
 702.258789062 569.583007812 702.258789062 569.583007812 699.65625 550.065429688 c 0,6,7
 699.65625 543.220703125 699.65625 543.220703125 689.387695312 529.528320312 c 0,8,9
 559.564453125 326.189453125 559.564453125 326.189453125 485.587890625 226.19921875 c 0,10,11
 483.282226562 222.57421875 483.282226562 222.57421875 479.153320312 217.393554688 c 128,-1,12
 475.024414062 212.213867188 475.024414062 212.213867188 462.796875 204.98828125 c 128,-1,13
 450.569335938 197.76171875 450.569335938 197.76171875 438.983398438 200.921875 c 0,14,15
 433.094726562 202.506835938 433.094726562 202.506835938 428.002929688 205.66015625 c 128,-1,16
 422.912109375 208.8125 422.912109375 208.8125 417.829101562 214.724609375 c 128,-1,17
 412.747070312 220.635742188 412.747070312 220.635742188 409.993164062 224.276367188 c 128,-1,18
 407.239257812 227.916992188 407.239257812 227.916992188 401.525390625 236.752929688 c 128,-1,19
 395.8125 245.588867188 395.8125 245.588867188 393.958007812 248.31640625 c 0,20,21
 329.184570312 341.52734375 329.184570312 341.52734375 302.327148438 391.291992188 c 0,22,23
 301.931640625 392.08203125 301.931640625 392.08203125 301.141601562 393.267578125 c 128,-1,24
 300.3515625 394.452148438 300.3515625 394.452148438 299.95703125 395.241210938 c 0,25,26
 292.84375 409.094726562 292.84375 409.094726562 304.78515625 423.15234375 c 128,-1,27
 316.725585938 437.208984375 316.725585938 437.208984375 333.8359375 440.00390625 c 128,-1,28
 350.946289062 442.797851562 350.946289062 442.797851562 363.940429688 433.158203125 c 0,29,30
 381.684570312 414.548828125 381.684570312 414.548828125 407.3203125 374.091796875 c 128,-1,31
 432.95703125 333.634765625 432.95703125 333.634765625 445.302734375 318.619140625 c 0,32,33
 448.654296875 315.267578125 448.654296875 315.267578125 450.4140625 319.432617188 c 0,34,35
 451.486328125 321.970703125 451.486328125 321.970703125 452.412109375 323.359375 c 0,36,37
 480.930664062 362.90625 480.930664062 362.90625 536.487304688 447.526367188 c 128,-1,38
 592.043945312 532.146484375 592.043945312 532.146484375 623.034179688 574.553710938 c 0,39,40
 638.873046875 593.51171875 638.873046875 593.51171875 659.370117188 593.51171875 c 0,0,1
502.438476562 900 m 2,41,42
 614.549804688 899.215820312 614.549804688 899.215820312 718.818359375 847.23828125 c 128,-1,43
 823.086914062 795.260742188 823.086914062 795.260742188 896.595703125 702.076171875 c 128,-1,44
 970.103515625 608.891601562 970.103515625 608.891601562 990.920898438 495.166992188 c 0,45,46
 1011.32910156 385.672851562 1011.32910156 385.672851562 981.91015625 275.1328125 c 128,-1,47
 952.491210938 164.592773438 952.491210938 164.592773438 877.614257812 74.6767578125 c 128,-1,48
 802.737304688 -15.240234375 802.737304688 -15.240234375 696.569335938 -61.181640625 c 0,49,50
 564.232421875 -118.791992188 564.232421875 -118.791992188 413.36328125 -92.0576171875 c 128,-1,51
 262.495117188 -65.3232421875 262.495117188 -65.3232421875 154.424804688 37.4619140625 c 0,52,53
 71.2998046875 117.056640625 71.2998046875 117.056640625 31.140625 229.001953125 c 128,-1,54
 -9.0185546875 340.947265625 -9.0185546875 340.947265625 3.8740234375 461.45703125 c 128,-1,55
 16.765625 581.966796875 16.765625 581.966796875 84.1904296875 679.828125 c 0,56,57
 153.340820312 780.573242188 153.340820312 780.573242188 263.603515625 839.9921875 c 128,-1,58
 373.8671875 899.412109375 373.8671875 899.412109375 496.125 900 c 2,59,-1
 502.438476562 900 l 2,41,42
496.9140625 795.043945312 m 0,60,61
 408.659179688 794.258789062 408.659179688 794.258789062 326.526367188 753.715820312 c 128,-1,62
 244.392578125 713.171875 244.392578125 713.171875 186.186523438 640.399414062 c 128,-1,63
 127.98046875 567.627929688 127.98046875 567.627929688 111.021484375 478.595703125 c 0,64,65
 94.515625 391.7421875 94.515625 391.7421875 117.129882812 304.096679688 c 128,-1,66
 139.744140625 216.452148438 139.744140625 216.452148438 198.557617188 144.8828125 c 128,-1,67
 257.372070312 73.3134765625 257.372070312 73.3134765625 341.452148438 36.6728515625 c 0,68,69
 403.209960938 9.7451171875 403.209960938 9.7451171875 472.857421875 6.484375 c 128,-1,70
 542.505859375 3.2236328125 542.505859375 3.2236328125 607.666015625 21.9169921875 c 128,-1,71
 672.827148438 40.609375 672.827148438 40.609375 731.771484375 82.31640625 c 128,-1,72
 790.716796875 124.0234375 790.716796875 124.0234375 830.723632812 183.454101562 c 0,73,74
 886.227539062 265.926757812 886.227539062 265.926757812 892.99609375 368.416015625 c 128,-1,75
 899.765625 470.905273438 899.765625 470.905273438 855.2578125 567.467773438 c 128,-1,76
 810.750976562 664.030273438 810.750976562 664.030273438 723.400390625 725.598632812 c 0,77,78
 625.705078125 795.043945312 625.705078125 795.043945312 496.9140625 795.043945312 c 0,60,61
EndSplineSet
EndChar

StartChar: uhorn
Encoding: 432 432 27
Width: 1000
VWidth: 1106
Flags: W
LayerCount: 2
Fore
SplineSet
368.03515625 590.59765625 m 0,0,1
 382.451171875 590.3203125 382.451171875 590.3203125 396.8515625 580.030273438 c 128,-1,2
 411.252929688 569.740234375 411.252929688 569.740234375 419.541015625 559.357421875 c 128,-1,3
 427.830078125 548.974609375 427.830078125 548.974609375 442.75390625 527.098632812 c 128,-1,4
 457.678710938 505.22265625 457.678710938 505.22265625 463.5390625 497.4609375 c 0,5,6
 467.728515625 491.411132812 467.728515625 491.411132812 476.034179688 480.701171875 c 128,-1,7
 484.33984375 469.991210938 484.33984375 469.991210938 485.639648438 468.2578125 c 2,8,-1
 510.897460938 497.4609375 l 2,9,10
 545.545898438 538.41015625 545.545898438 538.41015625 595.3515625 584.283203125 c 0,11,12
 610.676757812 593.095703125 610.676757812 593.095703125 631.015625 587.440429688 c 128,-1,13
 651.353515625 581.78515625 651.353515625 581.78515625 659.663085938 567.971679688 c 128,-1,14
 667.973632812 554.157226562 667.973632812 554.157226562 658.494140625 536.92578125 c 0,15,16
 646.87890625 514.399414062 646.87890625 514.399414062 628.38671875 492.38671875 c 128,-1,17
 609.893554688 470.374023438 609.893554688 470.374023438 582.57421875 442.549804688 c 128,-1,18
 555.25390625 414.725585938 555.25390625 414.725585938 540.889648438 398.010742188 c 1,19,-1
 555.09765625 381.435546875 l 2,20,21
 631.140625 293.293945312 631.140625 293.293945312 657.705078125 258.305664062 c 0,22,23
 668.431640625 241.833984375 668.431640625 241.833984375 654.28515625 223.986328125 c 128,-1,24
 640.138671875 206.138671875 640.138671875 206.138671875 617.71484375 204.224609375 c 128,-1,25
 595.291015625 202.310546875 595.291015625 202.310546875 574.830078125 221.998046875 c 0,26,27
 559.842773438 240.140625 559.842773438 240.140625 529.455078125 276.448242188 c 128,-1,28
 499.06640625 312.755859375 499.06640625 312.755859375 484.061523438 330.920898438 c 1,29,30
 422.5 255.153320312 422.5 255.153320312 392.502929688 216.473632812 c 0,31,32
 389.348632812 213.317382812 389.348632812 213.317382812 387.767578125 212.52734375 c 0,33,34
 374.338867188 203.065429688 374.338867188 203.065429688 361.107421875 207.060546875 c 128,-1,35
 347.875 211.055664062 347.875 211.055664062 338.65625 219.30859375 c 128,-1,36
 329.436523438 227.5625 329.436523438 227.5625 326.203125 235.416015625 c 0,37,38
 323.088867188 242.135742188 323.088867188 242.135742188 322.748046875 249.249023438 c 128,-1,39
 322.407226562 256.361328125 322.407226562 256.361328125 325.12890625 263.853515625 c 128,-1,40
 327.8515625 271.345703125 327.8515625 271.345703125 331.3359375 277.966796875 c 128,-1,41
 334.8203125 284.588867188 334.8203125 284.588867188 341.26953125 292.944335938 c 128,-1,42
 347.717773438 301.30078125 347.717773438 301.30078125 352.791992188 307.34765625 c 128,-1,43
 357.865234375 313.395507812 357.865234375 313.395507812 365.803710938 322.533203125 c 128,-1,44
 373.743164062 331.669921875 373.743164062 331.669921875 378.295898438 337.235351562 c 0,45,46
 386.583984375 347.49609375 386.583984375 347.49609375 403.552734375 368.017578125 c 128,-1,47
 420.5234375 388.5390625 420.5234375 388.5390625 428.810546875 398.799804688 c 1,48,49
 369.923828125 470.215820312 369.923828125 470.215820312 327.78125 540.083007812 c 0,50,51
 326.203125 543.240234375 326.203125 543.240234375 326.203125 544.818359375 c 0,52,53
 320.154296875 561.75390625 320.154296875 561.75390625 332.7734375 576.17578125 c 128,-1,54
 345.392578125 590.59765625 345.392578125 590.59765625 368.03515625 590.59765625 c 0,0,1
502.438476562 900 m 2,55,56
 614.549804688 899.215820312 614.549804688 899.215820312 718.818359375 847.23828125 c 128,-1,57
 823.086914062 795.260742188 823.086914062 795.260742188 896.595703125 702.076171875 c 128,-1,58
 970.103515625 608.891601562 970.103515625 608.891601562 990.920898438 495.166992188 c 0,59,60
 1011.32910156 385.672851562 1011.32910156 385.672851562 981.91015625 275.1328125 c 128,-1,61
 952.491210938 164.592773438 952.491210938 164.592773438 877.614257812 74.6767578125 c 128,-1,62
 802.737304688 -15.240234375 802.737304688 -15.240234375 696.569335938 -61.181640625 c 0,63,64
 564.232421875 -118.791992188 564.232421875 -118.791992188 413.36328125 -92.0576171875 c 128,-1,65
 262.495117188 -65.3232421875 262.495117188 -65.3232421875 154.424804688 37.4619140625 c 0,66,67
 71.2998046875 117.056640625 71.2998046875 117.056640625 31.140625 229.001953125 c 128,-1,68
 -9.0185546875 340.947265625 -9.0185546875 340.947265625 3.8740234375 461.45703125 c 128,-1,69
 16.765625 581.966796875 16.765625 581.966796875 84.1904296875 679.828125 c 0,70,71
 153.340820312 780.573242188 153.340820312 780.573242188 263.603515625 839.9921875 c 128,-1,72
 373.8671875 899.412109375 373.8671875 899.412109375 496.125 900 c 2,73,-1
 502.438476562 900 l 2,55,56
496.9140625 795.043945312 m 0,74,75
 408.659179688 794.258789062 408.659179688 794.258789062 326.526367188 753.715820312 c 128,-1,76
 244.392578125 713.171875 244.392578125 713.171875 186.186523438 640.399414062 c 128,-1,77
 127.98046875 567.627929688 127.98046875 567.627929688 111.021484375 478.595703125 c 0,78,79
 94.515625 391.7421875 94.515625 391.7421875 117.129882812 304.096679688 c 128,-1,80
 139.744140625 216.452148438 139.744140625 216.452148438 198.557617188 144.8828125 c 128,-1,81
 257.372070312 73.3134765625 257.372070312 73.3134765625 341.452148438 36.6728515625 c 0,82,83
 403.209960938 9.7451171875 403.209960938 9.7451171875 472.857421875 6.484375 c 128,-1,84
 542.505859375 3.2236328125 542.505859375 3.2236328125 607.666015625 21.9169921875 c 128,-1,85
 672.827148438 40.609375 672.827148438 40.609375 731.771484375 82.31640625 c 128,-1,86
 790.716796875 124.0234375 790.716796875 124.0234375 830.723632812 183.454101562 c 0,87,88
 886.227539062 265.926757812 886.227539062 265.926757812 892.99609375 368.416015625 c 128,-1,89
 899.765625 470.905273438 899.765625 470.905273438 855.2578125 567.467773438 c 128,-1,90
 810.750976562 664.030273438 810.750976562 664.030273438 723.400390625 725.598632812 c 0,91,92
 625.705078125 795.043945312 625.705078125 795.043945312 496.9140625 795.043945312 c 0,74,75
EndSplineSet
EndChar

StartChar: aringacute
Encoding: 507 507 28
Width: 1000
VWidth: 1100
Flags: W
LayerCount: 2
Fore
SplineSet
490.241210938 900 m 2,0,1
 372.639648438 899.6015625 372.639648438 899.6015625 264.461914062 842.787109375 c 128,-1,2
 156.284179688 785.97265625 156.284179688 785.97265625 83.1416015625 684.984375 c 128,-1,3
 9.998046875 583.995117188 9.998046875 583.995117188 -4.916015625 462.71875 c 0,4,5
 -16.5 369.645507812 -16.5 369.645507812 7.677734375 277.255859375 c 128,-1,6
 31.8544921875 184.866210938 31.8544921875 184.866210938 88.595703125 106.40234375 c 128,-1,7
 145.336914062 27.9384765625 145.336914062 27.9384765625 226.5859375 -22.7919921875 c 0,8,9
 312.176757812 -75.9814453125 312.176757812 -75.9814453125 410.361328125 -92.826171875 c 128,-1,10
 508.544921875 -109.669921875 508.544921875 -109.669921875 609.20703125 -86.294921875 c 0,11,12
 664.026367188 -73.5029296875 664.026367188 -73.5029296875 700.509765625 -27.173828125 c 128,-1,13
 736.9921875 19.15625 736.9921875 19.15625 734.604492188 75.2744140625 c 0,14,15
 731.541015625 144.505859375 731.541015625 144.505859375 672.267578125 191.353515625 c 128,-1,16
 612.994140625 238.201171875 612.994140625 238.201171875 544.09765625 221.571289062 c 0,17,18
 466.424804688 203.55078125 466.424804688 203.55078125 399.493164062 239.825195312 c 128,-1,19
 332.561523438 276.099609375 332.561523438 276.099609375 312.595703125 354.202148438 c 0,20,21
 298.921875 406.885742188 298.921875 406.885742188 317.711914062 460.692382812 c 128,-1,22
 336.501953125 514.498046875 336.501953125 514.498046875 384.377929688 550.486328125 c 128,-1,23
 432.25390625 586.474609375 432.25390625 586.474609375 495.063476562 585.704101562 c 1,24,25
 483.033203125 540.620117188 483.033203125 540.620117188 496.671875 505.321289062 c 0,26,27
 514.17578125 462.80859375 514.17578125 462.80859375 556.154296875 441.819335938 c 1,28,-1
 555.350585938 442.623046875 l 1,29,30
 570.942382812 434.34375 570.942382812 434.34375 672.977539062 380.854492188 c 128,-1,31
 775.01171875 327.365234375 775.01171875 327.365234375 828.651367188 297.934570312 c 0,32,33
 857.640625 284.26953125 857.640625 284.26953125 883.311523438 284.26953125 c 0,34,35
 931.981445312 284.26953125 931.981445312 284.26953125 968.221679688 322.165039062 c 128,-1,36
 1004.46289062 360.060546875 1004.46289062 360.060546875 1001.47460938 409.666015625 c 2,37,-1
 1001.47460938 411.2734375 l 1,38,-1
 990.220703125 722.354492188 l 2,39,40
 989.463867188 726.046875 989.463867188 726.046875 987.788085938 732.2734375 c 128,-1,41
 986.111328125 738.499023438 986.111328125 738.499023438 979.014648438 755.0703125 c 128,-1,42
 971.916992188 771.642578125 971.916992188 771.642578125 962.682617188 785.197265625 c 128,-1,43
 953.448242188 798.750976562 953.448242188 798.750976562 936.546875 812.045898438 c 128,-1,44
 919.64453125 825.340820312 919.64453125 825.340820312 899.388671875 830.067382812 c 0,45,46
 852.165039062 840.799804688 852.165039062 840.799804688 810.1640625 815.598632812 c 2,47,-1
 790.068359375 802.737304688 l 2,48,49
 787.65625 804.344726562 787.65625 804.344726562 784.44140625 807.559570312 c 0,50,51
 657.524414062 898.743164062 657.524414062 898.743164062 496.671875 900 c 2,52,-1
 490.241210938 900 l 2,0,1
495.868164062 793.090820312 m 0,53,54
 575.188476562 792.485351562 575.188476562 792.485351562 649.086914062 760.30859375 c 128,-1,55
 722.986328125 728.131835938 722.986328125 728.131835938 778.814453125 669.301757812 c 1,56,57
 851.139648438 715.510742188 851.139648438 715.510742188 865.627929688 723.961914062 c 0,58,59
 871.053710938 726.9765625 871.053710938 726.9765625 876.880859375 724.0625 c 128,-1,60
 882.708984375 721.1484375 882.708984375 721.1484375 883.311523438 715.120117188 c 2,61,-1
 894.565429688 403.235351562 l 2,62,63
 895.178710938 397.103515625 895.178710938 397.103515625 889.801757812 393.4609375 c 128,-1,64
 884.423828125 389.818359375 884.423828125 389.818359375 878.489257812 392.786132812 c 0,65,66
 824.526367188 422.87109375 824.526367188 422.87109375 718.770507812 478.047851562 c 128,-1,67
 613.014648438 533.225585938 613.014648438 533.225585938 601.97265625 539.08203125 c 0,68,69
 596.6796875 542.196289062 596.6796875 542.196289062 596.848632812 548.426757812 c 128,-1,70
 597.016601562 554.657226562 597.016601562 554.657226562 601.97265625 558.374023438 c 2,71,-1
 691.197265625 614.641601562 l 1,72,73
 629.239257812 671.403320312 629.239257812 671.403320312 542.681640625 685.901367188 c 128,-1,74
 456.125 700.399414062 456.125 700.399414062 372.421875 665.295898438 c 128,-1,75
 288.719726562 630.193359375 288.719726562 630.193359375 241.0546875 551.139648438 c 0,76,77
 207.97265625 496.30078125 207.97265625 496.30078125 203.079101562 429.049804688 c 128,-1,78
 198.184570312 361.797851562 198.184570312 361.797851562 219.158203125 300.467773438 c 128,-1,79
 240.131835938 239.13671875 240.131835938 239.13671875 290.720703125 188.831054688 c 128,-1,80
 341.310546875 138.525390625 341.310546875 138.525390625 412.26953125 117.876953125 c 0,81,82
 483.883789062 96.392578125 483.883789062 96.392578125 560.173828125 115.465820312 c 0,83,84
 564.274414062 114.90234375 564.274414062 114.90234375 575.565429688 115.704101562 c 128,-1,85
 586.856445312 116.505859375 586.856445312 116.505859375 602.389648438 109.333007812 c 128,-1,86
 617.921875 102.16015625 617.921875 102.16015625 623.67578125 88.1357421875 c 0,87,88
 632.799804688 66.8466796875 632.799804688 66.8466796875 620.190429688 45.1123046875 c 128,-1,89
 607.580078125 23.376953125 607.580078125 23.376953125 581.876953125 17.3994140625 c 0,90,91
 496.94921875 -2.1376953125 496.94921875 -2.1376953125 409.288085938 17.42578125 c 128,-1,92
 321.627929688 36.9892578125 321.627929688 36.9892578125 249.395507812 92.1279296875 c 128,-1,93
 177.162109375 147.267578125 177.162109375 147.267578125 138.96875 227.197265625 c 0,94,95
 103.45703125 301.50390625 103.45703125 301.50390625 103.315429688 388.444335938 c 128,-1,96
 103.174804688 475.385742188 103.174804688 475.385742188 134.267578125 553.03125 c 128,-1,97
 165.360351562 630.676757812 165.360351562 630.676757812 231.903320312 692.818359375 c 128,-1,98
 298.446289062 754.959960938 298.446289062 754.959960938 388.155273438 779.42578125 c 0,99,100
 441.569335938 793.090820312 441.569335938 793.090820312 495.868164062 793.090820312 c 0,53,54
532.84375 219.159179688 m 1,101,-1
 532.84375 219.159179688 l 1,101,-1
929.129882812 486.833007812 m 1,102,-1
 929.129882812 486.833007812 l 1,102,-1
EndSplineSet
EndChar

StartChar: AEacute
Encoding: 508 508 29
Width: 1000
VWidth: 1100
LayerCount: 2
Fore
SplineSet
278.024414062 779.838867188 m 0,0,1
 301.334960938 779.03515625 301.334960938 779.03515625 332.403320312 764.610351562 c 128,-1,2
 363.471679688 750.186523438 363.471679688 750.186523438 382.149414062 721.369140625 c 0,3,4
 383.75 718.166015625 383.75 718.166015625 384.552734375 717.364257812 c 0,5,6
 408.1953125 676.08984375 408.1953125 676.08984375 455.8515625 593.590820312 c 128,-1,7
 503.508789062 511.091796875 503.508789062 511.091796875 527.123046875 469.8671875 c 0,8,9
 541.384765625 444.612304688 541.384765625 444.612304688 543.715820312 414.88671875 c 128,-1,10
 546.046875 385.161132812 546.046875 385.161132812 537.337890625 358.634765625 c 128,-1,11
 528.62890625 332.109375 528.62890625 332.109375 507.322265625 310.9375 c 128,-1,12
 486.015625 289.766601562 486.015625 289.766601562 455.837890625 281.641601562 c 1,13,14
 464.642578125 266.330078125 464.642578125 266.330078125 479.18359375 254.802734375 c 128,-1,15
 493.725585938 243.275390625 493.725585938 243.275390625 507.749023438 236.9609375 c 128,-1,16
 521.772460938 230.646484375 521.772460938 230.646484375 542.377929688 226.079101562 c 128,-1,17
 562.983398438 221.51171875 562.983398438 221.51171875 575.859375 220.051757812 c 128,-1,18
 588.736328125 218.592773438 588.736328125 218.592773438 609.577148438 216.845703125 c 128,-1,19
 630.41796875 215.098632812 630.41796875 215.098632812 636.854492188 214.360351562 c 0,20,21
 684.662109375 208.434570312 684.662109375 208.434570312 721.579101562 171.850585938 c 128,-1,22
 758.495117188 135.266601562 758.495117188 135.266601562 768.390625 86.2666015625 c 128,-1,23
 778.286132812 37.2666015625 778.286132812 37.2666015625 756.999023438 -15.5146484375 c 0,24,25
 736.8046875 -59.3642578125 736.8046875 -59.3642578125 689.802734375 -81.0693359375 c 128,-1,26
 642.799804688 -102.774414062 642.799804688 -102.774414062 587.1953125 -99.615234375 c 0,27,28
 428.26953125 -91.7294921875 428.26953125 -91.7294921875 298.1953125 13.1884765625 c 128,-1,29
 168.122070312 118.107421875 168.122070312 118.107421875 128.245117188 275.233398438 c 0,30,31
 124.791992188 275.53125 124.791992188 275.53125 118.880859375 276.3828125 c 128,-1,32
 112.969726562 277.235351562 112.969726562 277.235351562 96.64453125 281.811523438 c 128,-1,33
 80.3193359375 286.387695312 80.3193359375 286.387695312 66.197265625 293.1328125 c 128,-1,34
 52.0751953125 299.877929688 52.0751953125 299.877929688 36.4638671875 313.36328125 c 128,-1,35
 20.8525390625 326.84765625 20.8525390625 326.84765625 12.10546875 344.116210938 c 0,36,37
 -1.822265625 373.8359375 -1.822265625 373.8359375 0.2919921875 405.690429688 c 128,-1,38
 2.4052734375 437.544921875 2.4052734375 437.544921875 18.513671875 466.663085938 c 0,39,40
 38.5068359375 501.905273438 38.5068359375 501.905273438 161.885742188 715.76171875 c 0,41,42
 179.319335938 745.819335938 179.319335938 745.819335938 210.663085938 763.12890625 c 128,-1,43
 242.0078125 780.439453125 242.0078125 780.439453125 278.024414062 779.838867188 c 0,0,1
274.01953125 673.311523438 m 0,44,45
 260.225585938 673.311523438 260.225585938 673.311523438 253.99609375 662.09765625 c 0,46,47
 149.6015625 481.619140625 149.6015625 481.619140625 112.225585938 414.600585938 c 0,48,49
 102.212890625 399.583007812 102.212890625 399.583007812 108.220703125 390.572265625 c 0,50,51
 113.828125 383.36328125 113.828125 383.36328125 132.25 383.36328125 c 2,52,-1
 220.35546875 383.36328125 l 1,53,54
 225.821289062 262.516601562 225.821289062 262.516601562 303.38671875 160.263671875 c 128,-1,55
 380.952148438 58.0107421875 380.952148438 58.0107421875 497.487304688 22.931640625 c 0,56,57
 563.154296875 2.8291015625 563.154296875 2.8291015625 620.03515625 6.111328125 c 0,58,59
 646.096679688 7.55859375 646.096679688 7.55859375 656.87890625 23.732421875 c 0,60,61
 664.817382812 34.845703125 664.817382812 34.845703125 667.01171875 49.0458984375 c 128,-1,62
 669.20703125 63.24609375 669.20703125 63.24609375 664.900390625 76.6455078125 c 128,-1,63
 660.594726562 90.044921875 660.594726562 90.044921875 650.470703125 98.2216796875 c 0,64,65
 637.65625 108.633789062 637.65625 108.633789062 603.21484375 108.633789062 c 0,66,67
 435.874023438 113.077148438 435.874023438 113.077148438 368.533203125 219.967773438 c 0,68,69
 329.325195312 283.546875 329.325195312 283.546875 323.6796875 380.9609375 c 1,70,-1
 323.6796875 383.36328125 l 1,71,-1
 418.192382812 383.36328125 l 2,72,73
 435.065429688 385.049804688 435.065429688 385.049804688 439.017578125 391.373046875 c 0,74,75
 444.100585938 399.844726562 444.100585938 399.844726562 435.012695312 416.203125 c 0,76,77
 417.986328125 446.439453125 417.986328125 446.439453125 293.243164062 662.09765625 c 0,78,79
 286.233398438 673.311523438 286.233398438 673.311523438 274.01953125 673.311523438 c 0,44,45
616.831054688 899.982421875 m 0,80,81
 724.2578125 899.186523438 724.2578125 899.186523438 824.130859375 852.29296875 c 128,-1,82
 924.00390625 805.400390625 924.00390625 805.400390625 997.168945312 720.466796875 c 128,-1,83
 1070.33300781 635.533203125 1070.33300781 635.533203125 1098.20800781 529.138671875 c 0,84,85
 1102.01855469 528.807617188 1102.01855469 528.807617188 1108.50488281 527.854492188 c 128,-1,86
 1114.99121094 526.900390625 1114.99121094 526.900390625 1132.66210938 521.75390625 c 128,-1,87
 1150.33300781 516.606445312 1150.33300781 516.606445312 1165.31542969 509.002929688 c 128,-1,88
 1180.296875 501.399414062 1180.296875 501.399414062 1196.20117188 486.177734375 c 128,-1,89
 1212.10449219 470.95703125 1212.10449219 470.95703125 1219.95410156 451.4453125 c 0,90,91
 1241.78027344 395.665039062 1241.78027344 395.665039062 1207.93945312 336.106445312 c 2,92,-1
 1136.65429688 213.559570312 l 1,93,-1
 1065.36816406 91.0126953125 l 2,94,95
 1046.89941406 61.3466796875 1046.89941406 61.3466796875 1022.91796875 46.1591796875 c 0,96,97
 981.096679688 19.369140625 981.096679688 19.369140625 927.203125 30.94140625 c 128,-1,98
 873.309570312 42.513671875 873.309570312 42.513671875 845.905273438 85.40625 c 0,99,100
 845.10546875 86.6064453125 845.10546875 86.6064453125 844.3046875 88.208984375 c 128,-1,101
 843.502929688 89.810546875 843.502929688 89.810546875 842.701171875 91.0126953125 c 2,102,-1
 772.216796875 213.559570312 l 2,103,104
 760.20703125 233.9765625 760.20703125 233.9765625 736.579101562 275.225585938 c 128,-1,105
 712.951171875 316.475585938 712.951171875 316.475585938 700.931640625 336.908203125 c 0,106,107
 698.331054688 341.581054688 698.331054688 341.581054688 694.563476562 349.579101562 c 128,-1,108
 690.795898438 357.577148438 690.795898438 357.577148438 685.139648438 378.96875 c 128,-1,109
 679.483398438 400.361328125 679.483398438 400.361328125 680.907226562 417.8046875 c 0,110,111
 683.899414062 453.7109375 683.899414062 453.7109375 707.765625 482.79296875 c 128,-1,112
 731.6328125 511.875976562 731.6328125 511.875976562 766.610351562 522.73046875 c 1,113,114
 755.368164062 540.374023438 755.368164062 540.374023438 740.979492188 551.565429688 c 0,115,116
 725.874023438 563.313476562 725.874023438 563.313476562 704.21484375 570.333007812 c 128,-1,117
 682.5546875 577.3515625 682.5546875 577.3515625 666.76171875 579.203125 c 128,-1,118
 650.967773438 581.053710938 650.967773438 581.053710938 625.020507812 582.647460938 c 128,-1,119
 599.072265625 584.241210938 599.072265625 584.241210938 590.399414062 585.205078125 c 0,120,121
 553.05859375 589.909179688 553.05859375 589.909179688 521.478515625 613.96484375 c 128,-1,122
 489.899414062 638.01953125 489.899414062 638.01953125 473.358398438 672.309570312 c 128,-1,123
 456.818359375 706.599609375 456.818359375 706.599609375 455.124023438 747.173828125 c 128,-1,124
 453.430664062 787.749023438 453.430664062 787.749023438 475.862304688 825.493164062 c 0,125,126
 496.002929688 861.03515625 496.002929688 861.03515625 534.158203125 880.814453125 c 128,-1,127
 572.313476562 900.592773438 572.313476562 900.592773438 616.831054688 899.982421875 c 0,80,81
612.826171875 793.455078125 m 2,128,129
 585.059570312 793.455078125 585.059570312 793.455078125 571.17578125 777.435546875 c 0,130,131
 558.36328125 760.775390625 558.36328125 760.775390625 559.862304688 737.288085938 c 128,-1,132
 561.362304688 713.80078125 561.362304688 713.80078125 576.783203125 701.344726562 c 0,133,134
 586.193359375 694.10546875 586.193359375 694.10546875 597.328125 691.836914062 c 128,-1,135
 608.461914062 689.568359375 608.461914062 689.568359375 627.522460938 689.760742188 c 128,-1,136
 646.583984375 689.953125 646.583984375 689.953125 654.475585938 689.330078125 c 0,137,138
 717.653320312 684.172851562 717.653320312 684.172851562 771.020507812 657.489257812 c 128,-1,139
 824.387695312 630.805664062 824.387695312 630.805664062 856.318359375 581.200195312 c 0,140,141
 895.166015625 520.302734375 895.166015625 520.302734375 903.57421875 425.013671875 c 1,142,-1
 903.57421875 422.610351562 l 1,143,-1
 809.862304688 422.610351562 l 2,144,145
 792.98828125 420.923828125 792.98828125 420.923828125 789.037109375 414.600585938 c 0,146,147
 784.000976562 406.685546875 784.000976562 406.685546875 793.842773438 388.969726562 c 2,148,-1
 864.327148438 267.224609375 l 2,149,150
 872.336914062 253.340820312 872.336914062 253.340820312 886.665039062 227.17578125 c 128,-1,151
 900.993164062 201.01171875 900.993164062 201.01171875 913.0078125 180.186523438 c 128,-1,152
 925.022460938 159.361328125 925.022460938 159.361328125 936.4140625 142.274414062 c 0,153,154
 942.97265625 133.178710938 942.97265625 133.178710938 955.13671875 133.864257812 c 128,-1,155
 967.30078125 134.549804688 967.30078125 134.549804688 973.2578125 144.677734375 c 2,156,-1
 1044.54394531 267.224609375 l 1,157,-1
 1115.02832031 388.969726562 l 2,158,159
 1116.78515625 392.163085938 1116.78515625 392.163085938 1119.46875 396.625976562 c 128,-1,160
 1122.15332031 401.08984375 1122.15332031 401.08984375 1122.67871094 402.131835938 c 128,-1,161
 1123.20410156 403.174804688 1123.20410156 403.174804688 1123.49316406 405.700195312 c 128,-1,162
 1123.78222656 408.225585938 1123.78222656 408.225585938 1122.66601562 410.051757812 c 128,-1,163
 1121.54980469 411.87890625 1121.54980469 411.87890625 1119.03320312 415.401367188 c 0,164,165
 1113.42578125 422.610351562 1113.42578125 422.610351562 1095.00390625 422.610351562 c 2,166,-1
 1006.8984375 422.610351562 l 1,167,168
 1002.74511719 494.107421875 1002.74511719 494.107421875 970.069335938 561.619140625 c 128,-1,169
 937.39453125 629.129882812 937.39453125 629.129882812 885.662109375 679.96484375 c 128,-1,170
 833.930664062 730.798828125 833.930664062 730.798828125 763.071289062 761.833984375 c 128,-1,171
 692.212890625 792.869140625 692.212890625 792.869140625 616.030273438 793.455078125 c 2,172,-1
 612.826171875 793.455078125 l 2,128,129
EndSplineSet
EndChar

StartChar: uni01B5
Encoding: 437 437 30
Width: 1000
VWidth: 1106
LayerCount: 2
Fore
SplineSet
502.438476562 900 m 2,0,1
 614.549804688 899.215820312 614.549804688 899.215820312 718.818359375 847.23828125 c 128,-1,2
 823.086914062 795.260742188 823.086914062 795.260742188 896.595703125 702.076171875 c 128,-1,3
 970.103515625 608.891601562 970.103515625 608.891601562 990.920898438 495.166992188 c 0,4,5
 1011.32910156 385.672851562 1011.32910156 385.672851562 981.91015625 275.1328125 c 128,-1,6
 952.491210938 164.592773438 952.491210938 164.592773438 877.614257812 74.6767578125 c 128,-1,7
 802.737304688 -15.240234375 802.737304688 -15.240234375 696.569335938 -61.181640625 c 0,8,9
 564.232421875 -118.791992188 564.232421875 -118.791992188 413.36328125 -92.0576171875 c 128,-1,10
 262.495117188 -65.3232421875 262.495117188 -65.3232421875 154.424804688 37.4619140625 c 0,11,12
 71.2998046875 117.056640625 71.2998046875 117.056640625 31.140625 229.001953125 c 128,-1,13
 -9.0185546875 340.947265625 -9.0185546875 340.947265625 3.8740234375 461.45703125 c 128,-1,14
 16.765625 581.966796875 16.765625 581.966796875 84.1904296875 679.828125 c 0,15,16
 153.340820312 780.573242188 153.340820312 780.573242188 263.603515625 839.9921875 c 128,-1,17
 373.8671875 899.412109375 373.8671875 899.412109375 496.125 900 c 2,18,-1
 502.438476562 900 l 2,0,1
496.9140625 795.043945312 m 0,19,20
 408.659179688 794.258789062 408.659179688 794.258789062 326.526367188 753.715820312 c 128,-1,21
 244.392578125 713.171875 244.392578125 713.171875 186.186523438 640.399414062 c 128,-1,22
 127.98046875 567.627929688 127.98046875 567.627929688 111.021484375 478.595703125 c 0,23,24
 94.515625 391.7421875 94.515625 391.7421875 117.129882812 304.096679688 c 128,-1,25
 139.744140625 216.452148438 139.744140625 216.452148438 198.557617188 144.8828125 c 128,-1,26
 257.372070312 73.3134765625 257.372070312 73.3134765625 341.452148438 36.6728515625 c 0,27,28
 403.209960938 9.7451171875 403.209960938 9.7451171875 472.857421875 6.484375 c 128,-1,29
 542.505859375 3.2236328125 542.505859375 3.2236328125 607.666015625 21.9169921875 c 128,-1,30
 672.827148438 40.609375 672.827148438 40.609375 731.771484375 82.31640625 c 128,-1,31
 790.716796875 124.0234375 790.716796875 124.0234375 830.723632812 183.454101562 c 0,32,33
 886.227539062 265.926757812 886.227539062 265.926757812 892.99609375 368.416015625 c 128,-1,34
 899.765625 470.905273438 899.765625 470.905273438 855.2578125 567.467773438 c 128,-1,35
 810.750976562 664.030273438 810.750976562 664.030273438 723.400390625 725.598632812 c 0,36,37
 625.705078125 795.043945312 625.705078125 795.043945312 496.9140625 795.043945312 c 0,19,20
522.166992188 270.259765625 m 2,38,39
 540.963867188 270.259765625 540.963867188 270.259765625 548.998046875 257.633789062 c 0,40,41
 553.6328125 249.43359375 553.6328125 249.43359375 554.759765625 239.620117188 c 128,-1,42
 555.887695312 229.805664062 555.887695312 229.805664062 554.810546875 213.3046875 c 128,-1,43
 553.733398438 196.8046875 553.733398438 196.8046875 553.733398438 192.134765625 c 0,44,45
 553.733398438 179.875 553.733398438 179.875 544.84375 170.508789062 c 128,-1,46
 535.954101562 161.142578125 535.954101562 161.142578125 522.166992188 160.568359375 c 0,47,48
 516.741210938 160.568359375 516.741210938 160.568359375 501.096679688 159.84375 c 128,-1,49
 485.452148438 159.119140625 485.452148438 159.119140625 478.1328125 159.407226562 c 128,-1,50
 470.813476562 159.694335938 470.813476562 159.694335938 461.737304688 162.9765625 c 128,-1,51
 452.661132812 166.2578125 452.661132812 166.2578125 448.776367188 173.1953125 c 0,52,53
 444.140625 181.040039062 444.140625 181.040039062 443.014648438 190.670898438 c 128,-1,54
 441.887695312 200.30078125 441.887695312 200.30078125 442.96484375 216.747070312 c 128,-1,55
 444.041992188 233.192382812 444.041992188 233.192382812 444.041992188 237.905273438 c 0,56,57
 444.041992188 250.40625 444.041992188 250.40625 452.737304688 260.049804688 c 128,-1,58
 461.431640625 269.692382812 461.431640625 269.692382812 475.607421875 270.259765625 c 2,59,-1
 522.166992188 270.259765625 l 2,38,39
522.166992188 639.581054688 m 0,60,61
 541.633789062 639.581054688 541.633789062 639.581054688 548.998046875 626.955078125 c 0,62,63
 553.733398438 620.326171875 553.733398438 620.326171875 553.733398438 608.015625 c 0,64,65
 554.920898438 495.16796875 554.920898438 495.16796875 553.733398438 382.319335938 c 0,66,67
 553.733398438 365.8359375 553.733398438 365.8359375 543.474609375 357.85546875 c 0,68,69
 535.97265625 352.139648438 535.97265625 352.139648438 526.200195312 350.639648438 c 128,-1,70
 516.426757812 349.139648438 516.426757812 349.139648438 498.143554688 350.340820312 c 128,-1,71
 479.859375 351.541992188 479.859375 351.541992188 475.607421875 351.541992188 c 0,72,73
 463.254882812 351.541992188 463.254882812 351.541992188 453.934570312 360.073242188 c 128,-1,74
 444.61328125 368.604492188 444.61328125 368.604492188 444.041992188 382.319335938 c 0,75,76
 442.854492188 495.16796875 442.854492188 495.16796875 444.041992188 608.015625 c 0,77,78
 444.041992188 627.481445312 444.041992188 627.481445312 456.66796875 634.846679688 c 0,79,80
 464.510742188 639.48046875 464.510742188 639.48046875 474.321289062 640.608398438 c 128,-1,81
 484.131835938 641.736328125 484.131835938 641.736328125 500.831054688 640.658203125 c 128,-1,82
 517.53125 639.581054688 517.53125 639.581054688 522.166992188 639.581054688 c 0,60,61
EndSplineSet
EndChar

StartChar: uni01B6
Encoding: 438 438 31
Width: 1000
VWidth: 1106
Flags: W
LayerCount: 2
Fore
SplineSet
522.189453125 447.735351562 m 0,0,1
 534.452148438 447.735351562 534.452148438 447.735351562 543.819335938 438.844726562 c 128,-1,2
 553.186523438 429.954101562 553.186523438 429.954101562 553.760742188 416.1640625 c 0,3,4
 554.94140625 304.084960938 554.94140625 304.084960938 553.760742188 192.004882812 c 0,5,6
 553.760742188 179.743164062 553.760742188 179.743164062 544.870117188 170.375 c 128,-1,7
 535.978515625 161.0078125 535.978515625 161.0078125 522.189453125 160.43359375 c 0,8,9
 515.767578125 160.43359375 515.767578125 160.43359375 502.15234375 159.124023438 c 128,-1,10
 488.537109375 157.814453125 488.537109375 157.814453125 480.491210938 157.954101562 c 128,-1,11
 472.444335938 158.09375 472.444335938 158.09375 463.016601562 160.38671875 c 128,-1,12
 453.588867188 162.6796875 453.588867188 162.6796875 448.931640625 170.583007812 c 128,-1,13
 444.275390625 178.485351562 444.275390625 178.485351562 444.049804688 192.004882812 c 0,14,15
 442.870117188 304.084960938 442.870117188 304.084960938 444.049804688 416.1640625 c 0,16,17
 444.049804688 435.6328125 444.049804688 435.6328125 456.678710938 443 c 0,18,19
 464.522460938 447.634765625 464.522460938 447.634765625 474.334960938 448.762695312 c 128,-1,20
 484.147460938 449.890625 484.147460938 449.890625 500.849609375 448.813476562 c 128,-1,21
 517.552734375 447.735351562 517.552734375 447.735351562 522.189453125 447.735351562 c 0,0,1
522.189453125 639.534179688 m 0,22,23
 541.658203125 639.534179688 541.658203125 639.534179688 549.025390625 626.905273438 c 0,24,25
 553.66015625 619.061523438 553.66015625 619.061523438 554.788085938 609.249023438 c 128,-1,26
 555.916015625 599.436523438 555.916015625 599.436523438 554.838867188 582.733398438 c 128,-1,27
 553.760742188 566.030273438 553.760742188 566.030273438 553.760742188 561.393554688 c 0,28,29
 553.760742188 549.131835938 553.760742188 549.131835938 544.870117188 539.763671875 c 128,-1,30
 535.978515625 530.396484375 535.978515625 530.396484375 522.189453125 529.822265625 c 0,31,32
 515.767578125 529.822265625 515.767578125 529.822265625 502.15234375 528.512695312 c 128,-1,33
 488.537109375 527.203125 488.537109375 527.203125 480.491210938 527.342773438 c 128,-1,34
 472.444335938 527.482421875 472.444335938 527.482421875 463.016601562 529.775390625 c 128,-1,35
 453.588867188 532.068359375 453.588867188 532.068359375 448.931640625 539.971679688 c 128,-1,36
 444.275390625 547.874023438 444.275390625 547.874023438 444.049804688 561.393554688 c 0,37,38
 444.049804688 566.821289062 444.049804688 566.821289062 443.325195312 582.46875 c 128,-1,39
 442.600585938 598.115234375 442.600585938 598.115234375 442.887695312 605.435546875 c 128,-1,40
 443.17578125 612.756835938 443.17578125 612.756835938 446.458007812 621.833984375 c 128,-1,41
 449.739257812 630.912109375 449.739257812 630.912109375 456.678710938 634.797851562 c 0,42,43
 464.522460938 639.432617188 464.522460938 639.432617188 474.333984375 640.560546875 c 128,-1,44
 484.146484375 641.689453125 484.146484375 641.689453125 500.850585938 640.611328125 c 128,-1,45
 517.553710938 639.534179688 517.553710938 639.534179688 522.189453125 639.534179688 c 0,22,23
502.438476562 900 m 2,46,47
 614.549804688 899.215820312 614.549804688 899.215820312 718.818359375 847.23828125 c 128,-1,48
 823.086914062 795.260742188 823.086914062 795.260742188 896.595703125 702.076171875 c 128,-1,49
 970.103515625 608.891601562 970.103515625 608.891601562 990.920898438 495.166992188 c 0,50,51
 1011.32910156 385.672851562 1011.32910156 385.672851562 981.91015625 275.1328125 c 128,-1,52
 952.491210938 164.592773438 952.491210938 164.592773438 877.614257812 74.6767578125 c 128,-1,53
 802.737304688 -15.240234375 802.737304688 -15.240234375 696.569335938 -61.181640625 c 0,54,55
 564.232421875 -118.791992188 564.232421875 -118.791992188 413.36328125 -92.0576171875 c 128,-1,56
 262.495117188 -65.3232421875 262.495117188 -65.3232421875 154.424804688 37.4619140625 c 0,57,58
 71.2998046875 117.056640625 71.2998046875 117.056640625 31.140625 229.001953125 c 128,-1,59
 -9.0185546875 340.947265625 -9.0185546875 340.947265625 3.8740234375 461.45703125 c 128,-1,60
 16.765625 581.966796875 16.765625 581.966796875 84.1904296875 679.828125 c 0,61,62
 153.340820312 780.573242188 153.340820312 780.573242188 263.603515625 839.9921875 c 128,-1,63
 373.8671875 899.412109375 373.8671875 899.412109375 496.125 900 c 2,64,-1
 502.438476562 900 l 2,46,47
496.9140625 795.043945312 m 0,65,66
 408.659179688 794.258789062 408.659179688 794.258789062 326.526367188 753.715820312 c 128,-1,67
 244.392578125 713.171875 244.392578125 713.171875 186.186523438 640.399414062 c 128,-1,68
 127.98046875 567.627929688 127.98046875 567.627929688 111.021484375 478.595703125 c 0,69,70
 94.515625 391.7421875 94.515625 391.7421875 117.129882812 304.096679688 c 128,-1,71
 139.744140625 216.452148438 139.744140625 216.452148438 198.557617188 144.8828125 c 128,-1,72
 257.372070312 73.3134765625 257.372070312 73.3134765625 341.452148438 36.6728515625 c 0,73,74
 403.209960938 9.7451171875 403.209960938 9.7451171875 472.857421875 6.484375 c 128,-1,75
 542.505859375 3.2236328125 542.505859375 3.2236328125 607.666015625 21.9169921875 c 128,-1,76
 672.827148438 40.609375 672.827148438 40.609375 731.771484375 82.31640625 c 128,-1,77
 790.716796875 124.0234375 790.716796875 124.0234375 830.723632812 183.454101562 c 0,78,79
 886.227539062 265.926757812 886.227539062 265.926757812 892.99609375 368.416015625 c 128,-1,80
 899.765625 470.905273438 899.765625 470.905273438 855.2578125 567.467773438 c 128,-1,81
 810.750976562 664.030273438 810.750976562 664.030273438 723.400390625 725.598632812 c 0,82,83
 625.705078125 795.043945312 625.705078125 795.043945312 496.9140625 795.043945312 c 0,65,66
EndSplineSet
EndChar

StartChar: Aogonek
Encoding: 260 260 32
Width: 1000
VWidth: 1100
LayerCount: 2
Fore
SplineSet
944.959960938 900 m 2,0,1
 957.719726562 900 957.719726562 900 967.294921875 897.607421875 c 0,2,3
 1006.34179688 889.32421875 1006.34179688 889.32421875 1035.09765625 859.318359375 c 2,4,-1
 1190.64648438 704.567382812 l 2,5,6
 1208.21289062 686.181640625 1208.21289062 686.181640625 1216.96972656 666.279296875 c 0,7,8
 1232.34960938 632.580078125 1232.34960938 632.580078125 1226.2421875 594.6875 c 128,-1,9
 1220.13574219 556.794921875 1220.13574219 556.794921875 1195.43164062 529.078125 c 0,10,11
 1194.63378906 527.880859375 1194.63378906 527.880859375 1193.4375 526.684570312 c 128,-1,12
 1192.24023438 525.487304688 1192.24023438 525.487304688 1191.44335938 524.291992188 c 2,13,-1
 603.551757812 -63.6005859375 l 2,14,15
 567.029296875 -99.513671875 567.029296875 -99.513671875 513.8125 -99.994140625 c 128,-1,16
 460.595703125 -100.475585938 460.595703125 -100.475585938 421.680664062 -62.802734375 c 0,17,18
 365.666015625 -4.6611328125 365.666015625 -4.6611328125 301.451171875 59.5537109375 c 128,-1,19
 237.236328125 123.767578125 237.236328125 123.767578125 158.223632812 201.716796875 c 128,-1,20
 79.2109375 279.666015625 79.2109375 279.666015625 36.3994140625 322.477539062 c 0,21,22
 0.484375 359.610351562 0.484375 359.610351562 0.0048828125 412.516601562 c 128,-1,23
 -0.474609375 465.422851562 -0.474609375 465.422851562 37.197265625 504.349609375 c 0,24,25
 117.16015625 580.732421875 117.16015625 580.732421875 193.54296875 660.6953125 c 0,26,27
 214.328125 680.65625 214.328125 680.65625 237.416015625 690.209960938 c 0,28,29
 271.791015625 704.305664062 271.791015625 704.305664062 309.706054688 696.192382812 c 128,-1,30
 347.62109375 688.078125 347.62109375 688.078125 375.415039062 661.493164062 c 2,31,-1
 512.616210938 524.291992188 l 1,32,-1
 853.2265625 864.104492188 l 1,33,34
 892.388671875 896.01953125 892.388671875 896.01953125 931.399414062 900 c 2,35,-1
 943.364257812 900 l 1,36,-1
 944.959960938 900 l 2,0,1
940.971679688 793.908203125 m 0,37,38
 931.6640625 792.578125 931.6640625 792.578125 925.815429688 786.729492188 c 2,39,-1
 512.616210938 373.529296875 l 1,40,-1
 299.634765625 586.510742188 l 2,41,42
 293.65234375 592.493164062 293.65234375 592.493164062 284.877929688 592.493164062 c 128,-1,43
 276.103515625 592.493164062 276.103515625 592.493164062 270.120117188 586.510742188 c 0,44,45
 247.077148438 562.758789062 247.077148438 562.758789062 220.750976562 536.432617188 c 128,-1,46
 194.42578125 510.106445312 194.42578125 510.106445312 162.080078125 478.116210938 c 128,-1,47
 129.735351562 446.125976562 129.735351562 446.125976562 112.1796875 428.569335938 c 0,48,49
 105.662109375 422.051757812 105.662109375 422.051757812 105.499023438 413.114257812 c 128,-1,50
 105.336914062 404.177734375 105.336914062 404.177734375 111.381835938 398.2578125 c 0,51,52
 168.10546875 340.469726562 168.10546875 340.469726562 232.51171875 276.064453125 c 128,-1,53
 296.916992188 211.659179688 296.916992188 211.659179688 375.798828125 133.309570312 c 128,-1,54
 454.680664062 54.958984375 454.680664062 54.958984375 497.459960938 12.1796875 c 0,55,56
 503.977539062 5.662109375 503.977539062 5.662109375 512.915039062 5.4990234375 c 128,-1,57
 521.852539062 5.3369140625 521.852539062 5.3369140625 527.772460938 11.3818359375 c 0,58,59
 615.338867188 97.884765625 615.338867188 97.884765625 713.25 195.795898438 c 128,-1,60
 811.161132812 293.70703125 811.161132812 293.70703125 930.452148438 413.530273438 c 128,-1,61
 1049.7421875 533.352539062 1049.7421875 533.352539062 1114.86621094 598.4765625 c 0,62,63
 1129.02636719 614.2109375 1129.02636719 614.2109375 1115.6640625 628.788085938 c 2,64,-1
 957.72265625 786.729492188 l 2,65,66
 951.568359375 793.908203125 951.568359375 793.908203125 940.971679688 793.908203125 c 0,37,38
EndSplineSet
EndChar

StartChar: two
Encoding: 50 50 33
Width: 620
VWidth: 0
Flags: W
LayerCount: 2
Fore
SplineSet
364.389648438 699.728515625 m 2,0,1
 454.872070312 699.91796875 454.872070312 699.91796875 493.19140625 644.204101562 c 0,2,3
 522.583984375 601.471679688 522.583984375 601.471679688 517.344726562 523.905273438 c 2,4,-1
 517.109375 521.7265625 l 2,5,6
 508.094726562 450.115234375 508.094726562 450.115234375 447.520507812 390.970703125 c 0,7,8
 416.31640625 360.504882812 416.31640625 360.504882812 333.2421875 305.059570312 c 0,9,10
 191.595703125 210.5 191.595703125 210.5 179.25 126.454101562 c 2,11,-1
 179.171875 77.0302734375 l 1,12,-1
 479.125 77.0302734375 l 2,13,14
 518.181640625 77.041015625 518.181640625 77.041015625 518.181640625 38.509765625 c 128,-1,15
 518.181640625 -0.0107421875 518.181640625 -0.0107421875 479.661132812 -0.0107421875 c 0,16,-1
 140.584960938 0 l 2,17,18
 102.063476562 0 102.063476562 0 102.063476562 38.509765625 c 2,19,-1
 102.208007812 130.744140625 l 1,20,-1
 102.587890625 136.017578125 l 2,21,22
 119.122070312 254.696289062 119.122070312 254.696289062 290.521484375 369.084960938 c 0,23,24
 367.596679688 420.520507812 367.596679688 420.520507812 393.739257812 446.047851562 c 0,25,26
 434.370117188 485.73046875 434.370117188 485.73046875 440.303710938 530.674804688 c 0,27,28
 443.275390625 580.736328125 443.275390625 580.736328125 429.690429688 600.48828125 c 0,29,30
 414.373046875 622.798828125 414.373046875 622.798828125 364.545898438 622.686523438 c 0,31,-1
 364.46875 622.686523438 l 1,32,-1
 140.952148438 622.384765625 l 2,33,34
 101.818359375 622.384765625 101.818359375 622.384765625 101.818359375 660.90625 c 128,-1,35
 101.818359375 699.426757812 101.818359375 699.426757812 140.338867188 699.426757812 c 0,36,-1
 364.389648438 699.728515625 l 2,0,1
EndSplineSet
Validated: 33
EndChar

StartChar: uni02BE
Encoding: 702 702 34
Width: 1000
VWidth: 1200
LayerCount: 2
Fore
SplineSet
504.693359375 881.995117188 m 2,0,1
 549.7109375 880.40625 549.7109375 880.40625 572.075195312 861.81640625 c 128,-1,2
 594.438476562 843.2265625 594.438476562 843.2265625 609.079101562 812.404296875 c 2,3,-1
 689.741210938 621.8203125 l 1,4,-1
 895.350585938 604.422851562 l 2,5,6
 932.561523438 598.064453125 932.561523438 598.064453125 954.661132812 581.489257812 c 0,7,8
 996.134765625 550.234375 996.134765625 550.234375 999.737304688 493.908203125 c 128,-1,9
 1003.33886719 437.58203125 1003.33886719 437.58203125 964.150390625 400.395507812 c 0,10,11
 963.88671875 400.131835938 963.88671875 400.131835938 963.359375 399.604492188 c 0,12,13
 962.305664062 398.549804688 962.305664062 398.549804688 961.778320312 398.0234375 c 2,14,-1
 806.780273438 262.794921875 l 1,15,-1
 853.4375 60.349609375 l 2,16,17
 862.088867188 12.0341796875 862.088867188 12.0341796875 837.622070312 -26.6396484375 c 0,18,19
 812.158203125 -66.0478515625 812.158203125 -66.0478515625 764.17578125 -77.84375 c 128,-1,20
 716.193359375 -89.640625 716.193359375 -89.640625 674.715820312 -63.806640625 c 2,21,-1
 500.739257812 41.3701171875 l 1,22,-1
 322.807617188 -66.1796875 l 2,23,24
 291.118164062 -81.9951171875 291.118164062 -81.9951171875 261.916015625 -81.9951171875 c 0,25,26
 210.765625 -80.7919921875 210.765625 -80.7919921875 174.619140625 -38.2373046875 c 128,-1,27
 138.471679688 4.3173828125 138.471679688 4.3173828125 147.249023438 56.3955078125 c 0,28,29
 148.040039062 57.1865234375 148.040039062 57.1865234375 148.040039062 60.349609375 c 2,30,-1
 195.48828125 262.794921875 l 1,31,-1
 43.6533203125 394.859375 l 1,32,-1
 37.3271484375 400.395507812 l 2,33,34
 2.54296875 433.7890625 2.54296875 433.7890625 0.1591796875 480.266601562 c 0,35,36
 -2.228515625 523.84765625 -2.228515625 523.84765625 27.0810546875 560.203125 c 128,-1,37
 56.3896484375 596.559570312 56.3896484375 596.559570312 100.591796875 603.631835938 c 0,38,39
 103.754882812 603.631835938 103.754882812 603.631835938 106.91796875 604.422851562 c 2,40,-1
 311.736328125 621.8203125 l 1,41,-1
 391.608398438 810.823242188 l 2,42,43
 393.188476562 813.651367188 393.188476562 813.651367188 396.200195312 818.354492188 c 128,-1,44
 399.211914062 823.056640625 399.211914062 823.056640625 409.525390625 835.139648438 c 128,-1,45
 419.838867188 847.22265625 419.838867188 847.22265625 431.26171875 856.540039062 c 128,-1,46
 442.68359375 865.858398438 442.68359375 865.858398438 460.71875 873.705078125 c 128,-1,47
 478.754882812 881.552734375 478.754882812 881.552734375 497.576171875 881.995117188 c 2,48,-1
 504.693359375 881.995117188 l 2,0,1
500.739257812 776.818359375 m 0,49,50
 493.146484375 776.818359375 493.146484375 776.818359375 488.876953125 769.701171875 c 0,51,52
 420.896484375 610.029296875 420.896484375 610.029296875 387.654296875 529.296875 c 0,53,54
 383.69921875 521.388671875 383.69921875 521.388671875 375.791992188 521.388671875 c 0,55,56
 155.955078125 503.237304688 155.955078125 503.237304688 116.408203125 499.24609375 c 0,57,58
 109.181640625 498.041015625 109.181640625 498.041015625 106.720703125 489.954101562 c 128,-1,59
 104.258789062 481.866210938 104.258789062 481.866210938 110.081054688 477.103515625 c 0,60,61
 126.966796875 462.455078125 126.966796875 462.455078125 197.631835938 400.330078125 c 128,-1,62
 268.296875 338.205078125 268.296875 338.205078125 306.9921875 305.499023438 c 0,63,64
 312.263671875 300.227539062 312.263671875 300.227539062 310.946289062 293.63671875 c 0,65,66
 307.377929688 277.580078125 307.377929688 277.580078125 251.635742188 38.998046875 c 0,67,68
 250.428710938 31.759765625 250.428710938 31.759765625 257.017578125 26.904296875 c 128,-1,69
 263.606445312 22.0498046875 263.606445312 22.0498046875 270.615234375 25.5537109375 c 2,70,-1
 493.622070312 159.991210938 l 2,71,72
 496.08203125 161.045898438 496.08203125 161.045898438 499.640625 161.045898438 c 128,-1,73
 503.19921875 161.045898438 503.19921875 161.045898438 505.528320312 160.518554688 c 2,74,-1
 507.856445312 159.991210938 l 1,75,76
 545.024414062 137.453125 545.024414062 137.453125 619.755859375 92.376953125 c 128,-1,77
 694.486328125 47.30078125 694.486328125 47.30078125 731.654296875 24.7626953125 c 0,78,79
 738.173828125 21.20703125 738.173828125 21.20703125 744.6015625 26.244140625 c 128,-1,80
 751.029296875 31.2822265625 751.029296875 31.2822265625 749.842773438 38.998046875 c 0,81,82
 710.326171875 208.124023438 710.326171875 208.124023438 691.323242188 293.63671875 c 0,83,84
 689.873046875 300.885742188 689.873046875 300.885742188 695.27734375 306.290039062 c 0,85,86
 892.158203125 477.077148438 892.158203125 477.077148438 892.1875 477.103515625 c 0,87,88
 897.506835938 482.444335938 897.506835938 482.444335938 895.251953125 490.25 c 128,-1,89
 892.997070312 498.056640625 892.997070312 498.056640625 885.861328125 499.24609375 c 0,90,91
 862.329101562 502.02734375 862.329101562 502.02734375 625.686523438 521.388671875 c 0,92,93
 622.522460938 521.388671875 622.522460938 521.388671875 620.94140625 522.1796875 c 0,94,95
 615.744140625 524.77734375 615.744140625 524.77734375 614.615234375 529.296875 c 0,96,97
 598.5 564.329101562 598.5 564.329101562 581.360351562 604.779296875 c 128,-1,98
 564.219726562 645.229492188 564.219726562 645.229492188 544.274414062 693.69140625 c 128,-1,99
 524.329101562 742.153320312 524.329101562 742.153320312 512.600585938 769.701171875 c 0,100,101
 509.04296875 776.818359375 509.04296875 776.818359375 500.739257812 776.818359375 c 0,49,50
291.17578125 572 m 1,102,-1
 291.17578125 572 l 1,102,-1
711.092773438 571.208984375 m 1,103,-1
 711.092773438 571.208984375 l 1,103,-1
EndSplineSet
EndChar

StartChar: uni0297
Encoding: 663 663 35
Width: 1000
VWidth: 1100
LayerCount: 2
Fore
SplineSet
570.754882812 819.981445312 m 2,0,1
 618.721679688 818.782226562 618.721679688 818.782226562 654.067382812 783.275390625 c 128,-1,2
 689.412109375 747.76953125 689.412109375 747.76953125 690.004882812 699.141601562 c 2,3,-1
 690.004882812 590.2265625 l 1,4,-1
 798.919921875 590.2265625 l 2,5,6
 844.297851562 588.583984375 844.297851562 588.583984375 876.03515625 562.401367188 c 0,7,8
 920.555664062 526.784179688 920.555664062 526.784179688 920.555664062 469.385742188 c 2,9,-1
 920.555664062 331.055664062 l 2,10,11
 919.952148438 282.798828125 919.952148438 282.798828125 884.205078125 246.404296875 c 128,-1,12
 848.458007812 210.010742188 848.458007812 210.010742188 798.919921875 209.420898438 c 2,13,-1
 690.004882812 209.420898438 l 1,14,-1
 690.004882812 100.505859375 l 2,15,16
 689.196289062 75.8232421875 689.196289062 75.8232421875 682.055664062 56.7802734375 c 0,17,18
 668.311523438 22.7197265625 668.311523438 22.7197265625 636.884765625 1.1923828125 c 128,-1,19
 605.458007812 -20.3349609375 605.458007812 -20.3349609375 569.165039062 -20.3349609375 c 2,20,-1
 430.834960938 -20.3349609375 l 2,21,22
 385.7265625 -20.3349609375 385.7265625 -20.3349609375 352.129882812 8.28515625 c 2,23,-1
 341.794921875 18.6201171875 l 2,24,25
 330.600585938 30.67578125 330.600585938 30.67578125 325.099609375 41.67578125 c 0,26,27
 308.724609375 68.5771484375 308.724609375 68.5771484375 309.995117188 102.890625 c 2,28,-1
 309.995117188 109.232421875 l 1,29,-1
 309.995117188 106.865234375 l 1,30,-1
 309.995117188 209.420898438 l 1,31,-1
 200.284179688 209.420898438 l 2,32,33
 152.244140625 210.021484375 152.244140625 210.021484375 116.140625 245.962890625 c 128,-1,34
 80.0361328125 281.905273438 80.0361328125 281.905273438 79.4443359375 331.055664062 c 2,35,-1
 79.4443359375 469.385742188 l 2,36,37
 80.0478515625 517.045898438 80.0478515625 517.045898438 115.694335938 553.340820312 c 128,-1,38
 151.341796875 589.635742188 151.341796875 589.635742188 200.284179688 590.2265625 c 2,39,-1
 309.995117188 590.2265625 l 1,40,-1
 309.995117188 699.141601562 l 2,41,42
 310.040039062 739.747070312 310.040039062 739.747070312 333.049804688 770.69140625 c 0,43,44
 349.796875 793.419921875 349.796875 793.419921875 376.049804688 806.700195312 c 128,-1,45
 402.302734375 819.981445312 402.302734375 819.981445312 430.834960938 819.981445312 c 2,46,-1
 570.754882812 819.981445312 l 2,0,1
348.155273438 12.2607421875 m 2,47,48
 348.16015625 12.255859375 348.16015625 12.255859375 356.104492188 5.900390625 c 2,49,-1
 348.155273438 12.2607421875 l 2,47,48
344.1796875 16.2353515625 m 1,50,-1
 341 19.4150390625 l 2,51,52
 348.154296875 12.2607421875 348.154296875 12.2607421875 348.155273438 12.2607421875 c 2,53,-1
 344.1796875 16.2353515625 l 1,50,-1
431.629882812 714.24609375 m 2,54,55
 425.071289062 714.24609375 425.071289062 714.24609375 420.400390625 709.575195312 c 128,-1,56
 415.729492188 704.905273438 415.729492188 704.905273438 415.729492188 698.346679688 c 2,57,-1
 415.729492188 484.491210938 l 1,58,-1
 201.080078125 484.491210938 l 2,59,60
 194.521484375 484.491210938 194.521484375 484.491210938 189.850585938 479.8203125 c 128,-1,61
 185.1796875 475.149414062 185.1796875 475.149414062 185.1796875 468.590820312 c 0,62,63
 183.983398438 400.420898438 183.983398438 400.420898438 185.1796875 331.055664062 c 0,64,65
 185.1796875 324.956054688 185.1796875 324.956054688 189.916992188 320.055664062 c 128,-1,66
 194.653320312 315.155273438 194.653320312 315.155273438 201.080078125 315.155273438 c 2,67,-1
 415.729492188 315.155273438 l 1,68,-1
 415.729492188 101.30078125 l 2,69,70
 415.138671875 95.396484375 415.138671875 95.396484375 419.673828125 90.69921875 c 128,-1,71
 424.208984375 86.0029296875 424.208984375 86.0029296875 430.834960938 85.400390625 c 0,72,73
 477.212890625 83.8017578125 477.212890625 83.8017578125 568.370117188 85.400390625 c 0,74,75
 574.796875 85.400390625 574.796875 85.400390625 579.533203125 90.30078125 c 128,-1,76
 584.270507812 95.201171875 584.270507812 95.201171875 584.270507812 101.30078125 c 2,77,-1
 584.270507812 315.155273438 l 1,78,-1
 798.919921875 315.155273438 l 2,79,80
 805.346679688 315.155273438 805.346679688 315.155273438 810.083007812 320.055664062 c 128,-1,81
 814.8203125 324.956054688 814.8203125 324.956054688 814.8203125 331.055664062 c 0,82,83
 816.016601562 400.420898438 816.016601562 400.420898438 814.8203125 468.590820312 c 0,84,85
 814.8203125 475.079101562 814.8203125 475.079101562 809.790039062 479.78515625 c 128,-1,86
 804.758789062 484.491210938 804.758789062 484.491210938 798.125 484.491210938 c 2,87,-1
 584.270507812 484.491210938 l 1,88,-1
 584.270507812 699.141601562 l 2,89,90
 584.270507812 705.165039062 584.270507812 705.165039062 579.567382812 709.706054688 c 128,-1,91
 574.865234375 714.24609375 574.865234375 714.24609375 568.370117188 714.24609375 c 2,92,-1
 431.629882812 714.24609375 l 2,54,55
EndSplineSet
EndChar

StartChar: uni0298
Encoding: 664 664 36
Width: 1000
VWidth: 1100
LayerCount: 2
Fore
SplineSet
798.919921875 590.2265625 m 1,0,1
 844.297851562 588.583984375 844.297851562 588.583984375 876.03515625 562.401367188 c 0,2,3
 920.555664062 526.784179688 920.555664062 526.784179688 920.555664062 469.385742188 c 2,4,-1
 920.555664062 331.055664062 l 2,5,6
 919.952148438 282.798828125 919.952148438 282.798828125 884.205078125 246.404296875 c 128,-1,7
 848.458007812 210.010742188 848.458007812 210.010742188 798.919921875 209.420898438 c 2,8,-1
 200.284179688 209.420898438 l 2,9,10
 152.244140625 210.021484375 152.244140625 210.021484375 116.140625 245.962890625 c 128,-1,11
 80.0361328125 281.905273438 80.0361328125 281.905273438 79.4443359375 331.055664062 c 2,12,-1
 79.4443359375 469.385742188 l 2,13,14
 80.0478515625 517.045898438 80.0478515625 517.045898438 115.694335938 553.340820312 c 128,-1,15
 151.341796875 589.635742188 151.341796875 589.635742188 200.284179688 590.2265625 c 2,16,-1
 798.919921875 590.2265625 l 1,0,1
201.080078125 484.491210938 m 2,17,18
 194.521484375 484.491210938 194.521484375 484.491210938 189.850585938 479.8203125 c 128,-1,19
 185.1796875 475.149414062 185.1796875 475.149414062 185.1796875 468.590820312 c 0,20,21
 183.983398438 400.420898438 183.983398438 400.420898438 185.1796875 331.055664062 c 0,22,23
 185.1796875 324.956054688 185.1796875 324.956054688 189.916992188 320.055664062 c 128,-1,24
 194.653320312 315.155273438 194.653320312 315.155273438 201.080078125 315.155273438 c 2,25,-1
 798.919921875 315.155273438 l 2,26,27
 805.346679688 315.155273438 805.346679688 315.155273438 810.083007812 320.055664062 c 128,-1,28
 814.8203125 324.956054688 814.8203125 324.956054688 814.8203125 331.055664062 c 0,29,30
 816.016601562 400.420898438 816.016601562 400.420898438 814.8203125 468.590820312 c 0,31,32
 814.8203125 475.079101562 814.8203125 475.079101562 809.790039062 479.78515625 c 128,-1,33
 804.758789062 484.491210938 804.758789062 484.491210938 798.125 484.491210938 c 2,34,-1
 201.080078125 484.491210938 l 2,17,18
EndSplineSet
EndChar

StartChar: semicolon
Encoding: 59 59 37
Width: 269
VWidth: 26
Flags: W
LayerCount: 2
Fore
SplineSet
206.343406715 88.3502216658 m 1,0,-1
 223.343406715 88.3502216658 l 1,1,-1
 223.343406715 71.3502216658 l 1,2,-1
 210.538806379 71.3502216658 l 1,3,-1
 207.157058475 71.3502216658 l 1,4,-1
 209.426894777 68.8434185125 l 2,5,6
 223.039238373 53.8099705876 223.039238373 53.8099705876 222.912598898 41.1959323246 c 0,7,8
 222.775043105 27.4945644832 222.775043105 27.4945644832 206.670857201 11.3899974432 c 2,9,-1
 91.5446471516 -100.410982343 l 2,10,11
 75.1918653407 -116.750904107 75.1918653407 -116.750904107 61.2138899115 -116.750770422 c 128,-1,12
 47.2365033118 -116.750636743 47.2365033118 -116.750636743 30.9601551085 -100.46464958 c 0,13,14
 22.7843758727 -92.2888703439 22.7843758727 -92.2888703439 18.7474953399 -84.7125427308 c 128,-1,15
 14.710614807 -77.1362151178 14.710614807 -77.1362151178 14.7081714377 -70.2046210863 c 0,16,17
 14.7032323461 -56.1929129142 14.7032323461 -56.1929129142 30.8795158056 -40.0407845177 c 2,18,-1
 145.910167027 71.6674117642 l 2,19,20
 157.856741306 83.2413653506 157.856741306 83.2413653506 175.004145322 83.2871642763 c 0,21,22
 190.553501657 83.3284314878 190.553501657 83.3284314878 203.970586007 73.7287930779 c 2,23,-1
 206.343406715 72.0310903418 l 1,24,-1
 206.343406715 74.9487045546 l 1,25,-1
 206.343406715 88.3502216658 l 1,0,-1
181.15625 455.900390625 m 128,-1,27
 204.162304683 455.900390625 204.162304683 455.900390625 214.065652352 446.001006946 c 128,-1,28
 223.968751358 436.101871829 223.968751358 436.101871829 223.968751358 413.11879417 c 128,-1,29
 223.95911778 390.109183442 223.95911778 390.109183442 214.058604377 380.204223815 c 128,-1,30
 204.158629764 370.299803219 204.158629764 370.299803219 181.188389686 370.299803219 c 128,-1,31
 158.177912181 370.309822518 158.177912181 370.309822518 148.273271576 380.210652866 c 128,-1,32
 138.369140625 390.110973758 138.369140625 390.110973758 138.369140625 413.087890625 c 128,-1,33
 138.369140625 436.094773558 138.369140625 436.094773558 148.26837563 445.99769787 c 128,-1,26
 158.167379164 455.900390625 158.167379164 455.900390625 181.15625 455.900390625 c 128,-1,27
EndSplineSet
Validated: 33
EndChar

StartChar: comma
Encoding: 44 44 38
Width: 269
VWidth: -20
Flags: W
LayerCount: 2
Fore
SplineSet
174.879158031 82.937554935 m 0,0,1
 192.230679444 82.9836050022 192.230679444 82.9836050022 206.934756532 71.0178785138 c 0,2,3
 222.92387365 54.5164729807 222.92387365 54.5164729807 222.786637229 40.8458917264 c 128,-1,4
 222.649094187 27.1445994837 222.649094187 27.1445994837 206.544946473 11.0404520008 c 2,5,-1
 91.4182337018 -100.761015988 l 2,6,7
 75.0882258958 -117.101087559 75.0882258958 -117.101087559 61.0880382537 -117.101126056 c 128,-1,8
 47.0884647203 -117.101164552 47.0884647203 -117.101164552 30.8351551084 -100.815235517 c 128,-1,9
 14.5876187927 -84.5676992009 14.5876187927 -84.5676992009 14.5826780406 -70.5545086794 c 128,-1,10
 14.5777377425 -56.5426056147 14.5777377425 -56.5426056147 30.7544494976 -40.3904582856 c 2,11,-1
 145.785167027 71.3178023892 l 2,12,13
 157.731741306 82.8917559754 157.731741306 82.8917559754 174.879158031 82.937554935 c 0,0,1
206.934756532 71.0178785138 m 1,14,-1
 206.934756532 71.0178785138 l 1,14,-1
EndSplineSet
Validated: 33
EndChar

StartChar: period
Encoding: 46 46 39
Width: 185
VWidth: -4
Flags: W
LayerCount: 2
Fore
SplineSet
92.7900390625 101.0625 m 128,-1,1
 115.782226562 101.072265625 115.782226562 101.072265625 125.686523438 91.17578125 c 128,-1,2
 135.58984375 81.279296875 135.58984375 81.279296875 135.599609375 58.2939453125 c 128,-1,3
 135.58984375 35.2861328125 135.58984375 35.2861328125 125.686523438 25.3876953125 c 128,-1,4
 115.783203125 15.490234375 115.783203125 15.490234375 92.787109375 15.5 c 128,-1,5
 69.794921875 15.5 69.794921875 15.5 59.8974609375 25.3984375 c 128,-1,6
 50 35.296875 50 35.296875 50 58.287109375 c 128,-1,7
 50 81.2724609375 50 81.2724609375 59.8984375 91.1669921875 c 128,-1,0
 69.7978515625 101.0625 69.7978515625 101.0625 92.7900390625 101.0625 c 128,-1,1
EndSplineSet
Validated: 33
EndChar

StartChar: slash
Encoding: 47 47 40
Width: 638
VWidth: 79
Flags: W
LayerCount: 2
Fore
SplineSet
500.104183143 784.485785932 m 2,0,-1
 501.440437501 784.506835938 l 2,1,2
 523.361099398 784.506835938 523.361099398 784.506835938 532.780462915 775.081876796 c 128,-1,3
 542.200195312 765.656548556 542.200195312 765.656548556 542.200195312 743.637695312 c 0,4,5
 542.200195312 733.149420045 542.200195312 733.149420045 537.07067333 723.826084766 c 0,6,-1
 537.037706387 723.762628574 l 1,7,-1
 204.148254469 37.7348885312 l 2,8,9
 198.230262619 26.0722582841 198.230262619 26.0722582841 189.476000805 20.6951245375 c 128,-1,10
 180.723928962 15.3193359375 180.723928962 15.3193359375 167.681640625 15.3193359375 c 0,11,12
 145.639848707 15.3193359375 145.639848707 15.3193359375 136.219750993 24.7371386261 c 128,-1,13
 126.799804688 34.1547899419 126.799804688 34.1547899419 126.799804688 56.1884765625 c 0,14,15
 126.799804688 66.7669384387 126.799804688 66.7669384387 132.029497609 76.1547661756 c 0,16,-1
 132.066295877 76.2251427385 l 1,17,-1
 464.950862699 762.24170497 l 2,18,19
 476.003981349 783.821468319 476.003981349 783.821468319 500.104183143 784.485785932 c 2,0,-1
EndSplineSet
Validated: 1
EndChar

